<svg xmlns="http://www.w3.org/2000/svg" xmlns:xlink="http://www.w3.org/1999/xlink" viewBox="0 0 107.89 100"><defs><style>.cls-1{fill:none;}.cls-1,.cls-5,.cls-6,.cls-8{mix-blend-mode:soft-light;}.cls-2{isolation:isolate;}.cls-3{fill:#ffd24c;}.cls-4{clip-path:url(#clip-path);}.cls-5,.cls-9{fill:#373737;}.cls-5,.cls-6{opacity:0.5;}.cls-7{fill:#ededed;}.cls-10{font-size:44.59px;fill:#996c4c;font-family:Montserrat-SemiBold, Montserrat;font-weight:600;}</style><clipPath id="clip-path" transform="translate(7.89)"><circle class="cls-1" cx="50" cy="50" r="40"/></clipPath></defs><g class="cls-2"><g id="Layer_2" data-name="Layer 2"><g id="Игра"><g id="Монета_-_10" data-name="Монета - 10"><circle class="cls-3" cx="57.89" cy="50" r="50"/><g class="cls-4"><circle class="cls-5" cx="57.89" cy="50" r="40"/><circle class="cls-3" cx="40" cy="40.67" r="40"/><g class="cls-6"><path class="cls-7" d="M21.29,61.7a35.35,35.35,0,0,1-2.34-8,36.21,36.21,0,0,1-.52-8.46,28,28,0,0,1,5.78-16.09,30,30,0,0,1,3-3.16l1.59-1.44c.58-.43,1.14-.87,1.73-1.29a30,30,0,0,1,7.58-4,26.74,26.74,0,0,1,16.68-.83,33,33,0,0,0-15.79,3c-1.22.54-2.36,1.22-3.52,1.86-.57.35-1.11.74-1.66,1.1l-.82.56-.77.63c-.52.42-1,.82-1.56,1.23l-1.46,1.36A30,30,0,0,0,26.55,31a16.25,16.25,0,0,0-1.14,1.58,14.73,14.73,0,0,0-1.05,1.64l-.89,1.74a16.88,16.88,0,0,0-.76,1.81,28.49,28.49,0,0,0-1.23,3.76c-.17.64-.25,1.3-.4,2l-.2,1-.13,1a45.31,45.31,0,0,0-.35,8.08A57.1,57.1,0,0,0,21.29,61.7Z" transform="translate(7.89)"/></g></g><g class="cls-8"><path class="cls-9" d="M50,13A37,37,0,1,1,13,50,37,37,0,0,1,50,13m0-3A40,40,0,1,0,90,50,40,40,0,0,0,50,10Z" transform="translate(7.89)"/></g><text class="cls-10" transform="translate(36.39 66.04)">10</text></g></g></g></g></svg>