<svg xmlns="http://www.w3.org/2000/svg" viewBox="0 0 460 460"><defs><style>.cls-1{opacity:0.5;}.cls-2{fill:none;stroke:#004085;stroke-miterlimit:10;}</style></defs><g id="Layer_2" data-name="Layer 2"><g id="Игра"><g class="cls-1"><line class="cls-2" x1="430" y1="460" x2="430"/><line class="cls-2" x1="390" y1="460" x2="390"/><line class="cls-2" x1="350" y1="460" x2="350"/><line class="cls-2" x1="310" y1="460" x2="310"/><line class="cls-2" x1="270" y1="460" x2="270"/><line class="cls-2" x1="230" y1="460" x2="230"/><line class="cls-2" x1="190" y1="460" x2="190"/><line class="cls-2" x1="150" y1="460" x2="150"/><line class="cls-2" x1="110" y1="460" x2="110"/><line class="cls-2" x1="70" y1="460" x2="70"/><line class="cls-2" x1="30" y1="460" x2="30"/><line class="cls-2" y1="430" x2="460" y2="430"/><line class="cls-2" y1="390" x2="460" y2="390"/><line class="cls-2" y1="350" x2="460" y2="350"/><line class="cls-2" y1="310" x2="460" y2="310"/><line class="cls-2" y1="270" x2="460" y2="270"/><line class="cls-2" y1="230" x2="460" y2="230"/><line class="cls-2" y1="190" x2="460" y2="190"/><line class="cls-2" y1="150" x2="460" y2="150"/><line class="cls-2" y1="110" x2="460" y2="110"/><line class="cls-2" y1="70" x2="460" y2="70"/><line class="cls-2" y1="30" x2="460" y2="30"/></g></g></g></svg>