<svg xmlns="http://www.w3.org/2000/svg" viewBox="0 0 100.03 100"><defs><style>.cls-1{isolation:isolate;}.Light-35,.cls-2{fill:#ededed;}.cls-3,.cls-4{fill:#f2cab6;}.cls-4{opacity:0.5;}.Light-35{mix-blend-mode:soft-light;}.cls-5,.cls-8{fill:none;}.cls-5{stroke:#d99877;stroke-linecap:round;stroke-linejoin:round;stroke-width:0.51px;}.cls-6,.cls-7{fill:#d99877;}.cls-7{opacity:0.75;}</style></defs><g class="cls-1"><g id="Layer_2" data-name="Layer 2"><g id="Игра"><g id="Купюра_-_100" data-name="Купюра - 100"><g id="_100" data-name="100"><polygon class="cls-2" points="100.03 73.62 70.6 82.26 20.75 96.9 18.63 89.67 15.27 78.24 12.54 68.95 4.23 40.68 2.54 34.93 0.03 26.38 32.06 16.97 49.89 11.73 79.32 3.09 91.82 45.67 100.03 73.62"/><polygon class="cls-3" points="0.03 26.38 2.54 34.93 4.23 40.68 12.54 68.95 15.27 78.24 18.63 89.67 20.75 96.9 70.6 82.26 68.48 75.03 65.12 63.6 62.39 54.31 55.41 30.53 54.09 26.03 52.4 20.28 49.89 11.73 32.06 16.97 0.03 26.37 0.03 26.38"/><polygon class="cls-4" points="100.03 73.62 70.6 82.26 20.75 96.9 18.63 89.67 15.27 78.24 12.54 68.95 16.89 67.68 23.87 65.63 30.84 63.58 37.81 61.53 44.79 59.48 51.76 57.44 58.74 55.39 62.39 54.31 91.82 45.67 91.83 45.67 100.03 73.62"/><polygon class="Light-35" points="100.03 73.62 70.6 82.26 20.75 96.9 18.63 89.67 15.27 78.24 12.54 68.95 4.23 40.68 2.54 34.93 0.03 26.38 32.06 16.97 49.89 11.73 79.32 3.09 91.82 45.67 100.03 73.62"/><polygon class="cls-3" points="70.6 82.26 20.75 96.9 18.63 89.67 15.27 78.24 12.54 68.95 4.23 40.68 2.54 34.93 0.03 26.38 0.03 26.37 32.06 16.97 49.89 11.73 52.4 20.28 54.09 26.03 55.41 30.53 62.39 54.31 65.12 63.6 68.48 75.03 70.6 82.26"/><line class="cls-5" x1="24.9" y1="95.29" x2="4.63" y2="25.43"/><line class="cls-5" x1="31.87" y1="93.24" x2="11.61" y2="23.38"/><line class="cls-5" x1="38.85" y1="91.19" x2="18.58" y2="21.33"/><line class="cls-5" x1="45.82" y1="89.14" x2="25.56" y2="19.28"/><line class="cls-5" x1="52.8" y1="87.09" x2="32.54" y2="17.23"/><line class="cls-5" x1="59.77" y1="85.05" x2="39.51" y2="15.19"/><line class="cls-5" x1="66.75" y1="83" x2="46.49" y2="13.14"/><path class="cls-6" d="M74.4,20.07h0L54.09,26l-3.55,1-3.1.91-3.88,1.14-7,2.05-7,2-7,2.05-7,2-7,2L4.23,40.68,2.54,34.93,7,33.61l7-2.05,7-2,7-2.05,7-2,7-2.05,7-2.05,1.89-.55.08,0,1.56-.46,15.39-4.52.17,0,4.75-1.4,1.5,5.12Z"/><polygon class="cls-7" points="75.29 73.03 68.48 75.03 64.76 76.12 57.78 78.17 50.81 80.22 43.83 82.27 36.86 84.32 29.88 86.37 22.91 88.41 18.63 89.67 15.27 78.24 19.59 76.97 26.56 74.92 33.54 72.88 40.51 70.83 47.49 68.78 54.46 66.73 61.44 64.68 65.12 63.6 71.93 61.6 75.29 73.03"/><rect class="cls-6" x="46.65" y="18.07" width="28.13" height="10.68" rx="5.34" transform="translate(125.57 28.76) rotate(163.63)"/><path class="cls-2" d="M55.65,21.58l1.84,6.24-1.77.52-1.43-4.88-1.16.34-.4-1.36Z"/><path class="cls-2" d="M59.68,26.9a2.65,2.65,0,0,1-1.31-.83,4.06,4.06,0,0,1-.86-1.64,4,4,0,0,1-.16-1.85A2.7,2.7,0,0,1,58,21.17a3,3,0,0,1,2.85-.83,2.69,2.69,0,0,1,1.31.83A4.32,4.32,0,0,1,63,22.81a4.15,4.15,0,0,1,.16,1.85,2.64,2.64,0,0,1-.65,1.4,2.68,2.68,0,0,1-1.3.8A2.79,2.79,0,0,1,59.68,26.9Zm1.69-2.12a2.8,2.8,0,0,0-.14-1.45A2.84,2.84,0,0,0,60.57,22a.82.82,0,0,0-.84-.22.84.84,0,0,0-.59.64,2.91,2.91,0,0,0,.14,1.45A2.84,2.84,0,0,0,60,25.2a.85.85,0,0,0,.84.22A.83.83,0,0,0,61.37,24.78Z"/><path class="cls-2" d="M65.79,25.11a2.74,2.74,0,0,1-1.31-.84,4.06,4.06,0,0,1-.86-1.64,4.15,4.15,0,0,1-.16-1.85,2.7,2.7,0,0,1,.64-1.4A3,3,0,0,1,67,18.54a2.71,2.71,0,0,1,1.31.84A4.25,4.25,0,0,1,69.12,21a4.11,4.11,0,0,1,.16,1.84,2.71,2.71,0,0,1-.65,1.41,2.76,2.76,0,0,1-1.3.8A2.79,2.79,0,0,1,65.79,25.11ZM67.48,23a2.84,2.84,0,0,0-.13-1.44,2.83,2.83,0,0,0-.67-1.29.83.83,0,0,0-.84-.23.84.84,0,0,0-.59.64,2.9,2.9,0,0,0,.14,1.45,2.73,2.73,0,0,0,.67,1.29.82.82,0,0,0,.84.22A.81.81,0,0,0,67.48,23Z"/></g><polygon class="cls-8" points="100.03 73.62 70.6 82.26 20.75 96.9 18.63 89.67 15.27 78.24 12.54 68.95 4.23 40.68 2.54 34.93 0.03 26.38 0.03 26.37 32.06 16.97 49.89 11.73 79.32 3.09 91.82 45.67 100.03 73.62"/><g id="_100-2" data-name="100"><rect class="cls-2" y="26.49" width="82.64" height="73.51"/><rect class="cls-3" y="26.49" width="51.97" height="73.51"/><rect class="cls-4" y="70.87" width="82.64" height="29.13"/><path class="cls-2" d="M39.92,80.55H82.64a0,0,0,0,1,0,0V100a0,0,0,0,1,0,0H27a0,0,0,0,1,0,0V93.49A12.94,12.94,0,0,1,39.92,80.55Z"/><rect class="Light-35" y="26.49" width="82.64" height="73.51"/><rect class="cls-3" y="26.49" width="21.21" height="73.51"/><line class="cls-5" x1="17.38" y1="99.61" x2="17.13" y2="26.88"/><line class="cls-5" x1="10.11" y1="99.61" x2="9.86" y2="26.88"/><line class="cls-5" x1="2.84" y1="99.61" x2="2.59" y2="26.88"/><rect class="cls-6" y="35.4" width="73.13" height="5.99"/><rect class="cls-7" y="80.55" width="1.85" height="11.91"/><rect class="cls-6" x="45" y="35.4" width="28.13" height="10.68" rx="5.34"/><path class="cls-6" d="M40.42,85.74v9.05H37.86V87.72H36.19v-2Z"/><path class="cls-6" d="M43.71,94.41a3.7,3.7,0,0,1-1.42-1.62,6.51,6.51,0,0,1,0-5.05,3.7,3.7,0,0,1,1.42-1.62,4.07,4.07,0,0,1,4.12,0,3.74,3.74,0,0,1,1.41,1.62,6.51,6.51,0,0,1,0,5.05,3.74,3.74,0,0,1-1.41,1.62,4.07,4.07,0,0,1-4.12,0Zm3.09-2.16a5.37,5.37,0,0,0,0-4,1.16,1.16,0,0,0-1-.63,1.17,1.17,0,0,0-1,.63,5.37,5.37,0,0,0,0,4,1.17,1.17,0,0,0,1,.63A1.16,1.16,0,0,0,46.8,92.25Z"/><path class="cls-6" d="M52.56,94.41a3.7,3.7,0,0,1-1.42-1.62,6.51,6.51,0,0,1,0-5.05,3.7,3.7,0,0,1,1.42-1.62,3.84,3.84,0,0,1,5.54,1.62,6.51,6.51,0,0,1,0,5.05,3.93,3.93,0,0,1-5.54,1.62Zm3.09-2.16a5.37,5.37,0,0,0,0-4,1.14,1.14,0,0,0-1-.63,1.16,1.16,0,0,0-1,.63,5.25,5.25,0,0,0,0,4,1.16,1.16,0,0,0,1,.63A1.14,1.14,0,0,0,55.65,92.25Z"/><path class="cls-2" d="M54.38,36.84v6.51H52.54V38.26H51.33V36.84Z"/><path class="cls-2" d="M56.74,43.08a2.7,2.7,0,0,1-1-1.17,4.66,4.66,0,0,1,0-3.64,2.62,2.62,0,0,1,1-1.16,2.77,2.77,0,0,1,1.49-.4,2.74,2.74,0,0,1,1.48.4,2.7,2.7,0,0,1,1,1.16,4.66,4.66,0,0,1,0,3.64,2.79,2.79,0,0,1-1,1.17,2.83,2.83,0,0,1-1.48.4A2.86,2.86,0,0,1,56.74,43.08ZM59,41.52a2.88,2.88,0,0,0,.28-1.43A2.83,2.83,0,0,0,59,38.67a.84.84,0,0,0-.74-.46.87.87,0,0,0-.75.46,2.85,2.85,0,0,0-.27,1.42,2.89,2.89,0,0,0,.27,1.43.86.86,0,0,0,.75.45A.83.83,0,0,0,59,41.52Z"/><path class="cls-2" d="M63.11,43.08a2.79,2.79,0,0,1-1-1.17,4.78,4.78,0,0,1,0-3.64,2.7,2.7,0,0,1,1-1.16,2.77,2.77,0,0,1,1.49-.4,2.74,2.74,0,0,1,1.48.4,2.7,2.7,0,0,1,1,1.16,4.78,4.78,0,0,1,0,3.64,2.79,2.79,0,0,1-1,1.17,2.83,2.83,0,0,1-1.48.4A2.86,2.86,0,0,1,63.11,43.08Zm2.23-1.56a2.89,2.89,0,0,0,.27-1.43,2.85,2.85,0,0,0-.27-1.42.83.83,0,0,0-1.49,0,2.85,2.85,0,0,0-.27,1.42,2.89,2.89,0,0,0,.27,1.43.84.84,0,0,0,1.49,0Z"/></g><rect class="cls-8" y="26.49" width="82.64" height="73.51"/></g><rect class="cls-8" width="100" height="100"/></g></g></g></svg>