<svg xmlns="http://www.w3.org/2000/svg" xmlns:xlink="http://www.w3.org/1999/xlink" viewBox="0 0 200 97.41"><defs><style>.cls-1{fill:#ededed;}.cls-2{fill:none;}.cls-2,.cls-8{mix-blend-mode:soft-light;}.cls-3{isolation:isolate;}.cls-4{clip-path:url(#clip-path);}.cls-5{clip-path:url(#clip-path-2);}.cls-6{fill:#f26549;}.cls-7{fill:#ffd24c;}.cls-8{fill:#373737;}</style><clipPath id="clip-path"><path class="cls-1" d="M0,97.27V0H4.15s0,7.27,95.85,7.27S195.85,0,195.85,0H200V97.27Z"/></clipPath><clipPath id="clip-path-2"><path class="cls-2" d="M0,97.27v-48c41.05-28.65,159-28.65,200,0v48Z"/></clipPath></defs><g class="cls-3"><g id="Layer_2" data-name="Layer 2"><g id="Игра"><path class="cls-1" d="M0,97.27V0H4.15s0,7.27,95.85,7.27S195.85,0,195.85,0H200V97.27Z"/><g class="cls-4"><g class="cls-5"><polygon class="cls-6" points="200 62.53 47.86 97.41 200 97.41 200 62.53"/><polygon class="cls-7" points="0 62.53 152.14 97.41 0 97.41 0 62.53"/></g><path class="cls-8" d="M4.15,0V84.27a9,9,0,0,0,9,8.9H186.84a9,9,0,0,0,9-8.9V0s0,7.27-95.85,7.27S4.15,0,4.15,0Z"/><path class="cls-6" d="M24.32,40v13.3H21.24V47.8h-6v5.46H12.12V40h3.07V45.2h6V40Z"/><path class="cls-6" d="M35,44a4.33,4.33,0,0,1,1.27,3.41v5.84H33.53V52a3.32,3.32,0,0,1-3.12,1.43,4.79,4.79,0,0,1-2-.4,3,3,0,0,1-1.32-1.1,2.91,2.91,0,0,1-.46-1.6,2.65,2.65,0,0,1,1.08-2.24A5.48,5.48,0,0,1,31,47.25h2.36a1.91,1.91,0,0,0-.59-1.49A2.58,2.58,0,0,0,31,45.24a4.88,4.88,0,0,0-1.6.26,4.23,4.23,0,0,0-1.34.69L27,44.12a6.41,6.41,0,0,1,2-.91,8.8,8.8,0,0,1,2.4-.33A5.33,5.33,0,0,1,35,44ZM32.5,51.06a1.92,1.92,0,0,0,.84-1V49h-2q-1.83,0-1.83,1.2a1.06,1.06,0,0,0,.45.9,2,2,0,0,0,1.22.33A2.52,2.52,0,0,0,32.5,51.06Z"/><path class="cls-6" d="M46.19,52.73a5.15,5.15,0,0,1,0-9.17,6.31,6.31,0,0,1,2.94-.68,5.69,5.69,0,0,1,2.82.68,4,4,0,0,1,1.76,1.93l-2.3,1.23a2.51,2.51,0,0,0-2.3-1.41,2.64,2.64,0,0,0-1.92.76,3.21,3.21,0,0,0,0,4.15,2.64,2.64,0,0,0,1.92.76,2.49,2.49,0,0,0,2.3-1.41l2.3,1.25A4.05,4.05,0,0,1,52,52.72a5.59,5.59,0,0,1-2.82.69A6.31,6.31,0,0,1,46.19,52.73Z"/><path class="cls-6" d="M63.13,44a4.33,4.33,0,0,1,1.27,3.41v5.84H61.63V52a3.32,3.32,0,0,1-3.12,1.43,4.79,4.79,0,0,1-2-.4,3.13,3.13,0,0,1-1.32-1.1,2.9,2.9,0,0,1-.45-1.6,2.64,2.64,0,0,1,1.07-2.24,5.48,5.48,0,0,1,3.31-.82h2.36a1.91,1.91,0,0,0-.59-1.49,2.58,2.58,0,0,0-1.77-.52,4.88,4.88,0,0,0-1.6.26,4.23,4.23,0,0,0-1.34.69l-1.06-2.07a6.25,6.25,0,0,1,2-.91,8.8,8.8,0,0,1,2.4-.33A5.33,5.33,0,0,1,63.13,44ZM60.6,51.06a1.87,1.87,0,0,0,.84-1V49h-2q-1.83,0-1.83,1.2a1.06,1.06,0,0,0,.45.9,2,2,0,0,0,1.23.33A2.51,2.51,0,0,0,60.6,51.06Z"/><path class="cls-6" d="M77,53.26V47.14L73.9,52.27H72.65l-3-5.15v6.14H67V43h3.1l3.26,5.91L76.83,43H79.6l0,10.23Z"/><path class="cls-6" d="M84.36,52.73a5,5,0,0,1-2-1.87,5.48,5.48,0,0,1,0-5.43,5,5,0,0,1,2-1.87,6.14,6.14,0,0,1,2.9-.68,6.07,6.07,0,0,1,2.89.68,5,5,0,0,1,2,1.87,5.41,5.41,0,0,1,0,5.43,5,5,0,0,1-2,1.87,6.07,6.07,0,0,1-2.89.68A6.14,6.14,0,0,1,84.36,52.73Zm4.77-2.52a3.29,3.29,0,0,0,0-4.13,2.67,2.67,0,0,0-3.75,0,3.25,3.25,0,0,0,0,4.13,2.67,2.67,0,0,0,3.75,0Z"/><path class="cls-6" d="M104.78,49H97.05a2.32,2.32,0,0,0,1,1.5A3.27,3.27,0,0,0,100,51a3.92,3.92,0,0,0,1.42-.23,3.56,3.56,0,0,0,1.15-.75l1.57,1.71a5.3,5.3,0,0,1-4.21,1.65,6.63,6.63,0,0,1-3.06-.68,5,5,0,0,1-2.06-1.87,5.46,5.46,0,0,1,0-5.42,4.9,4.9,0,0,1,2-1.88,5.76,5.76,0,0,1,2.79-.68,5.68,5.68,0,0,1,2.71.65,4.72,4.72,0,0,1,1.91,1.85,5.57,5.57,0,0,1,.7,2.8S104.82,48.49,104.78,49Zm-6.94-3.29A2.44,2.44,0,0,0,97,47.25h5a2.49,2.49,0,0,0-.83-1.55,2.76,2.76,0,0,0-3.37,0Z"/><path class="cls-6" d="M122.11,50.35a2.51,2.51,0,0,1-1,2.15,5.32,5.32,0,0,1-3.11.76h-5.46V43h5.23a5.55,5.55,0,0,1,3,.7,2.19,2.19,0,0,1,1.08,2,2.37,2.37,0,0,1-.39,1.34,2.64,2.64,0,0,1-1.11.9A2.38,2.38,0,0,1,122.11,50.35Zm-6.9-3.12h2.24c1,0,1.56-.36,1.56-1.1s-.52-1.08-1.56-1.08h-2.24Zm4.12,2.89a1,1,0,0,0-.38-.86,2,2,0,0,0-1.19-.28h-2.55v2.26h2.49C118.79,51.24,119.33,50.87,119.33,50.12Z"/><path class="cls-6" d="M131.93,44a4.33,4.33,0,0,1,1.27,3.41v5.84h-2.77V52a3.32,3.32,0,0,1-3.12,1.43,4.79,4.79,0,0,1-2-.4,3,3,0,0,1-1.32-1.1,2.91,2.91,0,0,1-.46-1.6,2.65,2.65,0,0,1,1.08-2.24,5.48,5.48,0,0,1,3.31-.82h2.36a1.91,1.91,0,0,0-.59-1.49,2.58,2.58,0,0,0-1.77-.52,4.88,4.88,0,0,0-1.6.26,4.13,4.13,0,0,0-1.34.69l-1.07-2.07a6.41,6.41,0,0,1,2-.91,8.8,8.8,0,0,1,2.4-.33A5.35,5.35,0,0,1,131.93,44Zm-2.53,7.05a2,2,0,0,0,.84-1V49h-2q-1.83,0-1.83,1.2a1.06,1.06,0,0,0,.45.9,2,2,0,0,0,1.22.33A2.52,2.52,0,0,0,129.4,51.06Z"/><path class="cls-6" d="M145.91,49.38h-1.42v3.88h-2.93V49.38h-1.42L138,53.26h-3.49L137.69,48l-3-4.94h3.14l2.26,4h1.46V43h2.93v4h1.44l2.28-4h3.14l-3,4.94,3.23,5.29h-3.51Z"/><path class="cls-6" d="M153.13,43h3v4h4.44V43h3V53.26h-3V49.44h-4.44v3.82h-3Z"/><path class="cls-6" d="M168.21,52.73a5,5,0,0,1-2-1.87,5.48,5.48,0,0,1,0-5.43,5,5,0,0,1,2-1.87,6.11,6.11,0,0,1,2.9-.68,6,6,0,0,1,2.88.68,5,5,0,0,1,2,1.87,5.48,5.48,0,0,1,0,5.43,5,5,0,0,1-2,1.87,6,6,0,0,1-2.88.68A6.11,6.11,0,0,1,168.21,52.73ZM173,50.21a3.29,3.29,0,0,0,0-4.13,2.67,2.67,0,0,0-3.75,0,3.22,3.22,0,0,0,0,4.13,2.67,2.67,0,0,0,3.75,0Z"/><path class="cls-6" d="M188.62,49h-7.73a2.37,2.37,0,0,0,1,1.5,3.25,3.25,0,0,0,1.94.55,3.86,3.86,0,0,0,1.41-.23,3.46,3.46,0,0,0,1.15-.75L188,51.76a5.3,5.3,0,0,1-4.22,1.65,6.69,6.69,0,0,1-3.06-.68,5,5,0,0,1-2.05-1.87,5.16,5.16,0,0,1-.72-2.71,5.27,5.27,0,0,1,.71-2.71,5,5,0,0,1,2-1.88,6,6,0,0,1,5.5,0A4.72,4.72,0,0,1,188,45.38a5.56,5.56,0,0,1,.69,2.8S188.66,48.49,188.62,49Zm-6.93-3.29a2.41,2.41,0,0,0-.84,1.56h5a2.46,2.46,0,0,0-.84-1.55,2.51,2.51,0,0,0-1.67-.58A2.56,2.56,0,0,0,181.69,45.69Z"/></g></g></g></g></svg>