<svg xmlns="http://www.w3.org/2000/svg" xmlns:xlink="http://www.w3.org/1999/xlink" viewBox="0 0 200 100.14"><defs><style>.cls-1{fill:#ededed;}.cls-2{fill:none;}.Shadow,.cls-2{mix-blend-mode:soft-light;}.cls-3{isolation:isolate;}.Shadow{fill:#373737;}.cls-4{clip-path:url(#clip-path);}.cls-5{clip-path:url(#clip-path-2);}.cls-6{fill:#f26549;}.cls-7{fill:#ffd24c;}</style><clipPath id="clip-path"><path class="cls-1" d="M0,100V2.73H4.15S36.65,15.94,100,15.94,195.85,2.73,195.85,2.73H200V100Z"/></clipPath><clipPath id="clip-path-2"><path class="cls-2" d="M0,100V52c41.05-28.66,159-28.66,200,0v48Z"/></clipPath></defs><g class="cls-3"><g id="Layer_2" data-name="Layer 2"><g id="Игра"><rect class="cls-1" width="200" height="100"/><rect class="Shadow" width="200" height="100"/><rect class="Shadow" width="200" height="100"/><path class="cls-1" d="M0,100V2.73H4.15S36.65,15.94,100,15.94,195.85,2.73,195.85,2.73H200V100Z"/><g class="cls-4"><g class="cls-5"><polygon class="cls-6" points="200 65.26 47.86 100.14 200 100.14 200 65.26"/><polygon class="cls-7" points="0 65.26 152.14 100.14 0 100.14 0 65.26"/></g><path class="cls-6" d="M24.32,42.69V56H21.24V50.54h-6V56H12.12V42.69h3.07v5.24h6V42.69Z"/><path class="cls-6" d="M35,46.75a4.31,4.31,0,0,1,1.27,3.41V56H33.53V54.72a3.31,3.31,0,0,1-3.12,1.42,4.79,4.79,0,0,1-2-.4,3,3,0,0,1-1.32-1.1,2.91,2.91,0,0,1-.46-1.6,2.66,2.66,0,0,1,1.08-2.24A5.49,5.49,0,0,1,31,50h2.36a1.91,1.91,0,0,0-.59-1.5A2.63,2.63,0,0,0,31,48a5.15,5.15,0,0,0-1.6.26,4.23,4.23,0,0,0-1.34.69L27,46.85a6.41,6.41,0,0,1,2-.91,8.79,8.79,0,0,1,2.4-.32A5.28,5.28,0,0,1,35,46.75Zm-2.53,7a1.88,1.88,0,0,0,.84-1v-1h-2q-1.83,0-1.83,1.2a1.06,1.06,0,0,0,.45.9,2,2,0,0,0,1.22.34A2.52,2.52,0,0,0,32.5,53.79Z"/><path class="cls-6" d="M46.19,55.47a5.16,5.16,0,0,1-2-1.87,5.16,5.16,0,0,1,2-7.31,6.3,6.3,0,0,1,2.94-.67,5.68,5.68,0,0,1,2.82.67,4,4,0,0,1,1.76,1.93l-2.3,1.23a2.52,2.52,0,0,0-2.3-1.4,2.6,2.6,0,0,0-1.92.76,2.76,2.76,0,0,0-.76,2.07A2.79,2.79,0,0,0,47.19,53a2.6,2.6,0,0,0,1.92.76,2.49,2.49,0,0,0,2.3-1.41l2.3,1.26A4.14,4.14,0,0,1,52,55.46a5.69,5.69,0,0,1-2.82.68A6.3,6.3,0,0,1,46.19,55.47Z"/><path class="cls-6" d="M63.13,46.75a4.31,4.31,0,0,1,1.27,3.41V56H61.63V54.72a3.31,3.31,0,0,1-3.12,1.42,4.79,4.79,0,0,1-2-.4,3.06,3.06,0,0,1-1.32-1.1A2.9,2.9,0,0,1,54.7,53a2.65,2.65,0,0,1,1.07-2.24A5.49,5.49,0,0,1,59.08,50h2.36a1.91,1.91,0,0,0-.59-1.5A2.63,2.63,0,0,0,59.08,48a5.15,5.15,0,0,0-1.6.26,4.23,4.23,0,0,0-1.34.69l-1.06-2.07a6.25,6.25,0,0,1,2-.91,8.79,8.79,0,0,1,2.4-.32A5.28,5.28,0,0,1,63.13,46.75Zm-2.53,7a1.84,1.84,0,0,0,.84-1v-1h-2q-1.83,0-1.83,1.2a1.06,1.06,0,0,0,.45.9,2,2,0,0,0,1.23.34A2.51,2.51,0,0,0,60.6,53.79Z"/><path class="cls-6" d="M77,56V49.87L73.9,55H72.65l-3-5.15V56H67V45.77h3.1l3.26,5.91,3.48-5.91H79.6l0,10.22Z"/><path class="cls-6" d="M84.36,55.47a5.08,5.08,0,0,1-2-1.87,5.5,5.5,0,0,1,0-5.44,5,5,0,0,1,2-1.87,6.14,6.14,0,0,1,2.9-.67,6.07,6.07,0,0,1,2.89.67,5,5,0,0,1,2,1.87,5.43,5.43,0,0,1,0,5.44,5.05,5.05,0,0,1-2,1.87,6.07,6.07,0,0,1-2.89.67A6.14,6.14,0,0,1,84.36,55.47Zm4.77-2.53a3.27,3.27,0,0,0,0-4.12,2.67,2.67,0,0,0-3.75,0,3.24,3.24,0,0,0,0,4.12,2.67,2.67,0,0,0,3.75,0Z"/><path class="cls-6" d="M104.78,51.71H97.05a2.37,2.37,0,0,0,1,1.51,3.34,3.34,0,0,0,1.94.55,3.91,3.91,0,0,0,1.42-.24,3.56,3.56,0,0,0,1.15-.75l1.57,1.71a5.3,5.3,0,0,1-4.21,1.65,6.63,6.63,0,0,1-3.06-.67,5.05,5.05,0,0,1-2.06-1.87,5.48,5.48,0,0,1,0-5.43,5,5,0,0,1,2-1.88,5.75,5.75,0,0,1,2.79-.67,5.68,5.68,0,0,1,2.71.64,4.72,4.72,0,0,1,1.91,1.85,5.58,5.58,0,0,1,.7,2.81S104.82,51.22,104.78,51.71Zm-6.94-3.28A2.44,2.44,0,0,0,97,50h5a2.44,2.44,0,0,0-.83-1.55,2.51,2.51,0,0,0-1.68-.58A2.56,2.56,0,0,0,97.84,48.43Z"/><path class="cls-6" d="M122.11,53.08a2.5,2.5,0,0,1-1,2.15A5.25,5.25,0,0,1,118,56h-5.46V45.77h5.23a5.55,5.55,0,0,1,3,.69,2.19,2.19,0,0,1,1.08,1.95,2.37,2.37,0,0,1-.39,1.34,2.64,2.64,0,0,1-1.11.9A2.39,2.39,0,0,1,122.11,53.08ZM115.21,50h2.24Q119,50,119,48.86t-1.56-1.08h-2.24Zm4.12,2.88A1,1,0,0,0,119,52a2.06,2.06,0,0,0-1.19-.28h-2.55V54h2.49C118.79,54,119.33,53.6,119.33,52.85Z"/><path class="cls-6" d="M131.93,46.75a4.31,4.31,0,0,1,1.27,3.41V56h-2.77V54.72a3.31,3.31,0,0,1-3.12,1.42,4.79,4.79,0,0,1-2-.4,3,3,0,0,1-1.32-1.1,2.91,2.91,0,0,1-.46-1.6,2.66,2.66,0,0,1,1.08-2.24,5.49,5.49,0,0,1,3.31-.81h2.36a1.91,1.91,0,0,0-.59-1.5,2.63,2.63,0,0,0-1.77-.52,5.15,5.15,0,0,0-1.6.26,4.13,4.13,0,0,0-1.34.69l-1.07-2.07a6.41,6.41,0,0,1,2-.91,8.79,8.79,0,0,1,2.4-.32A5.3,5.3,0,0,1,131.93,46.75Zm-2.53,7a1.92,1.92,0,0,0,.84-1v-1h-2q-1.83,0-1.83,1.2a1.06,1.06,0,0,0,.45.9,1.94,1.94,0,0,0,1.22.34A2.52,2.52,0,0,0,129.4,53.79Z"/><path class="cls-6" d="M145.91,52.11h-1.42V56h-2.93V52.11h-1.42L138,56h-3.49l3.21-5.28-3-4.94h3.14l2.26,4h1.46v-4h2.93v4h1.44l2.28-4h3.14l-3,4.94L151.59,56h-3.51Z"/><path class="cls-6" d="M153.13,45.77h3v4h4.44v-4h3V56h-3V52.17h-4.44V56h-3Z"/><path class="cls-6" d="M168.21,55.47a5.11,5.11,0,0,1-2-1.87,5.5,5.5,0,0,1,0-5.44,5,5,0,0,1,2-1.87,6.11,6.11,0,0,1,2.9-.67,6,6,0,0,1,2.88.67,5,5,0,0,1,2,1.87,5.5,5.5,0,0,1,0,5.44,5.08,5.08,0,0,1-2,1.87,6,6,0,0,1-2.88.67A6.11,6.11,0,0,1,168.21,55.47ZM173,52.94a3.27,3.27,0,0,0,0-4.12,2.67,2.67,0,0,0-3.75,0,3.2,3.2,0,0,0,0,4.12,2.67,2.67,0,0,0,3.75,0Z"/><path class="cls-6" d="M188.62,51.71h-7.73a2.42,2.42,0,0,0,1,1.51,3.32,3.32,0,0,0,1.94.55,3.86,3.86,0,0,0,1.41-.24,3.46,3.46,0,0,0,1.15-.75L188,54.49a5.3,5.3,0,0,1-4.22,1.65,6.69,6.69,0,0,1-3.06-.67,5,5,0,0,1-2.05-1.87,5.19,5.19,0,0,1-.72-2.72,5.27,5.27,0,0,1,.71-2.71,5.06,5.06,0,0,1,2-1.88,6.1,6.1,0,0,1,5.5,0A4.72,4.72,0,0,1,188,48.11a5.57,5.57,0,0,1,.69,2.81S188.66,51.22,188.62,51.71Zm-6.93-3.28a2.41,2.41,0,0,0-.84,1.56h5a2.41,2.41,0,0,0-.84-1.55,2.46,2.46,0,0,0-1.67-.58A2.56,2.56,0,0,0,181.69,48.43Z"/></g><path class="Shadow" d="M0,2.73V100H200V2.73ZM195.85,87a9,9,0,0,1-9,8.9H13.16a9,9,0,0,1-9-8.9V2.73h191.7Z"/></g></g></g></svg>