<svg xmlns="http://www.w3.org/2000/svg" viewBox="0 0 100 100"><defs><style>.cls-1{isolation:isolate;}.cls-2{fill:#ffd24c;}.cls-3,.cls-7{fill:#373737;}.cls-3,.cls-4{opacity:0.5;}.cls-3,.cls-4,.cls-6{mix-blend-mode:soft-light;}.cls-5{fill:#ededed;}.cls-8{fill:#996c4c;}.cls-9{fill:none;}</style></defs><g class="cls-1"><g id="Layer_2" data-name="Layer 2"><g id="Игра"><g id="Монета_-_10" data-name="Монета - 10"><circle class="cls-2" cx="50" cy="70" r="30"/><path class="cls-3" d="M55.38,46.61A24,24,0,0,1,39.27,88.4a24.44,24.44,0,0,1-5.38-.61A24,24,0,1,0,55.38,46.61Z"/><g class="cls-4"><path class="cls-5" d="M32.77,77a22.84,22.84,0,0,1-1.71-9.9,16.8,16.8,0,0,1,3.46-9.65,19.75,19.75,0,0,1,8.35-6,16,16,0,0,1,10-.49,19.75,19.75,0,0,0-9.47,1.79,23.62,23.62,0,0,0-2.11,1.12c-.34.2-.67.44-1,.66a9.13,9.13,0,0,0-1,.71L38.4,56l-.87.81a18.52,18.52,0,0,0-1.6,1.73,9.11,9.11,0,0,0-.68,1,7.89,7.89,0,0,0-.63,1,16.41,16.41,0,0,0-1,2.12,19.5,19.5,0,0,0-1.17,4.61A32.15,32.15,0,0,0,32.77,77Z"/></g><g class="cls-6"><path class="cls-7" d="M50,47.8A22.2,22.2,0,1,1,27.8,70,22.23,22.23,0,0,1,50,47.8M50,46A24,24,0,1,0,74,70,24,24,0,0,0,50,46Z"/></g><path class="cls-8" d="M44.75,60.9V79.63H41.27V63.81h-4V60.9Z"/><path class="cls-8" d="M52.27,78.76a7.71,7.71,0,0,1-2.78-3.32,13.66,13.66,0,0,1,0-10.36,7.62,7.62,0,0,1,2.78-3.31,7.66,7.66,0,0,1,8,0,7.59,7.59,0,0,1,2.8,3.31,13.79,13.79,0,0,1,0,10.36,7.68,7.68,0,0,1-2.8,3.32,7.72,7.72,0,0,1-8,0Zm7.18-3.55a8.57,8.57,0,0,0,1.17-4.95,8.61,8.61,0,0,0-1.17-5,3.83,3.83,0,0,0-6.31,0,8.62,8.62,0,0,0-1.16,5,8.58,8.58,0,0,0,1.16,4.95,3.83,3.83,0,0,0,6.31,0Z"/></g><rect class="cls-9" width="100" height="100"/></g></g></g></svg>