<svg xmlns="http://www.w3.org/2000/svg" viewBox="0 0 430.37 1080"><defs><style>.cls-1{isolation:isolate;}.cls-2{fill:#ffd24c;}.cls-3,.cls-7{fill:#373737;}.cls-3,.cls-4{opacity:0.5;}.cls-3,.cls-4,.cls-6{mix-blend-mode:soft-light;}.cls-5{fill:#ededed;}.cls-8{opacity:0.8;}.cls-9{opacity:0.6;}.cls-10{opacity:0.2;}.cls-11{opacity:0.4;}</style></defs><g class="cls-1"><g id="Layer_2" data-name="Layer 2"><g id="Игра"><g id="Монета_-_10" data-name="Монета - 10"><path class="cls-2" d="M4.06,1061.39a28.94,28.94,0,0,1-3.7.23v-60a30,30,0,0,1,29.77,26.3A30,30,0,0,1,4.06,1061.39Z"/><path class="cls-3" d="M3.32,1055.44a22.85,22.85,0,0,1-3,.19v-7.08a24,24,0,0,0,12.47-24.12,23.87,23.87,0,0,0-7.23-14.38h0a23.47,23.47,0,0,0-2.77-2.3c.66.07,1.32.17,2,.28h0l1,.21c.65.16,1.3.34,1.94.54l.94.33.93.37.91.4c.6.29,1.19.59,1.76.92l.83.5,0,0c.28.17.55.35.81.53l.8.57,0,0,.76.59.75.65a22.56,22.56,0,0,1,2.74,2.87c.17.21.34.42.5.64s.49.66.72,1l.45.69.09.15q.16.25.3.51c.13.21.26.43.37.65l0,0c.15.27.29.54.42.82s.34.72.5,1.09l.09.2,0,.07c.1.24.19.47.27.71a1.17,1.17,0,0,1,.05.11c.09.25.18.5.26.76s.12.35.17.53.17.54.24.81h0c.06.22.12.45.17.68s.09.36.13.54l.12.65c0,.09,0,.19.05.28l0,.18a1.13,1.13,0,0,1,0,.18s0,.08,0,.12l.09.65A24,24,0,0,1,3.32,1055.44Z"/><g class="cls-4"><path class="cls-5" d="M.87,1012.43l-.51,0v-.11Z"/></g><g class="cls-6"><path class="cls-7" d="M24.18,1028.66l-.09-.65s0-.08,0-.12a1.13,1.13,0,0,0,0-.18l0-.18c0-.09,0-.19-.05-.28l-.12-.65c0-.18-.09-.36-.13-.54s-.11-.46-.17-.68h0q-.11-.4-.24-.81c-.05-.18-.11-.36-.17-.53s-.17-.51-.26-.76a1.17,1.17,0,0,0-.05-.11c-.08-.24-.17-.47-.27-.71l0-.07-.09-.2c-.16-.37-.32-.73-.5-1.09s-.27-.55-.42-.82l0,0c-.11-.22-.24-.44-.37-.65s-.19-.34-.3-.51l-.09-.15-.45-.69c-.23-.35-.47-.68-.72-1s-.33-.43-.5-.64a22.56,22.56,0,0,0-2.74-2.87l-.75-.65-.76-.59,0,0-.8-.57c-.26-.18-.53-.36-.81-.53l0,0-.83-.5a17.33,17.33,0,0,0-1.76-.92l-.91-.4-.93-.37-.94-.33c-.64-.2-1.29-.38-1.94-.54l-1-.21h0c-.65-.11-1.31-.21-2-.28h0c-.82-.08-1.62-.13-2.45-.13v1.8a21.58,21.58,0,0,1,5.23.63h0a22.23,22.23,0,0,1,16.79,18.83A22.22,22.22,0,0,1,3.1,1053.65a21.22,21.22,0,0,1-2.74.17v1.81a22.85,22.85,0,0,0,3-.19A24,24,0,0,0,24.18,1028.66Z"/></g></g><g id="Монета_-_10-2" data-name="Монета - 10"><path class="cls-2" d="M.36,935.63v6A29.92,29.92,0,0,0,20,934.34,30,30,0,0,0,23.07,892,29.91,29.91,0,0,0,.36,881.62v6h0v48Z"/><path class="cls-3" d="M.36,935.63a22.92,22.92,0,0,0,2.34-.12l1.17-.14,1.16-.2,1.15-.26a18.65,18.65,0,0,0,2.28-.69L9,934l.55-.22h0a22.7,22.7,0,0,0,3.8-2,21.86,21.86,0,0,0,1.8-1.28l.86-.71a24,24,0,0,0,2.49-33.85c-.22-.25-.44-.5-.68-.74s-.21-.23-.33-.35l-.57-.57-.07-.06-.42-.39-.57-.5q-.27-.24-.54-.45l-.52-.41-.27-.2-.27-.19L14.2,892l-.63-.43c-.36-.24-.73-.47-1.1-.69a24.49,24.49,0,0,0-2.28-1.17,23.58,23.58,0,0,0-2.37-.91c-.81-.26-1.62-.48-2.45-.66a24.84,24.84,0,0,0-5-.52v5.86a24,24,0,0,1,6.39,5.23,24,24,0,0,1-2.5,33.85c-.45.38-.91.75-1.38,1.1h0a20.9,20.9,0,0,1-2.5,1.62v.33Z"/><g class="cls-6"><path class="cls-7" d="M18.53,895.94c-.22-.25-.44-.5-.68-.74s-.21-.23-.33-.35l-.57-.57-.07-.06-.42-.39-.57-.5q-.27-.24-.54-.45l-.52-.41-.27-.2-.27-.19L14.2,892l-.63-.43c-.36-.24-.73-.47-1.1-.69a24.49,24.49,0,0,0-2.28-1.17,23.58,23.58,0,0,0-2.37-.91,21.66,21.66,0,0,0-2.45-.66,24.15,24.15,0,0,0-5-.53v1.81a22.13,22.13,0,0,1,16.81,7.69,22.22,22.22,0,0,1-2.31,31.31,22.11,22.11,0,0,1-12,5.24h0a20.83,20.83,0,0,1-2.5.14v1.81c.78,0,1.56,0,2.34-.11l1.17-.14,1.16-.2,1.15-.26a23,23,0,0,0,2.28-.69L9,934l.55-.22h0a24.28,24.28,0,0,0,3.8-2c.62-.4,1.21-.82,1.8-1.28l.86-.71A24,24,0,0,0,18.53,895.94Z"/></g></g><g id="Монета_-_10-3" data-name="Монета - 10"><path class="cls-2" d="M19.85,814.43A29.92,29.92,0,0,1,.36,821.62v-60a29.93,29.93,0,0,1,22.81,10.51A30,30,0,0,1,19.85,814.43Z"/><path class="cls-3" d="M16,809.87a23.82,23.82,0,0,1-7.41,4.32l-1,.34c-.34.11-.69.21-1,.3l-1,.23c-.33.08-.68.15-1,.2s-.59.1-.88.14l-.27,0c-.22,0-.44.06-.66.07l-.47,0H1.81l-.54,0-.91,0v-.39a21.17,21.17,0,0,0,2.39-1.55h0c.48-.34.94-.71,1.39-1.1a24,24,0,0,0,2.66-33.83,23.69,23.69,0,0,0-6.45-5.31v-5.81c.42,0,.85,0,1.27,0l1.26.1c.84.09,1.68.23,2.51.4.41.09.83.19,1.24.3s.81.23,1.22.36.81.28,1.2.43.79.32,1.18.5.78.36,1.16.56.76.4,1.13.62.74.45,1.11.69a23.88,23.88,0,0,1,2.1,1.57,25.9,25.9,0,0,1,2,1.83c.31.33.61.66.91,1A24,24,0,0,1,16,809.87Z"/><g class="cls-6"><path class="cls-7" d="M18.61,776c-.3-.35-.6-.68-.91-1a25.9,25.9,0,0,0-2-1.83,23.88,23.88,0,0,0-2.1-1.57c-.37-.24-.73-.47-1.11-.69s-.75-.42-1.13-.62-.77-.39-1.16-.56-.78-.34-1.18-.5-.8-.3-1.2-.43-.81-.25-1.22-.36-.83-.21-1.24-.3a21.15,21.15,0,0,0-2.51-.4l-1.26-.1c-.42,0-.85,0-1.27,0v1.81a22.15,22.15,0,0,1,16.88,7.77,22.22,22.22,0,0,1-2.46,31.3,21.89,21.89,0,0,1-12,5.18h0a21.4,21.4,0,0,1-2.39.13v1.81l.91,0,.54,0h.41l.47,0c.22,0,.44,0,.66-.07l.27,0c.29,0,.59-.08.88-.14s.69-.12,1-.2l1-.23c.34-.09.69-.19,1-.3l1-.34A23.82,23.82,0,0,0,16,809.87,24,24,0,0,0,18.61,776Z"/></g></g><g id="Монета_-_10-4" data-name="Монета - 10"><path class="cls-2" d="M.36,695.62v-48h0v-6a30,30,0,0,1,25.36,14A30,30,0,0,1,16.38,697a29.86,29.86,0,0,1-16,4.64v-6Z"/><path class="cls-3" d="M.36,695.62v-2.27c.25-.13.5-.28.75-.44A24,24,0,0,0,8.59,659.8a23.9,23.9,0,0,0-8.23-7.94v-4.23H1.1l.74,0,.74.05H2.7l.62.07.21,0,.53.08.73.12.73.15.72.17c.29.07.58.14.86.23l.57.18.68.23.52.19a9.9,9.9,0,0,1,1,.38c.43.18.86.38,1.28.59h0c.32.16.63.33.94.5l.69.4.54.34.42.27c.24.16.48.32.71.49l.14.1.12.09.05,0c.12.09.24.17.35.27.26.19.51.4.76.61l.63.55c.26.23.51.47.76.72l.67.69.65.72c.42.5.83,1,1.22,1.54s.6.87.89,1.32a24,24,0,0,1-7.47,33.1c-.5.31-1,.61-1.51.88s-1,.53-1.55.76-1,.44-1.58.64-1.07.36-1.61.52a21,21,0,0,1-2.44.56q-.5.09-1,.15l-.9.1H2.46l-.95.07H.36Z"/><g class="cls-6"><path class="cls-7" d="M20.65,658.81c-.29-.45-.58-.89-.89-1.32s-.8-1-1.22-1.54l-.65-.72-.67-.69c-.25-.25-.5-.49-.76-.72l-.63-.55c-.25-.21-.5-.42-.76-.61-.11-.1-.23-.18-.35-.27l-.05,0-.12-.09-.14-.1c-.23-.17-.47-.33-.71-.49l-.42-.27-.54-.34-.69-.4c-.31-.17-.62-.34-.94-.5h0c-.42-.21-.85-.41-1.28-.59a9.9,9.9,0,0,0-1-.38L8.35,649l-.68-.23-.57-.18c-.28-.09-.57-.16-.86-.23l-.72-.17L4.79,648l-.73-.12-.53-.08-.21,0-.62-.07H2.58l-.74-.05-.74,0H.36v1.81a22.19,22.19,0,0,1,18.77,10.34,22.22,22.22,0,0,1-6.91,30.62A22.11,22.11,0,0,1,.36,693.82v1.8H1.51l1-.07H2.6l.9-.1q.5-.06,1-.15c.82-.15,1.63-.33,2.44-.56.54-.16,1.07-.33,1.61-.52s1.05-.41,1.58-.64,1-.49,1.55-.76,1-.57,1.51-.88A24,24,0,0,0,20.65,658.81Z"/></g></g><g id="Монета_-_10-5" data-name="Монета - 10"><path class="cls-2" d="M11.46,579.5a30,30,0,0,1-11.1,2.13v-52L0,529.43H.36v-7.81a30,30,0,0,1,11.1,57.89Z"/><path class="cls-3" d="M9.24,573.92a24,24,0,0,1-8.88,1.71v-4.48a24,24,0,0,0,10.25-29.64A23.83,23.83,0,0,0,.36,529.64L0,529.43H.36v-1.79a23.63,23.63,0,0,1,2.67.15l.86.11H4l.81.14c.58.11,1.15.24,1.72.39l.74.21.22.07.52.17c.27.08.54.18.8.28l.33.12.71.29c.52.23,1,.46,1.52.72l.57.31a4.4,4.4,0,0,1,.56.31c.16.09.32.18.47.28l.74.47h0c.49.32,1,.66,1.42,1l.11.09c.26.2.51.41.76.62l.38.34c.26.22.51.46.76.7l.63.64c.41.43.81.88,1.19,1.34s.74,1,1.09,1.44.68,1,1,1.54a24.77,24.77,0,0,1,1.64,3.35A24,24,0,0,1,9.24,573.92Z"/><g class="cls-6"><path class="cls-7" d="M22.66,542.75A24.77,24.77,0,0,0,21,539.4c-.32-.53-.65-1-1-1.54s-.71-1-1.09-1.44-.78-.91-1.19-1.34l-.63-.64c-.25-.24-.5-.48-.76-.7L16,533.4c-.25-.21-.5-.42-.76-.62l-.11-.09c-.46-.36-.93-.7-1.42-1h0l-.74-.47c-.15-.1-.31-.19-.47-.28a4.4,4.4,0,0,0-.56-.31l-.57-.31c-.5-.27-1-.5-1.52-.72l-.71-.29-.33-.12c-.26-.1-.53-.2-.8-.28l-.52-.17-.22-.07-.74-.21c-.57-.15-1.14-.28-1.72-.39L4,527.9H3.89L3,527.78a21.51,21.51,0,0,0-2.67-.16v1.8a22.25,22.25,0,0,1,20.63,14A22.24,22.24,0,0,1,8.57,572.25a22.17,22.17,0,0,1-8.21,1.58v1.8a24,24,0,0,0,8.88-1.71A24,24,0,0,0,22.66,542.75Z"/></g></g><g id="Монета_-_10-6" data-name="Монета - 10"><path class="cls-2" d="M6.76,460.93a29.86,29.86,0,0,1-6.4.7v-60a30,30,0,0,1,29.31,23.62A30,30,0,0,1,6.76,460.93Z"/><path class="cls-3" d="M5.48,455.07a23.68,23.68,0,0,1-5.12.56v-6.22a24,24,0,0,0,11.77-26.09,23.89,23.89,0,0,0-8.5-13.65,22.63,22.63,0,0,0-3-2q.51,0,1,0l1,.08c.33,0,.67.07,1,.12s.67.1,1,.16l1,.2c.33.07.65.15,1,.24l1,.28.95.32c.31.11.62.23.92.36s.47.19.7.3l.48.22.63.31.64.34a5.54,5.54,0,0,1,.53.3,6.16,6.16,0,0,1,.55.33c.25.15.49.3.72.46s.51.35.76.53.58.43.87.66l.14.11c.24.19.47.39.7.59l.53.48.53.5c.34.34.67.69,1,1.05s.44.5.66.77l.63.79c.2.27.4.54.59.82l0,0c.18.26.36.54.53.82s.34.56.51.85a22.09,22.09,0,0,1,1.74,3.75c.12.33.23.66.33,1s.21.68.3,1,.17.69.25,1A24,24,0,0,1,5.48,455.07Z"/><g class="cls-6"><path class="cls-7" d="M23.81,426.51c-.08-.35-.16-.7-.25-1s-.19-.68-.3-1-.21-.67-.33-1c-.24-.66-.51-1.3-.79-1.92h0c-.3-.63-.61-1.23-.95-1.82-.17-.29-.33-.57-.51-.85s-.35-.56-.53-.82l0,0c-.19-.28-.39-.55-.59-.82l-.63-.79c-.22-.27-.44-.52-.66-.77s-.66-.71-1-1.05l-.53-.5-.53-.48c-.23-.2-.46-.4-.7-.59l-.14-.11c-.29-.23-.57-.45-.87-.66s-.5-.36-.76-.53-.47-.31-.72-.46a6.16,6.16,0,0,0-.55-.33,5.54,5.54,0,0,0-.53-.3l-.64-.34-.63-.31-.48-.22c-.23-.11-.47-.21-.7-.3s-.61-.25-.92-.36l-.95-.32-1-.28c-.32-.09-.64-.17-1-.24l-1-.2c-.33-.06-.66-.12-1-.16s-.67-.09-1-.12l-1-.08c-.42,0-.85,0-1.29,0v1.8a21,21,0,0,1,3.27.25,22.23,22.23,0,0,1,18.42,17.22,22.22,22.22,0,0,1-17,26.42,21.94,21.94,0,0,1-4.73.51v1.81a23.68,23.68,0,0,0,5.12-.56A24,24,0,0,0,23.81,426.51Z"/></g></g><g id="Монета_-_10-7" data-name="Монета - 10"><path class="cls-2" d="M15.15,337.72A29.94,29.94,0,0,1,.36,341.63v-60a30,30,0,0,1,26.1,15.21A30,30,0,0,1,15.15,337.72Z"/><path class="cls-3" d="M12.19,332.5c-.47.27-.94.51-1.41.74s-1,.44-1.44.64h0c-.49.2-1,.38-1.46.54-.31.1-.62.2-.93.28l-.46.13L6,335c-.31.08-.62.15-.94.21l-.93.17h0l-.94.13c-.31,0-.63.07-.94.09s-.63.05-.95.06l-.92,0h0v-2.87a24,24,0,0,0,8.78-32.55,23.89,23.89,0,0,0-8.78-8.9v-3.69H1l.5,0h.19l1,.08,1,.13h0c.71.1,1.41.24,2.1.4l.62.16,1,.28.2.07c.18.05.37.11.55.18l.23.08c.24.08.46.17.69.27l.07,0,.41.17c.3.12.6.25.89.39s.71.34,1.05.52l.58.32c.19.1.38.22.57.33l.85.53c.28.19.56.38.83.58l.45.33,0,0c.42.32.83.65,1.23,1a.27.27,0,0,1,.08.07,5.22,5.22,0,0,1,.43.39c.23.2.44.41.66.62.37.38.74.77,1.1,1.17a24.38,24.38,0,0,1,2,2.6c.3.46.59.93.87,1.42A24,24,0,0,1,12.19,332.5Z"/><g class="cls-6"><path class="cls-7" d="M21.24,299.79c-.28-.49-.57-1-.87-1.42a24.38,24.38,0,0,0-2-2.6c-.36-.4-.73-.79-1.1-1.17-.22-.21-.43-.42-.66-.62a5.22,5.22,0,0,0-.43-.39.27.27,0,0,0-.08-.07c-.4-.35-.81-.68-1.23-1l0,0-.45-.33c-.27-.2-.55-.39-.83-.58l-.85-.53c-.19-.11-.38-.23-.57-.33l-.58-.32c-.34-.18-.69-.36-1.05-.52s-.59-.27-.89-.39l-.41-.17-.07,0c-.23-.1-.45-.19-.69-.27L8.25,289c-.18-.07-.37-.13-.55-.18l-.2-.07-1-.28-.62-.16c-.69-.16-1.39-.3-2.1-.4h0l-1-.13-1-.08H1.49l-.5,0H.36v1.81a22.19,22.19,0,0,1,19.31,11.25,22.22,22.22,0,0,1-8.36,30.26,22,22,0,0,1-11,2.88v1.81h0l.92,0c.32,0,.63,0,1-.06s.63-.05.94-.09l.94-.13h0l.93-.17c.32-.06.63-.13.94-.21l.47-.12.46-.13c.31-.08.62-.18.93-.28.49-.16,1-.34,1.46-.54h0c.48-.2,1-.41,1.44-.64s.94-.47,1.41-.74A24,24,0,0,0,21.24,299.79Z"/></g></g><g id="Монета_-_10-8" data-name="Монета - 10"><path class="cls-2" d="M3.27,221.48a28.48,28.48,0,0,1-2.91.14v-60a30,30,0,0,1,29.86,27.1A30,30,0,0,1,3.27,221.48Z"/><path class="cls-3" d="M2.69,215.51a22.85,22.85,0,0,1-2.33.11v-7.31A24,24,0,0,0,13,184.76,23.87,23.87,0,0,0,6.2,170.21a24,24,0,0,0-2.75-2.39h.08l.74.11.27.05c.31,0,.62.11.92.18l.69.16h0l.07,0a5.87,5.87,0,0,1,.6.16c.44.12.88.26,1.3.4h0l.53.2.61.23.72.31.2.09c.3.13.6.27.89.42s.59.3.88.47.58.32.86.5.41.25.62.39l0,0a3.37,3.37,0,0,1,.31.21c.16.1.31.21.47.33l.29.21c.24.17.48.35.71.54l.65.53c.29.25.57.5.85.77s.48.45.71.69l.68.72.65.75.62.78c.21.27.4.54.59.81l.35.52a6.37,6.37,0,0,1,.35.55c.08.11.15.23.22.35.19.3.36.62.53.93s.39.74.57,1.12h0c.15.3.28.6.41.91s.26.63.38.95.19.51.27.77.11.31.15.47.14.43.19.65.16.57.23.86l.12.53c.05.23.1.46.14.7.13.69.23,1.38.3,2.09A24,24,0,0,1,2.69,215.51Z"/><g class="cls-4"><path class="cls-5" d="M1.38,172.45l-1,.06v-.21A9,9,0,0,1,1.38,172.45Z"/></g><g class="cls-6"><path class="cls-7" d="M24.25,189.3c-.07-.71-.17-1.4-.3-2.09,0-.24-.09-.47-.14-.7l-.12-.53c-.07-.29-.14-.58-.23-.86s-.12-.44-.19-.65-.1-.32-.15-.47-.17-.52-.27-.77-.24-.64-.38-.95-.26-.61-.41-.91h0c-.18-.38-.37-.75-.57-1.12s-.34-.63-.53-.93c-.07-.12-.14-.24-.22-.35a6.37,6.37,0,0,0-.35-.55l-.35-.52c-.19-.27-.38-.54-.59-.81l-.62-.78-.65-.75-.68-.72c-.23-.24-.47-.47-.71-.69s-.56-.52-.85-.77l-.65-.53c-.23-.19-.47-.37-.71-.54l-.29-.21c-.16-.12-.31-.23-.47-.33a3.37,3.37,0,0,0-.31-.21l0,0c-.21-.14-.41-.27-.62-.39s-.57-.34-.86-.5-.58-.32-.88-.47-.59-.29-.89-.42l-.2-.09-.72-.31-.61-.23-.53-.2h0c-.42-.14-.86-.28-1.3-.4a5.87,5.87,0,0,0-.6-.16l-.07,0h0l-.69-.16c-.3-.07-.61-.13-.92-.18l-.27-.05-.74-.11H3.45a24.18,24.18,0,0,0-3.09-.2v1.8a21.77,21.77,0,0,1,5.84.79,22.23,22.23,0,0,1,16.26,19.26,22.24,22.24,0,0,1-20,24.25c-.72.07-1.43.1-2.15.1v1.8a22.85,22.85,0,0,0,2.33-.11A24,24,0,0,0,24.25,189.3Z"/></g></g><g id="Монета_-_10-9" data-name="Монета - 10"><path class="cls-2" d="M30.32,71.57A30,30,0,0,1,.41,101.66h0v-60A30,30,0,0,1,30.32,71.57Z"/><path class="cls-3" d="M24.32,71.59A24,24,0,0,1,.4,95.66h0V87.54A24,24,0,0,0,13.57,66,23.91,23.91,0,0,0,8.14,50.88h0a23.82,23.82,0,0,0-2.5-2.62l1,.25c.66.18,1.3.38,1.93.61s1.26.49,1.86.77c.31.14.61.29.9.44l.88.48q.86.49,1.68,1c.28.19.55.38.81.58l.79.61.09.07c.48.4.94.82,1.39,1.25.24.22.47.46.7.7s.44.46.65.7l.08.09.58.69.61.78.54.75c.2.29.39.59.58.89s.35.57.51.86.28.5.41.76l0,0a1.09,1.09,0,0,1,.08.15l.33.67c.13.28.25.56.37.84s.15.37.22.55.26.66.37,1a.44.44,0,0,1,0,.15l.18.54c.06.18.11.37.16.55s0,.1.05.15h0c.06.21.11.41.16.62s.11.42.15.64.1.45.14.68.05.27.07.41.08.46.11.69a2.91,2.91,0,0,1,0,.31v0c0,.26.07.52.09.79a1.23,1.23,0,0,1,0,.2c0,.3.05.6.06.91S24.32,71.23,24.32,71.59Z"/><g class="cls-4"><path class="cls-5" d="M3.14,52.67a17.16,17.16,0,0,0-2.78,0v-.56A13.77,13.77,0,0,1,3.14,52.67Z"/></g><g class="cls-6"><path class="cls-7" d="M24.29,70.53c0-.31,0-.61-.06-.91a1.23,1.23,0,0,0,0-.2c0-.27-.05-.53-.09-.79v0a2.91,2.91,0,0,0,0-.31c0-.23-.06-.46-.11-.69s0-.27-.07-.41-.09-.45-.14-.68-.1-.43-.15-.64-.1-.41-.16-.62h0s0-.1-.05-.15-.1-.37-.16-.55L23.06,64a.44.44,0,0,0,0-.15c-.11-.34-.23-.67-.37-1s-.14-.37-.22-.55-.24-.56-.37-.84l-.33-.67a1.09,1.09,0,0,0-.08-.15l0,0c-.13-.26-.26-.51-.41-.76s-.33-.58-.51-.86-.38-.6-.58-.89l-.54-.75L19,56.55l-.58-.69-.08-.09c-.21-.24-.43-.47-.65-.7s-.46-.48-.7-.7a18,18,0,0,0-1.39-1.25l-.09-.07-.79-.61c-.26-.2-.53-.39-.81-.58q-.82-.55-1.68-1l-.88-.48c-.29-.15-.59-.3-.9-.44a16.91,16.91,0,0,0-1.86-.77,18,18,0,0,0-1.93-.61l-1-.25a23.45,23.45,0,0,0-5.27-.6v1.8a22,22,0,0,1,7.77,1.42h0a22.2,22.2,0,0,1-7.75,43h0v1.8h0A24,24,0,0,0,24.32,71.59C24.32,71.23,24.31,70.88,24.29,70.53Z"/></g></g><g class="cls-8"><g id="Монета_-_10-10" data-name="Монета - 10"><path class="cls-2" d="M130.31,1080H70.41a30,30,0,0,1,59.9,0Z"/><path class="cls-3" d="M124.3,1080H112.2a24,24,0,0,0-20.26-18.9,22.06,22.06,0,0,0-3.63-.23c.3-.18.61-.35.92-.51s.81-.41,1.21-.59l.53-.23.56-.23a20.18,20.18,0,0,1,2-.69l.66-.18q.77-.21,1.53-.36l.75-.14h0l.75-.11c.26,0,.51-.07.77-.09l.78-.06.74,0h.84c.33,0,.65,0,1,0l.46,0h0c.27,0,.55,0,.82.06a.39.39,0,0,1,.15,0l.22,0q.47,0,.93.12h0l1.17.21,1.17.27c.39.09.78.2,1.17.32l1.14.39.83.32.07,0h0l.08,0,.48.22a14.41,14.41,0,0,1,1.48.72c.19.09.37.19.55.29s.6.34.9.53.69.44,1,.68.57.4.84.61.34.26.5.4a6.57,6.57,0,0,1,.52.43c.21.17.42.35.62.54l.44.41c.31.3.61.6.91.92s.48.53.71.8.33.38.48.58.29.36.43.55.28.37.41.56l.37.53a.61.61,0,0,1,.07.1c.28.42.54.84.79,1.27.13.22.25.44.37.67a.61.61,0,0,1,.07.14c.13.22.24.45.36.69s.25.53.37.8.24.56.35.84l0,.06a3.65,3.65,0,0,1,.14.35,5.17,5.17,0,0,1,.18.51l0,.06c.07.2.14.4.2.6.18.56.34,1.13.48,1.7.08.33.15.66.21,1a1.84,1.84,0,0,1,0,.25,2.17,2.17,0,0,1,0,.25c0,.16.06.32.08.49,0,.34.1.67.13,1s.05.51.07.76a.28.28,0,0,1,0,.09v0S124.3,1080,124.3,1080Z"/><g class="cls-4"><path class="cls-5" d="M89.49,1065.8a19.79,19.79,0,0,0-5.7,7.79c-.31.73-.53,1.5-.78,2.25-.1.39-.18.78-.27,1.17a7.54,7.54,0,0,0-.21,1.17l-.18,1.18,0,.64H80.56a18.6,18.6,0,0,1,2-7A16,16,0,0,1,89.49,1065.8Z"/></g><g class="cls-6"><path class="cls-7" d="M124.29,1079.88v0a.28.28,0,0,0,0-.09c0-.25,0-.51-.07-.76s-.08-.66-.13-1c0-.17,0-.33-.08-.49a2.17,2.17,0,0,0,0-.25c0-.09,0-.17,0-.25-.06-.32-.13-.65-.21-1-.14-.57-.3-1.14-.48-1.7-.06-.2-.13-.4-.2-.6l0-.06a5.17,5.17,0,0,0-.18-.51,3.65,3.65,0,0,0-.14-.35l0-.06c-.11-.28-.22-.56-.35-.84s-.24-.53-.37-.8-.23-.47-.36-.69a.61.61,0,0,0-.07-.14c-.12-.23-.24-.45-.37-.67-.25-.43-.51-.85-.79-1.27a.61.61,0,0,0-.07-.1l-.37-.53c-.13-.19-.27-.38-.41-.56s-.28-.37-.43-.55-.31-.39-.48-.58-.47-.54-.71-.8-.6-.62-.91-.92l-.44-.41c-.2-.19-.41-.37-.62-.54a6.57,6.57,0,0,0-.52-.43c-.16-.14-.33-.27-.5-.4s-.55-.42-.84-.61-.68-.47-1-.68-.6-.36-.9-.53-.36-.2-.55-.29a14.41,14.41,0,0,0-1.48-.72l-.48-.22-.08,0h0l-.07,0-.83-.32-1.14-.39c-.39-.12-.78-.23-1.17-.32l-1.17-.27-1.17-.21h0q-.47-.08-.93-.12l-.22,0a.39.39,0,0,0-.15,0c-.27,0-.55,0-.82-.06h0l-.46,0c-.33,0-.65,0-1,0h-.84l-.74,0-.78.06c-.26,0-.51,0-.77.09l-.75.11h0l-.75.14c-.51.1-1,.21-1.53.36l-.66.18a20.18,20.18,0,0,0-2,.69l-.56.23-.53.23c-.4.18-.81.38-1.21.59s-.62.33-.92.51A23.47,23.47,0,0,0,84,1064.1a23.91,23.91,0,0,0-7.54,15.9h1.82a22.06,22.06,0,0,1,7-14.58,21.79,21.79,0,0,1,6.75-4.32,22.16,22.16,0,0,1,30.55,18.9h1.81S124.29,1079.92,124.29,1079.88Z"/></g></g><g id="Монета_-_10-11" data-name="Монета - 10"><circle class="cls-2" cx="100.36" cy="961.62" r="30"/><path class="cls-3" d="M99.44,937.64a24,24,0,0,1-4.63,44.55,24.33,24.33,0,0,1-5.35.81,24,24,0,1,0,10-45.36Z"/><g class="cls-4"><path class="cls-5" d="M85.57,972.9A21.33,21.33,0,0,1,83,968.61a22.35,22.35,0,0,1-1.63-4.81,16.81,16.81,0,0,1,.83-10.23,19.72,19.72,0,0,1,6.49-7.93,16,16,0,0,1,9.53-3.09,19.82,19.82,0,0,0-8.67,4.21,22.5,22.5,0,0,0-1.75,1.63c-.27.28-.52.6-.79.89a9.55,9.55,0,0,0-.74.94l-.71,1-.63,1a18.84,18.84,0,0,0-1.08,2.09,8.41,8.41,0,0,0-.41,1.09,7.68,7.68,0,0,0-.36,1.12,16.16,16.16,0,0,0-.4,2.31,19,19,0,0,0,.07,4.76A32.13,32.13,0,0,0,85.57,972.9Z"/></g><g class="cls-6"><path class="cls-7" d="M123.53,955.35c-.14-.51-.29-1-.47-1.52-.07-.23-.16-.47-.25-.7s-.11-.29-.17-.43c-.12-.32-.26-.64-.4-1s-.35-.76-.54-1.13c-.31-.59-.64-1.17-1-1.73s-.72-1.1-1.11-1.62-.81-1-1.23-1.51q-.42-.48-.87-.93c-.3-.3-.6-.6-.92-.88-.14-.14-.28-.26-.43-.39l-.44-.38c-.41-.34-.83-.67-1.27-1l-.62-.44-.12-.08,0,0a.41.41,0,0,0-.11-.07q-.47-.32-1-.6c-.33-.2-.66-.39-1-.57s-.49-.25-.73-.36l-.21-.11c-.22-.1-.44-.21-.67-.3l-.36-.15q-.33-.15-.66-.27a20.59,20.59,0,0,0-2-.67,4.27,4.27,0,0,0-.48-.13c-.25-.07-.5-.14-.75-.19l-.58-.13-.7-.13-.34-.06-.23,0-.75-.1h-.07l-.21,0h0l-1.14-.09-.53,0c-.26,0-.52,0-.77,0l-.94,0a24,24,0,0,0-10,45.36,21.67,21.67,0,0,0,2.31,1c.3.12.6.23.91.33s.61.2.92.29.56.16.85.23l1,.24c.34.07.69.14,1,.19l1,.15,1.06.1.47,0h.21a24.39,24.39,0,0,0,7.34-.82A24,24,0,0,0,123.53,955.35Zm-17.37,27.7a22,22,0,0,1-13.06-.47h0a22.18,22.18,0,1,1,13.08.47Z"/></g></g><g id="Монета_-_10-12" data-name="Монета - 10"><circle class="cls-2" cx="100.36" cy="841.62" r="30"/><path class="cls-3" d="M104.6,818a24,24,0,0,1-19.47,42.17A24,24,0,1,0,104.6,818Z"/><g class="cls-4"><path class="cls-5" d="M83.49,849.47a21.16,21.16,0,0,1-1.63-4.75,21.84,21.84,0,0,1-.56-5.05,16.85,16.85,0,0,1,3-9.81,19.75,19.75,0,0,1,8-6.36,16,16,0,0,1,10-1,19.87,19.87,0,0,0-9.38,2.26A23.45,23.45,0,0,0,90.88,826c-.33.23-.64.48-1,.71a7.52,7.52,0,0,0-.93.76l-.9.78-.83.86a16.83,16.83,0,0,0-1.5,1.8,7.48,7.48,0,0,0-.64,1,9.33,9.33,0,0,0-.59,1,16.42,16.42,0,0,0-.88,2.17,18.73,18.73,0,0,0-1,4.66A32.22,32.22,0,0,0,83.49,849.47Z"/></g><g class="cls-6"><path class="cls-7" d="M124.33,840.46q0-.6-.09-1.2c0-.37-.08-.74-.13-1.11s-.1-.63-.16-.94-.06-.35-.1-.52-.13-.6-.21-.9-.14-.55-.22-.82a4.74,4.74,0,0,0-.15-.5c0-.18-.11-.35-.17-.52l-.18-.52c-.12-.34-.25-.68-.39-1v0a19.81,19.81,0,0,0-.84-1.81c-.33-.63-.68-1.25-1.07-1.85l0,0-.21-.33-.07-.09c-.14-.22-.28-.43-.44-.64l-.08-.12c-.16-.22-.32-.43-.49-.64l-.5-.63c-.16-.2-.33-.39-.5-.58l-.62-.67-.4-.4-.36-.35c-.24-.23-.48-.46-.73-.67l-.76-.64c-.19-.16-.38-.31-.58-.45l-.32-.25-.63-.44-.11-.07c-.26-.18-.52-.35-.79-.51s-.56-.35-.85-.51-.58-.32-.88-.47l-.9-.44a19.94,19.94,0,0,0-1.85-.76l-1-.32-.82-.25-.23-.06-.91-.22-1-.2a23.52,23.52,0,0,0-5.4-.35,24,24,0,0,0-14.07,42.52.1.1,0,0,0,.05,0c.24.2.49.39.74.58s.47.35.7.51l.33.23c.21.14.42.28.64.41s.54.34.82.51a23.82,23.82,0,0,0,2.78,1.36l.9.35.07,0,.74.25.32.1.07,0c.21.07.41.13.62.18l.1,0,.13,0c.32.09.64.17,1,.24s.56.12.85.18.5.09.76.12l.15,0a4.29,4.29,0,0,0,.5.07h0l.57.06,1.17.09c.4,0,.79,0,1.19,0s.79,0,1.18,0,.73,0,1.09-.08.83-.09,1.24-.15l.26,0h0l.19,0,.45-.08.49-.1c.53-.11,1.06-.24,1.57-.39l.73-.22c.54-.16,1.08-.35,1.6-.56l.63-.26.65-.29.3-.14.77-.38.4-.22.13-.07.62-.36.07,0,.21-.13c.25-.15.5-.31.74-.48l0,0a6,6,0,0,0,.52-.36l.58-.42.28-.21c.37-.3.74-.6,1.09-.91s.66-.59,1-.9.5-.5.73-.75l.46-.5.38-.45c.17-.19.33-.39.49-.6s.33-.42.48-.64.32-.43.46-.65.4-.58.58-.88l0,0,0,0c.09-.14.18-.28.26-.43l.25-.44,0,0c.09-.15.18-.31.26-.47a4.16,4.16,0,0,0,.24-.47l.2-.4c.09-.18.17-.36.25-.55l.24-.55.21-.53c0-.09.07-.18.1-.27l.18-.49c.15-.44.29-.88.42-1.33a16.13,16.13,0,0,0,.42-1.66c.07-.33.13-.67.18-1s.09-.55.12-.82.07-.49.09-.74A23.13,23.13,0,0,0,124.33,840.46ZM101.44,863.8a22.2,22.2,0,1,1,21.09-23.25A22,22,0,0,1,101.44,863.8Z"/></g></g><g id="Монета_-_10-13" data-name="Монета - 10"><circle class="cls-2" cx="100.36" cy="721.62" r="30"/><path class="cls-3" d="M89.6,700.17a24,24,0,0,1,14.22,42.47,24.21,24.21,0,0,1-4.54,3,24,24,0,1,0-9.68-45.43Z"/><g class="cls-4"><path class="cls-5" d="M91.56,738a21.46,21.46,0,0,1-4.16-2.82,21.83,21.83,0,0,1-3.47-3.71,16.84,16.84,0,0,1-3.48-9.65,19.77,19.77,0,0,1,2.63-9.91,16,16,0,0,1,7.39-6.75,19.62,19.62,0,0,0-6.15,7.42c-.36.71-.63,1.46-.92,2.2-.13.38-.23.77-.34,1.15a7.45,7.45,0,0,0-.29,1.15l-.25,1.17-.15,1.19a16.77,16.77,0,0,0-.13,2.34,9.2,9.2,0,0,0,.08,1.17,9,9,0,0,0,.14,1.16,18,18,0,0,0,.59,2.27,18.6,18.6,0,0,0,2,4.3A32,32,0,0,0,91.56,738Z"/></g><g class="cls-6"><path class="cls-7" d="M118.85,706.33a22.57,22.57,0,0,0-1.88-2,24,24,0,0,0-2-1.76c-.36-.27-.72-.53-1.09-.78s-.73-.49-1.11-.72-.76-.44-1.15-.64-.73-.38-1.1-.55l-.11-.05c-.39-.18-.77-.34-1.16-.5s-.82-.3-1.23-.44-.79-.25-1.19-.36a.49.49,0,0,0-.16,0c-.37-.1-.74-.19-1.12-.27l-.06,0c-.38-.08-.77-.15-1.16-.21a.41.41,0,0,0-.16,0h0l-.17,0-.82-.11-.27,0-.61,0a2.31,2.31,0,0,0-.37,0l-.34,0a21.69,21.69,0,0,0-2.55,0l-.68.05a21.26,21.26,0,0,0-2.74.39l-.68.15-.68.17c-.22.05-.45.12-.67.19l-.66.21-.67.23c-.22.07-.43.15-.65.24l-.46.19-.4.17-.44.2c-.22.09-.43.2-.64.31a23.72,23.72,0,0,0-4.54,3,24,24,0,0,0,14.23,42.46h0l.52,0a24,24,0,0,0,19-39.28Zm-4.34,32.4a22.25,22.25,0,0,1-31.26-3,22.22,22.22,0,0,1,3-31.25,21.94,21.94,0,0,1,7-3.91,22.2,22.2,0,0,1,21.31,38.12Z"/></g></g><g id="Монета_-_10-14" data-name="Монета - 10"><circle class="cls-2" cx="100.36" cy="601.62" r="30"/><path class="cls-3" d="M105.37,578.15a24,24,0,0,1-20.84,41.51,24,24,0,1,0,20.84-41.51Z"/><g class="cls-4"><path class="cls-5" d="M83.25,608.91a21,21,0,0,1-1.48-4.8,21.48,21.48,0,0,1-.39-5.07,16.81,16.81,0,0,1,3.31-9.71,19.76,19.76,0,0,1,8.25-6.08,16,16,0,0,1,10-.65,19.82,19.82,0,0,0-9.45,1.94,23.55,23.55,0,0,0-2.09,1.15c-.34.21-.66.45-1,.67a7.39,7.39,0,0,0-.94.73l-.93.75-.86.83a16.1,16.1,0,0,0-1.56,1.76,7.16,7.16,0,0,0-.67,1,9.14,9.14,0,0,0-.62,1,16.44,16.44,0,0,0-1,2.14,19.07,19.07,0,0,0-1.1,4.63A31.86,31.86,0,0,0,83.25,608.91Z"/></g><g class="cls-6"><path class="cls-7" d="M124.23,599.11c0-.27-.06-.54-.11-.81v-.07a.59.59,0,0,0,0-.13l0-.16s0-.06,0-.09,0-.32-.08-.47,0,0,0,0a4.35,4.35,0,0,0-.1-.52c0-.17-.06-.33-.1-.49a4.05,4.05,0,0,0-.12-.5c0-.17-.09-.33-.13-.5s0-.21-.09-.32-.09-.31-.14-.47l-.06-.18c0-.14-.09-.27-.13-.41s-.16-.47-.25-.7a.78.78,0,0,0,0-.14l-.24-.61c-.06-.16-.13-.31-.2-.47l0-.12c-.09-.2-.18-.4-.28-.6a3.18,3.18,0,0,0-.16-.32c-.14-.29-.28-.57-.44-.84s-.15-.28-.23-.42a2.26,2.26,0,0,0-.16-.26c-.11-.21-.24-.42-.37-.62l-.3-.45c-.11-.18-.22-.35-.34-.52h0c-.37-.52-.75-1-1.16-1.52s-.9-1-1.38-1.53c-.23-.24-.47-.47-.71-.69l-.57-.52-.6-.51-.16-.13a8.27,8.27,0,0,0-.66-.51,4.35,4.35,0,0,0-.43-.32h0c-.22-.16-.43-.31-.66-.46l-.32-.21c-.43-.28-.88-.55-1.33-.8l-.06,0-.45-.24h0c-.27-.15-.55-.29-.83-.42s-.67-.32-1-.45-.79-.33-1.19-.47l-.46-.16c-.19-.06-.37-.13-.56-.18l-.09,0c-.17,0-.34-.11-.52-.15l-.52-.14c-.3-.08-.61-.15-.92-.21a23.42,23.42,0,0,0-5.39-.53,24,24,0,0,0-15.45,42A20.58,20.58,0,0,0,86.18,621c.22.17.45.33.68.48l.54.36.78.48c.28.17.56.33.85.48s.67.35,1,.51.81.38,1.23.54l.6.24.1,0c.22.09.45.17.67.24l.84.27.63.17.57.15.19,0,.79.17.78.14.41.06.33,0h0l.52.06h0l.19,0,.69,0,.57,0c.51,0,1,0,1.52,0a24,24,0,0,0,23.63-24.37C124.35,600.53,124.31,599.81,124.23,599.11Zm-23.52,24.71a22.2,22.2,0,1,1-.7-44.39,21.82,21.82,0,0,1,7.9,1.32h0a22.2,22.2,0,0,1-7.21,43.07Z"/></g></g><g id="Монета_-_10-15" data-name="Монета - 10"><circle class="cls-2" cx="100.36" cy="481.62" r="30"/><path class="cls-3" d="M96.38,458a24,24,0,0,1,1.1,44.77,23.59,23.59,0,0,1-5.2,1.49A24,24,0,1,0,96.38,458Z"/><g class="cls-4"><path class="cls-5" d="M87.13,494.7A20.86,20.86,0,0,1,84,490.78a21.5,21.5,0,0,1-2.23-4.57A16.83,16.83,0,0,1,81.27,476a19.74,19.74,0,0,1,5.42-8.69A16,16,0,0,1,95.75,463a19.75,19.75,0,0,0-8.07,5.28c-.55.57-1,1.22-1.52,1.84-.24.32-.44.66-.67,1a7.43,7.43,0,0,0-.61,1l-.58,1-.49,1.09a15.47,15.47,0,0,0-.81,2.21,7.43,7.43,0,0,0-.27,1.13,7.63,7.63,0,0,0-.21,1.16,15.22,15.22,0,0,0-.1,2.34,18.55,18.55,0,0,0,.68,4.71A32.06,32.06,0,0,0,87.13,494.7Z"/></g><g class="cls-6"><path class="cls-7" d="M122.53,472.44c-.15-.36-.31-.71-.47-1.06l0-.07c-.06-.13-.13-.26-.2-.39-.16-.33-.33-.66-.51-1-.29-.54-.61-1.06-.94-1.56l-.51-.74c-.35-.49-.71-1-1.09-1.41h0l-.47-.55-.42-.45-.29-.31c-.2-.21-.41-.42-.62-.62q-.64-.62-1.32-1.17l-.43-.35s0,0,0,0-.3-.24-.45-.35l-.6-.44c-.41-.28-.82-.55-1.24-.81l-.64-.37-.86-.47-.88-.43-.56-.25c-.17-.07-.33-.15-.5-.21l-.07,0-.12-.05c-.38-.15-.77-.29-1.15-.42s-.78-.26-1.18-.37a3.17,3.17,0,0,0-.44-.12l-.4-.1h0l-.47-.11-.38-.08-.21,0a3.89,3.89,0,0,0-.47-.09l-.13,0-.22,0-.7-.1-.93-.11h-.06q-.45,0-.9-.06c-.43,0-.87,0-1.3,0h-.22a8.1,8.1,0,0,0-.85,0h-.48l-.52,0-.75.08h-.11c-.32.05-.65.09-1,.15a23.59,23.59,0,0,0-5.2,1.49,24,24,0,0,0,1.11,44.77l.14,0c.27.1.55.19.82.27a21.07,21.07,0,0,0,2.21.57c.25.06.51.11.76.15l.74.12c.26,0,.52.08.78.1l.62.06.65,0h.07l.41,0a24,24,0,0,0,23-33.17Zm-13.68,29.69a21.9,21.9,0,0,1-13,1.21h0a22.19,22.19,0,0,1-3.95-42.23,21.75,21.75,0,0,1,7.83-1.67,22.19,22.19,0,0,1,9.15,42.69Z"/></g></g><g id="Монета_-_10-16" data-name="Монета - 10"><circle class="cls-2" cx="100.36" cy="361.62" r="30"/><path class="cls-3" d="M105.46,338.17a24,24,0,0,1-21,41.43,24,24,0,1,0,21-41.43Z"/><g class="cls-4"><path class="cls-5" d="M83.22,368.85A20.91,20.91,0,0,1,81.76,364a21.43,21.43,0,0,1-.37-5.07,16.86,16.86,0,0,1,3.34-9.69A19.82,19.82,0,0,1,93,343.22a16.09,16.09,0,0,1,10-.61,19.74,19.74,0,0,0-9.46,1.91,21.31,21.31,0,0,0-2.1,1.14c-.33.21-.65.45-1,.67a8.46,8.46,0,0,0-1,.72l-.93.75-.86.83a17.23,17.23,0,0,0-1.57,1.75,9.11,9.11,0,0,0-.68.95,10.23,10.23,0,0,0-.62,1,16.44,16.44,0,0,0-1,2.14,18.54,18.54,0,0,0-1.12,4.63A32.15,32.15,0,0,0,83.22,368.85Z"/></g><g class="cls-6"><path class="cls-7" d="M124.23,359.09c0-.14,0-.28,0-.42,0-.32-.08-.64-.14-1s-.11-.67-.19-1-.2-.92-.32-1.37c0-.06,0-.12,0-.18l-.21-.71-.06-.18c-.07-.24-.15-.47-.24-.7l-.12-.34-.24-.62,0-.1c-.12-.29-.25-.58-.38-.87l-.12-.26c-.17-.37-.36-.73-.55-1.08-.1-.19-.2-.38-.31-.56s-.11-.2-.17-.3-.27-.46-.42-.68-.36-.56-.55-.83-.38-.54-.58-.8-.41-.53-.62-.78-.43-.51-.65-.75-.25-.28-.39-.42-.4-.42-.61-.63-.5-.48-.76-.71a.49.49,0,0,0-.13-.12c-.17-.16-.35-.32-.53-.46s-.3-.26-.46-.38l-.9-.69-.61-.43c-.3-.2-.61-.4-.93-.59s-.5-.31-.76-.45l-.17-.1-.56-.3-.29-.15-.81-.38-.28-.13-.62-.27-.28-.1-.14-.05c-.2-.09-.4-.16-.6-.23s-.64-.22-1-.32l-.06,0-.5-.14q-.45-.13-.93-.24a1.14,1.14,0,0,0-.25-.06l-.22-.05a24,24,0,0,0-21,41.42,22.57,22.57,0,0,0,3.41,2.52c.22.14.45.27.68.4h0a5.86,5.86,0,0,0,.55.3l.48.25.48.23.17.09.2.09.46.2a3.38,3.38,0,0,0,.44.18l.56.23h0l.6.21.32.11.65.2.08,0,.36.11.66.17c.28.07.56.14.85.19l.11,0,.43.09h0l.57.09.12,0c.38.06.77.11,1.16.15l.39,0c.13,0,.27,0,.4,0l.5,0c.37,0,.74,0,1.12,0h.32a24,24,0,0,0,23.71-24.28C124.35,360.58,124.31,359.83,124.23,359.09Zm-23.6,24.73a22,22,0,0,1-12.54-3.72,0,0,0,0,0,0,0h0A22.18,22.18,0,0,1,108,340.78h0a22.2,22.2,0,0,1-7.36,43Z"/></g></g><g id="Монета_-_10-17" data-name="Монета - 10"><circle class="cls-2" cx="100.36" cy="241.62" r="30"/><path class="cls-3" d="M102.26,217.7A24,24,0,0,1,87,261.58a24,24,0,1,0,15.23-43.88Z"/><g class="cls-4"><path class="cls-5" d="M84.35,251.09a21.29,21.29,0,0,1-2.1-4.57,21.87,21.87,0,0,1-1-5,16.77,16.77,0,0,1,2-10.06,19.66,19.66,0,0,1,7.38-7.11,16,16,0,0,1,9.82-1.95,19.73,19.73,0,0,0-9.11,3.16c-.67.42-1.29.93-1.92,1.41-.31.25-.59.53-.89.8a8.33,8.33,0,0,0-.84.84l-.82.87-.74.94a16.67,16.67,0,0,0-1.33,1.94,21.74,21.74,0,0,0-1,2.1,17.62,17.62,0,0,0-.67,2.25,19.14,19.14,0,0,0-.48,4.73A31.91,31.91,0,0,0,84.35,251.09Z"/></g><g class="cls-6"><path class="cls-7" d="M124.1,238.11c0-.28-.09-.56-.14-.84s-.08-.43-.13-.65l0-.13a.19.19,0,0,0,0-.07,3,3,0,0,0-.07-.32c0-.11,0-.21-.08-.32-.06-.26-.13-.51-.2-.76s-.19-.66-.3-1h0c-.11-.33-.23-.65-.35-1s-.17-.45-.27-.67-.11-.27-.17-.4-.24-.54-.37-.8-.3-.61-.46-.91-.25-.47-.39-.7l-.07-.12-.06-.11-.5-.79s0,0,0,0l-.07-.11-.49-.71q-.24-.34-.51-.69a2.19,2.19,0,0,0-.2-.25q-.24-.32-.51-.63c-.21-.26-.43-.5-.66-.75s-.37-.4-.56-.59l-.19-.18c-.21-.22-.43-.43-.65-.63l-.74-.66c-.5-.43-1-.84-1.56-1.22l0,0c-.53-.37-1.08-.73-1.64-1.07-.28-.17-.57-.34-.86-.49-.58-.31-1.18-.61-1.78-.87l-.72-.3a1.51,1.51,0,0,0-.35-.14c-.26-.11-.53-.2-.79-.29s-.63-.22-1-.31l-.92-.26-.12,0-.79-.18-.21,0c-.63-.13-1.27-.24-1.91-.31l-1-.1a23.45,23.45,0,0,0-5.41.18A24,24,0,0,0,87,261.58h0l.52.34.69.42.79.44c.31.17.62.33.94.48l.48.22.48.21c.32.14.65.27,1,.39s.62.23.93.32a9.93,9.93,0,0,0,1.14.35l.32.09.63.16h0c.46.11.93.2,1.4.27.3.06.61.1.92.14s.47.06.71.08l.66.06.76,0,.91,0q.51,0,1,0c.42,0,.84,0,1.26-.08l1.27-.15A24,24,0,0,0,124.1,238.11Zm-20.49,25.47a22.2,22.2,0,1,1,18.71-25.21A22,22,0,0,1,103.61,263.58Z"/></g></g><g id="Монета_-_10-18" data-name="Монета - 10"><circle class="cls-2" cx="100.36" cy="121.62" r="30"/><path class="cls-3" d="M90.23,99.87a24,24,0,0,1,13,42.87,24.34,24.34,0,0,1-4.62,2.82,24,24,0,1,0-8.35-45.69Z"/><g class="cls-4"><path class="cls-5" d="M91.08,137.75A22.63,22.63,0,0,1,83.65,131a16.82,16.82,0,0,1-3.2-9.74,19.79,19.79,0,0,1,2.92-9.83A16.07,16.07,0,0,1,91,104.88a19.9,19.9,0,0,0-6.37,7.24c-.38.7-.67,1.45-1,2.18-.14.37-.25.75-.38,1.13a8.88,8.88,0,0,0-.32,1.15l-.28,1.16-.19,1.18a16.9,16.9,0,0,0-.19,2.34,7.63,7.63,0,0,0,0,1.17,7.47,7.47,0,0,0,.11,1.16,16.16,16.16,0,0,0,.52,2.29,18.76,18.76,0,0,0,1.91,4.36A32.29,32.29,0,0,0,91.08,137.75Z"/></g><g class="cls-6"><path class="cls-7" d="M119.29,106.87c-.2-.26-.41-.51-.63-.76l0-.06,0-.06,0-.06c-.1-.12-.21-.25-.33-.37l-.07-.08c-.17-.2-.36-.4-.55-.59l-.25-.26c-.3-.3-.6-.59-.91-.87s-.7-.61-1.06-.89-.73-.57-1.1-.83-.75-.52-1.14-.76-.78-.47-1.17-.69-.8-.42-1.21-.62a22.43,22.43,0,0,0-2.49-1c-.42-.14-.85-.28-1.28-.4s-.86-.23-1.29-.33a24,24,0,0,0-6.6-.56,22,22,0,0,0-3.85.52,20.32,20.32,0,0,0-2.4.66l-.25.09c-.38.13-.75.26-1.11.41s-.72.3-1.08.47l-.13.06a23.61,23.61,0,0,0-4.63,2.82,24,24,0,0,0,13,42.85h0a16.88,16.88,0,0,0,1.74.08c.32,0,.65,0,1,0a17.78,17.78,0,0,0,1.78-.14l.34,0h0l.17,0c.32,0,.63-.09.94-.15l.31-.06.31-.06.21,0L106,145l.26-.07.52-.14.46-.13h0l.07,0,.06,0,.62-.2a19.65,19.65,0,0,0,1.93-.74c.22-.1.44-.19.65-.3s.48-.22.72-.36l.62-.32c.36-.19.7-.4,1-.61l.18-.12c.24-.14.47-.3.7-.46l0,0,.09-.07c.18-.12.36-.24.53-.37l.59-.44A24,24,0,0,0,119.29,106.87ZM114,139.14a21.94,21.94,0,0,1-12.23,4.62h0A22.17,22.17,0,1,1,114,139.14Z"/></g></g><g id="Монета_-_10-19" data-name="Монета - 10"><path class="cls-2" d="M102.31,31.56a30,30,0,0,1-31.89-28,28.36,28.36,0,0,1,0-3.57h59.9A30,30,0,0,1,102.31,31.56Z"/><path class="cls-3" d="M101.92,25.57c-.54,0-1.08.05-1.61.05q-.57,0-1.14,0c-.5,0-1-.06-1.48-.12-.25,0-.5,0-.74-.09l-.18,0c-.3,0-.59-.09-.88-.15l-.36-.07c-.3-.06-.6-.12-.9-.2s-.67-.17-1-.27l-.14,0a19.51,19.51,0,0,1-2.07-.72c-.34-.14-.69-.28-1-.44a21.52,21.52,0,0,1-2-1c-.25-.14-.49-.29-.73-.44l-.49-.31c-.24-.15-.47-.31-.7-.48s-.55-.39-.82-.61a2,2,0,0,1-.24-.19,24,24,0,0,0,3.62.31c.59,0,1.18,0,1.77-.05A24,24,0,0,0,113.06,0H124.3a.13.13,0,0,1,0,.06A24,24,0,0,1,101.92,25.57Z"/><g class="cls-4"><path class="cls-5" d="M83.63,9.75A21.86,21.86,0,0,1,81.91,5a21.73,21.73,0,0,1-.64-5h1.4V0A32,32,0,0,0,83.63,9.75Z"/></g><g class="cls-6"><path class="cls-7" d="M124.31.06a.13.13,0,0,0,0-.06h-1.81a1.1,1.1,0,0,1,0,.18,22.22,22.22,0,0,1-20.71,23.6,22.1,22.1,0,0,1-12.73-3.05A22.19,22.19,0,0,1,78.21,3.07a22.45,22.45,0,0,1,0-3.07h-1.8a22.49,22.49,0,0,0,0,3.18,23.89,23.89,0,0,0,9,17.24,2,2,0,0,0,.24.19c.27.22.54.42.82.61s.46.33.7.48l.49.31c.24.15.48.3.73.44.64.36,1.29.7,2,1,.33.16.68.3,1,.44q1,.41,2.07.72l.14,0c.33.1.67.19,1,.27s.6.14.9.2l.36.07c.29.06.58.11.88.15l.18,0c.24,0,.49.07.74.09.49.06,1,.1,1.48.12s.76,0,1.14,0c.53,0,1.07,0,1.61-.05A24,24,0,0,0,124.31.06Z"/></g></g></g><g class="cls-9"><g id="Монета_-_10-20" data-name="Монета - 10"><circle class="cls-2" cx="200.36" cy="1031.62" r="30"/><path class="cls-3" d="M202.81,1007.75a24,24,0,0,1-16.24,43.51,24,24,0,1,0,16.24-43.51Z"/><g class="cls-4"><path class="cls-5" d="M184.13,1040.71a22.66,22.66,0,0,1-2.92-9.6,16.83,16.83,0,0,1,2.24-10,19.74,19.74,0,0,1,7.55-6.94,16,16,0,0,1,9.87-1.73,19.72,19.72,0,0,0-9.18,3c-.69.41-1.32.9-2,1.37-.31.25-.6.52-.91.78a8.28,8.28,0,0,0-.86.82l-.84.85-.76.92A16.7,16.7,0,0,0,185,1022a8.45,8.45,0,0,0-.56,1,10.32,10.32,0,0,0-.51,1.06,17.05,17.05,0,0,0-.72,2.23,18.61,18.61,0,0,0-.59,4.72A31.87,31.87,0,0,0,184.13,1040.71Z"/></g><g class="cls-6"><path class="cls-7" d="M224.18,1028.66l-.09-.65s0-.08,0-.12a1.13,1.13,0,0,0,0-.18l0-.18c0-.09,0-.19,0-.28l-.12-.65c0-.18-.09-.36-.13-.54s-.11-.46-.17-.68h0q-.1-.4-.24-.81c-.05-.18-.11-.36-.17-.53s-.17-.51-.26-.76a1.17,1.17,0,0,0-.05-.11c-.08-.24-.17-.47-.27-.71l0-.07-.09-.2c-.16-.37-.32-.73-.5-1.09s-.27-.55-.42-.82l0,0c-.11-.22-.24-.44-.37-.65s-.19-.34-.3-.51l-.09-.15q-.22-.36-.45-.69c-.23-.35-.47-.68-.72-1s-.33-.43-.5-.64a22.56,22.56,0,0,0-2.74-2.87l-.75-.65-.76-.59,0,0-.8-.57c-.26-.18-.53-.36-.81-.53l0,0-.83-.5a17.33,17.33,0,0,0-1.76-.92l-.91-.4-.93-.37-.94-.33c-.64-.2-1.29-.38-1.94-.54l-1-.21h0c-.58-.11-1.17-.19-1.76-.25l-.16,0h-.06a24.51,24.51,0,0,0-5.41.06,24,24,0,0,0-10.83,43.45l.75.51c.25.16.5.32.76.47s.52.31.79.45a14.29,14.29,0,0,0,1.46.74l.07,0,0,0h0l.06,0,.8.34h0l.69.27.37.13.62.21.76.23.76.2.77.18.78.16.17,0h.07l.44.07.1,0,.67.08h.1l.61.07h0c.32,0,.63,0,1,.06l1.11,0a23.47,23.47,0,0,0,3-.19A24,24,0,0,0,224.18,1028.66Zm-21.08,25a22.2,22.2,0,1,1,2.49-43.6h0a22.2,22.2,0,0,1-2.5,43.6Z"/></g></g><g id="Монета_-_10-21" data-name="Монета - 10"><circle class="cls-2" cx="200.36" cy="911.62" r="30"/><path class="cls-3" d="M189.15,890.4a24,24,0,0,1,15.1,42.17,24.39,24.39,0,0,1-4.47,3,24,24,0,1,0-10.63-45.22Z"/><g class="cls-4"><path class="cls-5" d="M191.9,928.19a21.37,21.37,0,0,1-4.21-2.73,21.85,21.85,0,0,1-3.55-3.64,16.86,16.86,0,0,1-3.69-9.58,19.72,19.72,0,0,1,2.43-10,16,16,0,0,1,7.26-6.92,19.93,19.93,0,0,0-6,7.55c-.34.72-.59,1.48-.87,2.23-.12.38-.21.76-.32,1.15a8.87,8.87,0,0,0-.26,1.16l-.22,1.17-.13,1.19a16.89,16.89,0,0,0-.08,2.35,8.93,8.93,0,0,0,.1,1.16,7.37,7.37,0,0,0,.17,1.16,14.9,14.9,0,0,0,.64,2.26,18.82,18.82,0,0,0,2.12,4.26A32.34,32.34,0,0,0,191.9,928.19Z"/></g><g class="cls-6"><path class="cls-7" d="M218.53,895.94c-.22-.25-.44-.5-.68-.74s-.21-.23-.33-.35l-.57-.57-.07-.06-.42-.39-.57-.5q-.27-.24-.54-.45l-.52-.41-.27-.2-.27-.19-.09-.07-.63-.43c-.36-.24-.73-.47-1.1-.69a24.49,24.49,0,0,0-2.28-1.17,23.58,23.58,0,0,0-2.37-.91,21.66,21.66,0,0,0-2.45-.66,23,23,0,0,0-2.49-.39,23.8,23.8,0,0,0-4-.09l-.72.06-.72.07-.72.1c-.24,0-.48.07-.71.12l-.71.14c-.19,0-.37.08-.55.12l-.06,0-.16,0-.65.17c-.35.09-.7.2-1,.32l-.68.23c-.36.13-.72.27-1.07.42s-.71.3-1,.47l-.31.14-.51.27,0,0-.06,0a24,24,0,0,0,10.65,45.21,25.9,25.9,0,0,0,2.92-.1l.87-.1q.87-.12,1.74-.3l.86-.2c.76-.2,1.52-.42,2.27-.69L209,934l.55-.22h0a24.28,24.28,0,0,0,3.8-2c.62-.4,1.21-.82,1.8-1.28l.86-.71A24,24,0,0,0,218.53,895.94Zm-3.67,32.49a22.11,22.11,0,0,1-12,5.24h0a22.2,22.2,0,0,1-10.1-42.91h0a22.2,22.2,0,0,1,22.09,37.67Z"/></g></g><g id="Монета_-_10-22" data-name="Монета - 10"><circle class="cls-2" cx="200.36" cy="791.62" r="30"/><path class="cls-3" d="M189.25,770.35a24,24,0,0,1,14.9,42.23,23.39,23.39,0,0,1-4.48,3,24,24,0,1,0-10.42-45.26Z"/><g class="cls-4"><path class="cls-5" d="M191.82,808.15a22.63,22.63,0,0,1-7.73-6.41,16.86,16.86,0,0,1-3.64-9.59,19.74,19.74,0,0,1,2.48-9.95,16,16,0,0,1,7.28-6.87,19.81,19.81,0,0,0-6,7.51c-.34.72-.6,1.48-.88,2.23-.12.37-.21.76-.32,1.14a7.65,7.65,0,0,0-.27,1.17l-.23,1.17-.13,1.18a15.49,15.49,0,0,0-.09,2.35,9.08,9.08,0,0,0,.09,1.17,9.24,9.24,0,0,0,.16,1.16,16.5,16.5,0,0,0,.63,2.26,19,19,0,0,0,2.1,4.26A32.16,32.16,0,0,0,191.82,808.15Z"/></g><g class="cls-6"><path class="cls-7" d="M218.61,776c-.3-.35-.6-.68-.91-1a25.9,25.9,0,0,0-2-1.83,23.88,23.88,0,0,0-2.1-1.57c-.37-.24-.73-.47-1.11-.69s-.75-.42-1.13-.62-.77-.39-1.16-.56-.78-.34-1.18-.5-.8-.3-1.2-.43-.81-.25-1.22-.36l-1.07-.26h0l-.34-.07-.16,0-.9-.16h-.05c-.37-.06-.74-.11-1.12-.15l-.29,0-.82-.06-.46,0a22.8,22.8,0,0,0-2.48,0c-.47,0-.94.07-1.42.13l-.71.09a20.66,20.66,0,0,0-2.81.6l-.69.2-.69.22-.69.25-.66.25-.69.3-.66.31-.66.33h0a24,24,0,0,0,10.41,45.25h.68l.91,0,.54,0h.41l.47,0c.22,0,.44,0,.66-.07l.27,0c.29,0,.59-.08.88-.14s.69-.12,1-.2l1-.23c.34-.09.69-.19,1-.3l1-.34A24,24,0,0,0,218.61,776Zm-3.83,32.47a21.89,21.89,0,0,1-12,5.18h0a22.18,22.18,0,1,1,12-5.18Z"/></g></g><g id="Монета_-_10-23" data-name="Монета - 10"><circle class="cls-2" cx="200.36" cy="671.62" r="30"/><path class="cls-3" d="M192.42,649a24,24,0,0,1,3.82,46.29A24,24,0,1,0,192.42,649Z"/><g class="cls-4"><path class="cls-5" d="M189.54,686.76a21.57,21.57,0,0,1-3.76-3.33,22,22,0,0,1-3-4.12,16.9,16.9,0,0,1-2.23-10,19.85,19.85,0,0,1,3.87-9.49,16.11,16.11,0,0,1,8.2-5.76,19.82,19.82,0,0,0-7.05,6.58,23.59,23.59,0,0,0-1.19,2.07c-.18.35-.32.73-.49,1.09a8.78,8.78,0,0,0-.43,1.11L183.1,666l-.31,1.16a18.85,18.85,0,0,0-.42,2.32,8.92,8.92,0,0,0-.07,1.16,7.62,7.62,0,0,0,0,1.17,16.69,16.69,0,0,0,.3,2.33,18.38,18.38,0,0,0,1.47,4.52A32.18,32.18,0,0,0,189.54,686.76Z"/></g><g class="cls-6"><path class="cls-7" d="M220.65,658.81c-.29-.45-.58-.89-.89-1.32s-.8-1-1.22-1.54l-.65-.72-.67-.69c-.25-.25-.5-.49-.76-.72l-.63-.55c-.25-.21-.5-.42-.76-.61-.11-.1-.23-.18-.35-.27l-.05,0-.12-.09-.14-.1c-.23-.17-.47-.33-.71-.49l-.42-.27-.54-.34-.69-.4c-.31-.17-.62-.34-.94-.5h0c-.42-.21-.85-.41-1.28-.59a9.9,9.9,0,0,0-.95-.38l-.52-.19-.68-.23-.57-.18c-.28-.09-.57-.16-.86-.23l-.72-.17-.73-.15c-.24,0-.49-.09-.73-.12l-.57-.08-.83-.1c-.27,0-.54,0-.82-.06l-.74,0a21.09,21.09,0,0,0-2.75.07l-1,.11-1,.14-.75.14-.26.06-.22.05c-.58.12-1.16.28-1.73.45l-1,.32a23.52,23.52,0,0,0-4.88,2.35,24,24,0,0,0,8.72,43.93c.38.07.77.13,1.15.18l.74.08,1.12.08,1.11,0h1.1q.6,0,1.2-.09l.24,0,.78-.1.79-.12c.82-.15,1.63-.33,2.44-.56.54-.16,1.07-.33,1.61-.52s1.05-.41,1.58-.64,1-.49,1.55-.76,1-.57,1.51-.88A24,24,0,0,0,220.65,658.81Zm-8.43,31.58a22.2,22.2,0,1,1,6.91-30.62A22.11,22.11,0,0,1,212.22,690.39Z"/></g></g><g id="Монета_-_10-24" data-name="Монета - 10"><circle class="cls-2" cx="200.36" cy="551.62" r="30"/><path class="cls-3" d="M196.71,527.91a24,24,0,0,1-4.74,46.2,24,24,0,1,0,4.74-46.2Z"/><g class="cls-4"><path class="cls-5" d="M187,564.52A22.64,22.64,0,0,1,181.7,556a16.86,16.86,0,0,1-.36-10.26,19.81,19.81,0,0,1,5.55-8.61,16,16,0,0,1,9.12-4.17,19.79,19.79,0,0,0-8.14,5.18c-.56.56-1.05,1.2-1.55,1.81-.24.32-.45.66-.68,1a9.49,9.49,0,0,0-.63,1l-.59,1-.51,1.08a17.4,17.4,0,0,0-.84,2.2,8.92,8.92,0,0,0-.29,1.13,9.31,9.31,0,0,0-.22,1.15,16.75,16.75,0,0,0-.14,2.35,19,19,0,0,0,.62,4.71A32.3,32.3,0,0,0,187,564.52Z"/></g><g class="cls-6"><path class="cls-7" d="M222.66,542.75A24.77,24.77,0,0,0,221,539.4c-.32-.53-.65-1-1-1.54s-.71-1-1.09-1.44-.78-.91-1.19-1.34l-.63-.64c-.25-.24-.5-.48-.76-.7l-.38-.34c-.25-.21-.5-.42-.76-.62l-.11-.09c-.46-.36-.93-.7-1.42-1h0l-.74-.47c-.15-.1-.31-.19-.47-.28a4.4,4.4,0,0,0-.56-.31l-.57-.31c-.5-.27-1-.5-1.52-.72l-.71-.29-.33-.12-.8-.28-.52-.17-.22-.07-.74-.21c-.28-.08-.57-.15-.85-.21q-.87-.19-1.74-.33l-.88-.11-.87-.08-.31,0a1.71,1.71,0,0,0-.32,0l-.48,0c-.23,0-.45,0-.68,0h-.48l-.43,0-.92.05-.92.09-.91.12a24,24,0,0,0-4.74,46.2c.31.12.62.22.94.33l.89.27h0l.08,0a.38.38,0,0,1,.1,0l.48.12.74.18.86.17,1,.17h.08c.27,0,.54.07.82.09l.66,0c.13,0,.26,0,.4,0l.4,0a24,24,0,0,0,23.18-32.86Zm-14.09,29.5A22.2,22.2,0,1,1,192.15,531a21.75,21.75,0,0,1,7.85-1.57,22.2,22.2,0,0,1,8.57,42.82Z"/></g></g><g id="Монета_-_10-25" data-name="Монета - 10"><circle class="cls-2" cx="200.36" cy="431.62" r="30"/><path class="cls-3" d="M200.63,407.63a24,24,0,0,1-6.83,44.26,24.24,24.24,0,0,1-5.39.55,24,24,0,1,0,12.22-44.81Z"/><g class="cls-4"><path class="cls-5" d="M185,442.15a20.68,20.68,0,0,1-2.4-4.41,21.55,21.55,0,0,1-1.39-4.89,16.8,16.8,0,0,1,1.33-10.17,19.77,19.77,0,0,1,6.88-7.6,16,16,0,0,1,9.67-2.61,19.69,19.69,0,0,0-8.87,3.77c-.65.47-1.23,1-1.83,1.54-.29.27-.55.57-.83.86a7.42,7.42,0,0,0-.78.89l-.76.93-.68,1a17.35,17.35,0,0,0-1.19,2,8.41,8.41,0,0,0-.46,1.07,7.28,7.28,0,0,0-.41,1.1,15.85,15.85,0,0,0-.52,2.29,18.83,18.83,0,0,0-.16,4.75A31.88,31.88,0,0,0,185,442.15Z"/></g><g class="cls-6"><path class="cls-7" d="M223.81,426.51c-.08-.35-.16-.7-.25-1s-.19-.68-.3-1-.21-.67-.33-1a24.17,24.17,0,0,0-1.74-3.75c-.17-.29-.33-.57-.51-.85s-.35-.56-.53-.82l0,0c-.19-.28-.39-.55-.59-.82l-.63-.79c-.22-.27-.44-.52-.66-.77s-.66-.71-1-1.05l-.53-.5-.53-.48c-.23-.2-.46-.4-.7-.59l-.14-.11c-.29-.23-.57-.45-.87-.66s-.5-.36-.76-.53-.47-.31-.72-.46a6.16,6.16,0,0,0-.55-.33,5.54,5.54,0,0,0-.53-.3l-.64-.34-.63-.31-.48-.22c-.23-.11-.47-.21-.7-.3s-.61-.25-.92-.36l-.95-.32-1-.28c-.32-.09-.64-.17-1-.24l-1-.2c-.33-.06-.66-.12-1-.16s-.67-.09-1-.12l-1-.08q-.51,0-1,0h0a23.24,23.24,0,0,0-5.4.54,24,24,0,0,0-6.81,44.26l.09.06,0,0,.07,0,.06,0c.3.17.61.33.92.49l.91.43c.3.14.61.27.92.39s.55.22.84.32l.81.28c.34.11.69.21,1,.3l.54.14.63.14a5.05,5.05,0,0,0,.56.12l.14,0c.78.14,1.57.25,2.37.32h.19l.67,0h.14l1,0a24,24,0,0,0,23.47-29.12Zm-18.72,26.8a22.19,22.19,0,1,1,17-26.42A22,22,0,0,1,205.09,453.31Z"/></g></g><g id="Монета_-_10-26" data-name="Монета - 10"><circle class="cls-2" cx="200.36" cy="311.62" r="30"/><path class="cls-3" d="M193.51,288.62a24,24,0,0,1,6.58,44.3,23.53,23.53,0,0,1-5,2.12,24,24,0,1,0-1.6-46.42Z"/><g class="cls-4"><path class="cls-5" d="M188.83,326.22a21.65,21.65,0,0,1-3.6-3.5,21.94,21.94,0,0,1-2.77-4.26,16.82,16.82,0,0,1-1.74-10.11,19.72,19.72,0,0,1,4.32-9.29,16,16,0,0,1,8.46-5.37,19.85,19.85,0,0,0-7.36,6.23c-.48.64-.87,1.34-1.29,2-.19.34-.35.71-.54,1.06a10.59,10.59,0,0,0-.48,1.09l-.45,1.11-.35,1.14a16.89,16.89,0,0,0-.54,2.29,9,9,0,0,0-.13,1.16,9.17,9.17,0,0,0-.06,1.17,15.38,15.38,0,0,0,.19,2.34,18.73,18.73,0,0,0,1.25,4.59A32.09,32.09,0,0,0,188.83,326.22Z"/></g><g class="cls-6"><path class="cls-7" d="M221.24,299.79c-.28-.49-.57-1-.87-1.42a24.38,24.38,0,0,0-2-2.6c-.36-.4-.73-.79-1.1-1.17l-.66-.62c-.14-.14-.29-.27-.44-.4l-.07-.06-.74-.62-.84-.64q-.45-.35-.93-.66h0c-.29-.2-.6-.39-.9-.57s-.9-.52-1.37-.76l-.71-.35-.72-.32-1-.41-.23-.09-.66-.23c-.47-.16-.95-.3-1.43-.42s-.75-.2-1.13-.28-.63-.13-.94-.18l-.66-.11c-.39-.06-.77-.11-1.16-.15h0l-1.16-.08-1.17,0h0l-.85,0c-.22,0-.45,0-.67,0l-.64.05-.52,0-.73.1h0l-.84.14c-.53.1-1.05.21-1.57.34l-.29.07-.69.2a23.75,23.75,0,0,0-5,2.12,24,24,0,0,0,6.58,44.3l.93.19.19,0c.1,0,.21,0,.31.06.39.06.79.12,1.18.16s.88.09,1.33.11.89,0,1.33,0l.94,0,.58,0q.36,0,.72-.06a5.42,5.42,0,0,0,.58-.06c.32,0,.63-.08.94-.13s.63-.1.94-.17L206,335l.69-.18.43-.12.74-.23c.49-.16,1-.34,1.46-.54h0c.48-.2,1-.41,1.44-.64s.94-.47,1.41-.74A24,24,0,0,0,221.24,299.79Zm-9.93,31.15a22,22,0,0,1-12.77,2.79h0a22.17,22.17,0,1,1,12.78-2.79Z"/></g></g><g id="Монета_-_10-27" data-name="Монета - 10"><circle class="cls-2" cx="200.36" cy="191.62" r="30"/><path class="cls-3" d="M203.45,167.82a24,24,0,0,1-12,43.16,24.39,24.39,0,0,1-5.41-.09,24,24,0,1,0,17.4-43.07Z"/><g class="cls-4"><path class="cls-5" d="M183.89,200.28a22,22,0,0,1-1.86-4.67,21.56,21.56,0,0,1-.8-5,16.82,16.82,0,0,1,2.51-9.94,19.7,19.7,0,0,1,7.73-6.74,16.06,16.06,0,0,1,9.91-1.46,19.7,19.7,0,0,0-9.26,2.71,23.53,23.53,0,0,0-2,1.31c-.32.24-.62.5-.93.75a11.13,11.13,0,0,0-.88.8l-.86.83-.79.9a19.19,19.19,0,0,0-1.42,1.87,20.37,20.37,0,0,0-1.12,2,15.79,15.79,0,0,0-.78,2.22,18.88,18.88,0,0,0-.72,4.7A32.28,32.28,0,0,0,183.89,200.28Z"/></g><g class="cls-6"><path class="cls-7" d="M224.25,189.3c-.07-.71-.17-1.4-.3-2.09,0-.24-.09-.47-.14-.7l-.12-.53c-.07-.29-.14-.58-.23-.86s-.12-.44-.19-.65-.1-.32-.15-.47-.17-.52-.27-.77-.24-.64-.38-.95-.26-.61-.41-.91h0c-.18-.38-.37-.75-.57-1.12s-.34-.63-.53-.93c-.07-.12-.14-.24-.22-.35a6.37,6.37,0,0,0-.35-.55l-.35-.52c-.19-.27-.38-.54-.59-.81l-.62-.78-.65-.75-.68-.72c-.23-.24-.47-.47-.71-.69s-.56-.52-.85-.77l-.65-.53c-.23-.19-.47-.37-.71-.54l-.29-.21c-.16-.12-.31-.23-.47-.33a3.37,3.37,0,0,0-.31-.21l0,0c-.21-.14-.41-.27-.62-.39s-.57-.34-.86-.5-.58-.32-.88-.47-.59-.29-.89-.42l-.2-.09-.72-.31-.61-.23-.53-.2h0c-.42-.14-.86-.28-1.3-.4a5.87,5.87,0,0,0-.6-.16l-.07,0h0l-.69-.16c-.3-.07-.61-.13-.92-.18l-.27-.05-.74-.11h-.08a24,24,0,0,0-17.39,43.07c.27.2.54.4.82.59s.57.37.86.55c.62.38,1.25.74,1.9,1.06l.78.38.18.08.12,0,.91.38c.68.26,1.37.5,2.08.7l.59.16.47.12a4.87,4.87,0,0,0,.52.12l.49.1h0l.18,0,.82.14.23,0h0q.51.08,1,.12c.38,0,.75.07,1.13.08s.75,0,1.13,0a23.43,23.43,0,0,0,2.36-.11A24,24,0,0,0,224.25,189.3Zm-21.74,24.42a22.09,22.09,0,0,1-12.82-2.64h0a22.19,22.19,0,0,1,8.53-41.55,21.92,21.92,0,0,1,8,.68,22.2,22.2,0,0,1-3.69,43.51Z"/></g></g><g id="Монета_-_10-28" data-name="Монета - 10"><circle class="cls-2" cx="200.32" cy="71.66" r="30"/><path class="cls-3" d="M205.63,48.26a24,24,0,0,1-16,41.84,24.44,24.44,0,0,1-5.38-.6,24,24,0,1,0,21.36-41.24Z"/><g class="cls-4"><path class="cls-5" d="M183.12,78.73a21,21,0,0,1-1.42-4.81,21.54,21.54,0,0,1-.33-5.08,16.83,16.83,0,0,1,3.44-9.66,19.7,19.7,0,0,1,8.32-6,16,16,0,0,1,10-.53,19.85,19.85,0,0,0-9.47,1.82c-.73.33-1.42.74-2.11,1.13-.34.2-.66.44-1,.66a7.44,7.44,0,0,0-1,.71l-.93.75-.87.82a16.13,16.13,0,0,0-1.59,1.73,9.11,9.11,0,0,0-.68,1,7.89,7.89,0,0,0-.63,1,15.88,15.88,0,0,0-1,2.13A18.33,18.33,0,0,0,182.77,69,32.09,32.09,0,0,0,183.12,78.73Z"/></g><g class="cls-6"><path class="cls-7" d="M224.29,70.53c0-.31,0-.61-.06-.91a1.23,1.23,0,0,0,0-.2c0-.27-.05-.53-.09-.79v0a1.55,1.55,0,0,0,0-.31c0-.23-.06-.46-.11-.69s0-.27-.07-.41-.09-.45-.14-.68-.1-.43-.15-.64-.1-.41-.16-.62h0l0-.15c-.05-.18-.1-.37-.16-.55l-.18-.54a.44.44,0,0,0-.05-.15c-.11-.34-.23-.67-.37-1s-.14-.37-.22-.55-.24-.56-.37-.84l-.33-.67a1.09,1.09,0,0,0-.08-.15l0,0c-.13-.26-.26-.51-.41-.76s-.33-.58-.51-.86-.38-.6-.58-.89l-.54-.75-.61-.78-.58-.69-.08-.09c-.21-.24-.43-.47-.65-.7s-.46-.48-.7-.7a18,18,0,0,0-1.39-1.25l-.09-.07-.79-.61c-.26-.2-.53-.39-.81-.58q-.83-.55-1.68-1l-.88-.48c-.29-.15-.59-.3-.9-.44a16.91,16.91,0,0,0-1.86-.77,18,18,0,0,0-1.93-.61l-1-.25a23.29,23.29,0,0,0-5.38-.6,24,24,0,0,0-16,41.84c.34.31.68.6,1,.88.2.17.41.33.62.48s.43.32.66.48.4.27.6.41l.08,0,.33.21a3.87,3.87,0,0,0,.34.21l.06,0,.83.48.76.39.43.21.14.06c.23.12.47.22.71.32l.1,0,.09,0a3.38,3.38,0,0,0,.44.18l.34.13.09,0c.28.11.57.21.86.3s.5.16.75.24l.3.08.75.2.91.2c.39.08.78.15,1.18.21s.51.08.77.1l.58.07a23.22,23.22,0,0,0,2.37.11,24,24,0,0,0,23.92-24.07C224.32,71.23,224.31,70.88,224.29,70.53Zm-23.9,23.33a22.2,22.2,0,1,1,7.74-43h0a22.2,22.2,0,0,1-7.75,43Z"/></g></g></g><g class="cls-10"><g id="Монета_-_10-29" data-name="Монета - 10"><circle class="cls-2" cx="400.36" cy="1031.62" r="30"/><path class="cls-3" d="M402.81,1007.75a24,24,0,0,1-16.24,43.51,24,24,0,1,0,16.24-43.51Z"/><g class="cls-4"><path class="cls-5" d="M384.13,1040.71a22.66,22.66,0,0,1-2.92-9.6,16.83,16.83,0,0,1,2.24-10,19.74,19.74,0,0,1,7.55-6.94,16,16,0,0,1,9.87-1.73,19.72,19.72,0,0,0-9.18,3c-.69.41-1.32.9-2,1.37-.31.25-.6.52-.91.78a8.28,8.28,0,0,0-.86.82l-.84.85-.76.92A16.7,16.7,0,0,0,385,1022a8.45,8.45,0,0,0-.56,1,10.32,10.32,0,0,0-.51,1.06,17.05,17.05,0,0,0-.72,2.23,18.61,18.61,0,0,0-.59,4.72A31.87,31.87,0,0,0,384.13,1040.71Z"/></g><g class="cls-6"><path class="cls-7" d="M424.18,1028.66l-.09-.65s0-.08,0-.12a1.13,1.13,0,0,0,0-.18l0-.18c0-.09,0-.19-.05-.28l-.12-.65c0-.18-.09-.36-.13-.54s-.11-.46-.17-.68h0q-.1-.4-.24-.81c-.05-.18-.11-.36-.17-.53s-.17-.51-.26-.76a1.17,1.17,0,0,0-.05-.11c-.08-.24-.17-.47-.27-.71l0-.07-.09-.2c-.16-.37-.32-.73-.5-1.09s-.27-.55-.42-.82l0,0c-.11-.22-.24-.44-.37-.65s-.19-.34-.3-.51l-.09-.15-.45-.69c-.23-.35-.47-.68-.72-1s-.33-.43-.5-.64a22.56,22.56,0,0,0-2.74-2.87l-.75-.65-.76-.59,0,0-.8-.57c-.26-.18-.53-.36-.81-.53l0,0-.83-.5a17.33,17.33,0,0,0-1.76-.92l-.91-.4-.93-.37-.94-.33c-.64-.2-1.29-.38-1.94-.54l-1-.21h0c-.58-.11-1.17-.19-1.76-.25l-.16,0h-.06a24.51,24.51,0,0,0-5.41.06,24,24,0,0,0-10.83,43.45l.75.51c.25.16.5.32.76.47s.52.31.79.45a14.29,14.29,0,0,0,1.46.74l.07,0,0,0h0l.06,0,.8.34h0l.69.27.37.13.62.21.76.23.76.2.77.18.78.16.17,0h.07l.44.07.1,0,.67.08h.1l.61.07h0c.32,0,.63,0,.95.06l1.11,0a23.47,23.47,0,0,0,3-.19A24,24,0,0,0,424.18,1028.66Zm-21.08,25a22.2,22.2,0,1,1,2.49-43.6h0a22.2,22.2,0,0,1-2.5,43.6Z"/></g></g><g id="Монета_-_10-30" data-name="Монета - 10"><circle class="cls-2" cx="400.36" cy="911.62" r="30"/><path class="cls-3" d="M389.15,890.4a24,24,0,0,1,15.1,42.17,24.39,24.39,0,0,1-4.47,3,24,24,0,1,0-10.63-45.22Z"/><g class="cls-4"><path class="cls-5" d="M391.9,928.19a21.37,21.37,0,0,1-4.21-2.73,21.85,21.85,0,0,1-3.55-3.64,16.86,16.86,0,0,1-3.69-9.58,19.72,19.72,0,0,1,2.43-10,16,16,0,0,1,7.26-6.92,19.93,19.93,0,0,0-6,7.55c-.34.72-.59,1.48-.87,2.23-.12.38-.21.76-.32,1.15a8.87,8.87,0,0,0-.26,1.16l-.22,1.17-.13,1.19a16.89,16.89,0,0,0-.08,2.35,8.93,8.93,0,0,0,.1,1.16,7.37,7.37,0,0,0,.17,1.16,14.9,14.9,0,0,0,.64,2.26,18.82,18.82,0,0,0,2.12,4.26A32.34,32.34,0,0,0,391.9,928.19Z"/></g><g class="cls-6"><path class="cls-7" d="M418.53,895.94c-.22-.25-.44-.5-.68-.74s-.21-.23-.33-.35l-.57-.57-.07-.06-.42-.39-.57-.5q-.27-.24-.54-.45l-.52-.41-.27-.2-.27-.19-.09-.07-.63-.43c-.36-.24-.73-.47-1.1-.69a24.49,24.49,0,0,0-2.28-1.17,23.58,23.58,0,0,0-2.37-.91,21.66,21.66,0,0,0-2.45-.66,23,23,0,0,0-2.49-.39,23.8,23.8,0,0,0-4-.09l-.72.06-.72.07-.72.1c-.24,0-.48.07-.71.12l-.71.14c-.19,0-.37.08-.55.12l-.06,0-.16,0-.65.17c-.35.09-.7.2-1,.32l-.68.23c-.36.13-.72.27-1.07.42s-.71.3-1.05.47l-.31.14-.51.27-.05,0-.06,0a24,24,0,0,0,10.65,45.21,25.9,25.9,0,0,0,2.92-.1l.87-.1q.87-.12,1.74-.3l.86-.2c.76-.2,1.52-.42,2.27-.69L409,934l.55-.22h0a24.28,24.28,0,0,0,3.8-2c.62-.4,1.21-.82,1.8-1.28l.86-.71A24,24,0,0,0,418.53,895.94Zm-3.67,32.49a22.11,22.11,0,0,1-12,5.24h0a22.2,22.2,0,0,1-10.1-42.91h0a22.2,22.2,0,0,1,22.09,37.67Z"/></g></g><g id="Монета_-_10-31" data-name="Монета - 10"><circle class="cls-2" cx="400.36" cy="791.62" r="30"/><path class="cls-3" d="M389.25,770.35a24,24,0,0,1,14.9,42.23,23.39,23.39,0,0,1-4.48,3,24,24,0,1,0-10.42-45.26Z"/><g class="cls-4"><path class="cls-5" d="M391.82,808.15a22.63,22.63,0,0,1-7.73-6.41,16.86,16.86,0,0,1-3.64-9.59,19.74,19.74,0,0,1,2.48-9.95,16,16,0,0,1,7.28-6.87,19.81,19.81,0,0,0-6,7.51c-.34.72-.6,1.48-.88,2.23-.12.37-.21.76-.32,1.14a7.65,7.65,0,0,0-.27,1.17l-.23,1.17-.13,1.18a15.49,15.49,0,0,0-.09,2.35,9.08,9.08,0,0,0,.09,1.17,9.24,9.24,0,0,0,.16,1.16,16.5,16.5,0,0,0,.63,2.26,19,19,0,0,0,2.1,4.26A32.16,32.16,0,0,0,391.82,808.15Z"/></g><g class="cls-6"><path class="cls-7" d="M418.61,776c-.3-.35-.6-.68-.91-1a25.9,25.9,0,0,0-2-1.83,23.88,23.88,0,0,0-2.1-1.57c-.37-.24-.73-.47-1.11-.69s-.75-.42-1.13-.62-.77-.39-1.16-.56-.78-.34-1.18-.5-.8-.3-1.2-.43-.81-.25-1.22-.36l-1.07-.26h0l-.34-.07-.16,0-.9-.16h0c-.37-.06-.74-.11-1.12-.15l-.29,0-.82-.06-.46,0a22.8,22.8,0,0,0-2.48,0c-.47,0-.94.07-1.42.13l-.71.09a20.66,20.66,0,0,0-2.81.6l-.69.2-.69.22-.69.25-.66.25-.69.3-.66.31-.66.33h0a24,24,0,0,0,10.41,45.25h.68l.91,0,.54,0h.41l.47,0c.22,0,.44,0,.66-.07l.27,0c.29,0,.59-.08.88-.14s.69-.12,1-.2l1-.23c.34-.09.69-.19,1-.3l1-.34A24,24,0,0,0,418.61,776Zm-3.83,32.47a21.89,21.89,0,0,1-12,5.18h0a22.18,22.18,0,1,1,12-5.18Z"/></g></g><g id="Монета_-_10-32" data-name="Монета - 10"><circle class="cls-2" cx="400.36" cy="671.62" r="30"/><path class="cls-3" d="M392.42,649a24,24,0,0,1,3.82,46.29A24,24,0,1,0,392.42,649Z"/><g class="cls-4"><path class="cls-5" d="M389.54,686.76a21.57,21.57,0,0,1-3.76-3.33,22,22,0,0,1-3-4.12,16.9,16.9,0,0,1-2.23-10,19.85,19.85,0,0,1,3.87-9.49,16.11,16.11,0,0,1,8.2-5.76,19.82,19.82,0,0,0-7,6.58,23.59,23.59,0,0,0-1.19,2.07c-.18.35-.32.73-.49,1.09a8.78,8.78,0,0,0-.43,1.11L383.1,666l-.31,1.16a18.85,18.85,0,0,0-.42,2.32,8.92,8.92,0,0,0-.07,1.16,7.62,7.62,0,0,0,0,1.17,16.69,16.69,0,0,0,.3,2.33,18.38,18.38,0,0,0,1.47,4.52A32.18,32.18,0,0,0,389.54,686.76Z"/></g><g class="cls-6"><path class="cls-7" d="M420.65,658.81c-.29-.45-.58-.89-.89-1.32s-.8-1-1.22-1.54l-.65-.72-.67-.69c-.25-.25-.5-.49-.76-.72l-.63-.55c-.25-.21-.5-.42-.76-.61s-.23-.18-.35-.27l-.05,0-.12-.09-.14-.1c-.23-.17-.47-.33-.71-.49l-.42-.27-.54-.34-.69-.4c-.31-.17-.62-.34-.94-.5h0c-.42-.21-.85-.41-1.28-.59a9.9,9.9,0,0,0-.95-.38l-.52-.19-.68-.23-.57-.18c-.28-.09-.57-.16-.86-.23l-.72-.17-.73-.15c-.24,0-.49-.09-.73-.12l-.57-.08-.83-.1c-.27,0-.54,0-.82-.06l-.74,0a21.09,21.09,0,0,0-2.75.07l-1,.11-1,.14-.75.14-.26.06-.22.05c-.58.12-1.16.28-1.73.45l-1,.32a23.52,23.52,0,0,0-4.88,2.35,24,24,0,0,0,8.72,43.93c.38.07.77.13,1.15.18l.74.08,1.12.08,1.11,0h1.1q.6,0,1.2-.09l.24,0,.78-.1.79-.12c.82-.15,1.63-.33,2.44-.56.54-.16,1.07-.33,1.61-.52s1-.41,1.58-.64,1-.49,1.55-.76,1-.57,1.51-.88A24,24,0,0,0,420.65,658.81Zm-8.43,31.58a22.2,22.2,0,1,1,6.91-30.62A22.11,22.11,0,0,1,412.22,690.39Z"/></g></g><g id="Монета_-_10-33" data-name="Монета - 10"><circle class="cls-2" cx="400.36" cy="551.62" r="30"/><path class="cls-3" d="M396.71,527.91a24,24,0,0,1-4.74,46.2,24,24,0,1,0,4.74-46.2Z"/><g class="cls-4"><path class="cls-5" d="M387,564.52A22.64,22.64,0,0,1,381.7,556a16.86,16.86,0,0,1-.36-10.26,19.81,19.81,0,0,1,5.55-8.61,16,16,0,0,1,9.12-4.17,19.79,19.79,0,0,0-8.14,5.18c-.56.56-1.05,1.2-1.55,1.81-.24.32-.45.66-.68,1a9.49,9.49,0,0,0-.63,1l-.59,1-.51,1.08a17.4,17.4,0,0,0-.84,2.2,8.92,8.92,0,0,0-.29,1.13,9.31,9.31,0,0,0-.22,1.15,16.75,16.75,0,0,0-.14,2.35,19,19,0,0,0,.62,4.71A32.3,32.3,0,0,0,387,564.52Z"/></g><g class="cls-6"><path class="cls-7" d="M422.66,542.75A24.77,24.77,0,0,0,421,539.4c-.32-.53-.65-1-1-1.54s-.71-1-1.09-1.44-.78-.91-1.19-1.34l-.63-.64c-.25-.24-.5-.48-.76-.7l-.38-.34c-.25-.21-.5-.42-.76-.62l-.11-.09c-.46-.36-.93-.7-1.42-1h0l-.74-.47c-.15-.1-.31-.19-.47-.28a4.4,4.4,0,0,0-.56-.31l-.57-.31c-.5-.27-1-.5-1.52-.72l-.71-.29-.33-.12-.8-.28-.52-.17-.22-.07-.74-.21c-.28-.08-.57-.15-.85-.21q-.87-.19-1.74-.33l-.88-.11-.87-.08-.31,0a1.71,1.71,0,0,0-.32,0l-.48,0c-.23,0-.45,0-.68,0h-.48l-.43,0-.92.05-.92.09-.91.12a24,24,0,0,0-4.74,46.2c.31.12.62.22.94.33l.89.27h0l.08,0a.38.38,0,0,1,.1,0l.48.12.74.18.86.17,1,.17h.08c.27,0,.54.07.82.09l.66,0c.13,0,.26,0,.4,0l.4,0a24,24,0,0,0,23.18-32.86Zm-14.09,29.5A22.2,22.2,0,1,1,392.15,531a21.75,21.75,0,0,1,7.85-1.57,22.2,22.2,0,0,1,8.57,42.82Z"/></g></g><g id="Монета_-_10-34" data-name="Монета - 10"><circle class="cls-2" cx="400.36" cy="431.62" r="30"/><path class="cls-3" d="M400.63,407.63a24,24,0,0,1-6.83,44.26,24.24,24.24,0,0,1-5.39.55,24,24,0,1,0,12.22-44.81Z"/><g class="cls-4"><path class="cls-5" d="M385,442.15a20.68,20.68,0,0,1-2.4-4.41,21.55,21.55,0,0,1-1.39-4.89,16.8,16.8,0,0,1,1.33-10.17,19.77,19.77,0,0,1,6.88-7.6,16,16,0,0,1,9.67-2.61,19.69,19.69,0,0,0-8.87,3.77c-.65.47-1.23,1-1.83,1.54-.29.27-.55.57-.83.86a7.42,7.42,0,0,0-.78.89l-.76.93-.68,1a17.35,17.35,0,0,0-1.19,2,8.41,8.41,0,0,0-.46,1.07,7.28,7.28,0,0,0-.41,1.1,15.85,15.85,0,0,0-.52,2.29,18.83,18.83,0,0,0-.16,4.75A31.88,31.88,0,0,0,385,442.15Z"/></g><g class="cls-6"><path class="cls-7" d="M423.81,426.51c-.08-.35-.16-.7-.25-1s-.19-.68-.3-1-.21-.67-.33-1a24.17,24.17,0,0,0-1.74-3.75c-.17-.29-.33-.57-.51-.85s-.35-.56-.53-.82l0,0c-.19-.28-.39-.55-.59-.82l-.63-.79c-.22-.27-.44-.52-.66-.77s-.66-.71-1-1.05l-.53-.5-.53-.48c-.23-.2-.46-.4-.7-.59l-.14-.11c-.29-.23-.57-.45-.87-.66s-.5-.36-.76-.53-.47-.31-.72-.46a6.16,6.16,0,0,0-.55-.33,5.54,5.54,0,0,0-.53-.3l-.64-.34-.63-.31-.48-.22c-.23-.11-.47-.21-.7-.3s-.61-.25-.92-.36l-.95-.32-1-.28c-.32-.09-.64-.17-1-.24l-1-.2c-.33-.06-.66-.12-1-.16s-.67-.09-1-.12l-1-.08q-.51,0-1,0h0a23.24,23.24,0,0,0-5.4.54,24,24,0,0,0-6.81,44.26l.09.06,0,0,.07,0,.06,0c.3.17.61.33.92.49l.91.43c.3.14.61.27.92.39s.55.22.84.32l.81.28c.34.11.69.21,1,.3l.54.14.63.14a5.05,5.05,0,0,0,.56.12l.14,0c.78.14,1.57.25,2.37.32h.19l.67,0h.14l1,0a24,24,0,0,0,23.47-29.12Zm-18.72,26.8a22.19,22.19,0,1,1,17-26.42A22,22,0,0,1,405.09,453.31Z"/></g></g><g id="Монета_-_10-35" data-name="Монета - 10"><circle class="cls-2" cx="400.36" cy="311.62" r="30"/><path class="cls-3" d="M393.51,288.62a24,24,0,0,1,6.58,44.3,23.53,23.53,0,0,1-5,2.12,24,24,0,1,0-1.6-46.42Z"/><g class="cls-4"><path class="cls-5" d="M388.83,326.22a21.65,21.65,0,0,1-3.6-3.5,21.94,21.94,0,0,1-2.77-4.26,16.82,16.82,0,0,1-1.74-10.11,19.72,19.72,0,0,1,4.32-9.29,16,16,0,0,1,8.46-5.37,19.85,19.85,0,0,0-7.36,6.23c-.48.64-.87,1.34-1.29,2-.19.34-.35.71-.54,1.06a10.59,10.59,0,0,0-.48,1.09l-.45,1.11-.35,1.14a16.89,16.89,0,0,0-.54,2.29,9,9,0,0,0-.13,1.16,9.17,9.17,0,0,0-.06,1.17,15.38,15.38,0,0,0,.19,2.34,18.73,18.73,0,0,0,1.25,4.59A32.09,32.09,0,0,0,388.83,326.22Z"/></g><g class="cls-6"><path class="cls-7" d="M421.24,299.79c-.28-.49-.57-1-.87-1.42a24.38,24.38,0,0,0-2-2.6c-.36-.4-.73-.79-1.1-1.17l-.66-.62c-.14-.14-.29-.27-.44-.4l-.07-.06-.74-.62-.84-.64q-.45-.35-.93-.66h0c-.29-.2-.6-.39-.9-.57s-.9-.52-1.37-.76l-.71-.35-.72-.32-1-.41-.23-.09-.66-.23c-.47-.16-.95-.3-1.43-.42s-.75-.2-1.13-.28-.63-.13-.94-.18l-.66-.11c-.39-.06-.77-.11-1.16-.15h0l-1.16-.08-1.17,0h0l-.85,0c-.22,0-.45,0-.67,0l-.64.05-.52,0-.73.1h0l-.84.14c-.53.1-1.05.21-1.57.34l-.29.07-.69.2a23.75,23.75,0,0,0-5,2.12,24,24,0,0,0,6.58,44.3l.93.19.19,0c.1,0,.21,0,.31.06.39.06.79.12,1.18.16s.88.09,1.33.11.89,0,1.33,0l.94,0,.58,0q.36,0,.72-.06a5.42,5.42,0,0,0,.58-.06c.32,0,.63-.08.94-.13s.63-.1.94-.17L406,335l.69-.18.43-.12.74-.23c.49-.16,1-.34,1.46-.54h0c.48-.2,1-.41,1.44-.64s.94-.47,1.41-.74A24,24,0,0,0,421.24,299.79Zm-9.93,31.15a22,22,0,0,1-12.77,2.79h0a22.17,22.17,0,1,1,12.78-2.79Z"/></g></g><g id="Монета_-_10-36" data-name="Монета - 10"><circle class="cls-2" cx="400.36" cy="191.62" r="30"/><path class="cls-3" d="M403.45,167.82a24,24,0,0,1-12,43.16,24.39,24.39,0,0,1-5.41-.09,24,24,0,1,0,17.4-43.07Z"/><g class="cls-4"><path class="cls-5" d="M383.89,200.28a22,22,0,0,1-1.86-4.67,21.56,21.56,0,0,1-.8-5,16.82,16.82,0,0,1,2.51-9.94,19.7,19.7,0,0,1,7.73-6.74,16.06,16.06,0,0,1,9.91-1.46,19.7,19.7,0,0,0-9.26,2.71,23.53,23.53,0,0,0-2,1.31c-.32.24-.62.5-.93.75a11.13,11.13,0,0,0-.88.8l-.86.83-.79.9a19.19,19.19,0,0,0-1.42,1.87,20.37,20.37,0,0,0-1.12,2,15.79,15.79,0,0,0-.78,2.22,18.88,18.88,0,0,0-.72,4.7A32.28,32.28,0,0,0,383.89,200.28Z"/></g><g class="cls-6"><path class="cls-7" d="M424.25,189.3c-.07-.71-.17-1.4-.3-2.09,0-.24-.09-.47-.14-.7l-.12-.53c-.07-.29-.14-.58-.23-.86s-.12-.44-.19-.65-.1-.32-.15-.47-.17-.52-.27-.77-.24-.64-.38-.95-.26-.61-.41-.91h0c-.18-.38-.37-.75-.57-1.12s-.34-.63-.53-.93c-.07-.12-.14-.24-.22-.35a6.37,6.37,0,0,0-.35-.55l-.35-.52c-.19-.27-.38-.54-.59-.81l-.62-.78-.65-.75-.68-.72c-.23-.24-.47-.47-.71-.69s-.56-.52-.85-.77l-.65-.53c-.23-.19-.47-.37-.71-.54l-.29-.21c-.16-.12-.31-.23-.47-.33a3.37,3.37,0,0,0-.31-.21l0,0c-.21-.14-.41-.27-.62-.39s-.57-.34-.86-.5-.58-.32-.88-.47-.59-.29-.89-.42l-.2-.09-.72-.31-.61-.23-.53-.2h0c-.42-.14-.86-.28-1.3-.4a5.87,5.87,0,0,0-.6-.16l-.07,0h0l-.69-.16c-.3-.07-.61-.13-.92-.18l-.27-.05-.74-.11h-.08a24,24,0,0,0-17.39,43.07c.27.2.54.4.82.59s.57.37.86.55c.62.38,1.25.74,1.9,1.06l.78.38.18.08.12,0,.91.38c.68.26,1.37.5,2.08.7l.59.16.47.12a4.87,4.87,0,0,0,.52.12l.49.1h0l.18,0,.82.14.23,0h0q.51.08,1,.12c.38,0,.75.07,1.13.08s.75,0,1.13,0a23.43,23.43,0,0,0,2.36-.11A24,24,0,0,0,424.25,189.3Zm-21.74,24.42a22.09,22.09,0,0,1-12.82-2.64h0a22.19,22.19,0,0,1,8.53-41.55,21.92,21.92,0,0,1,8,.68,22.2,22.2,0,0,1-3.69,43.51Z"/></g></g><g id="Монета_-_10-37" data-name="Монета - 10"><circle class="cls-2" cx="400.32" cy="71.66" r="30"/><path class="cls-3" d="M405.63,48.26a24,24,0,0,1-16,41.84,24.44,24.44,0,0,1-5.38-.6,24,24,0,1,0,21.36-41.24Z"/><g class="cls-4"><path class="cls-5" d="M383.12,78.73a21,21,0,0,1-1.42-4.81,21.54,21.54,0,0,1-.33-5.08,16.83,16.83,0,0,1,3.44-9.66,19.7,19.7,0,0,1,8.32-6,16,16,0,0,1,10-.53,19.85,19.85,0,0,0-9.47,1.82c-.73.33-1.42.74-2.11,1.13-.34.2-.66.44-1,.66a7.44,7.44,0,0,0-1,.71l-.93.75-.87.82a16.13,16.13,0,0,0-1.59,1.73,9.11,9.11,0,0,0-.68,1,7.89,7.89,0,0,0-.63,1,15.88,15.88,0,0,0-1,2.13A18.33,18.33,0,0,0,382.77,69,32.09,32.09,0,0,0,383.12,78.73Z"/></g><g class="cls-6"><path class="cls-7" d="M424.29,70.53c0-.31,0-.61-.06-.91a1.23,1.23,0,0,0,0-.2c0-.27,0-.53-.09-.79v0a1.55,1.55,0,0,0,0-.31c0-.23-.06-.46-.11-.69s0-.27-.07-.41-.09-.45-.14-.68-.1-.43-.15-.64-.1-.41-.16-.62h0s0-.1-.05-.15-.1-.37-.16-.55l-.18-.54a.44.44,0,0,0-.05-.15c-.11-.34-.23-.67-.37-1s-.14-.37-.22-.55-.24-.56-.37-.84l-.33-.67a1.09,1.09,0,0,0-.08-.15l0,0c-.13-.26-.26-.51-.41-.76s-.33-.58-.51-.86-.38-.6-.58-.89l-.54-.75-.61-.78-.58-.69-.08-.09c-.21-.24-.43-.47-.65-.7s-.46-.48-.7-.7a18,18,0,0,0-1.39-1.25l-.09-.07-.79-.61c-.26-.2-.53-.39-.81-.58q-.83-.55-1.68-1l-.88-.48c-.29-.15-.59-.3-.9-.44a16.91,16.91,0,0,0-1.86-.77,18,18,0,0,0-1.93-.61l-1-.25a23.29,23.29,0,0,0-5.38-.6,24,24,0,0,0-16,41.84c.34.31.68.6,1,.88.2.17.41.33.62.48s.43.32.66.48.4.27.6.41l.08,0,.33.21a3.87,3.87,0,0,0,.34.21l.06,0,.83.48.76.39.43.21.14.06c.23.12.47.22.71.32l.1,0,.09,0a3.38,3.38,0,0,0,.44.18l.34.13.09,0c.28.11.57.21.86.3s.5.16.75.24l.3.08.75.2.91.2c.39.08.78.15,1.18.21s.51.08.77.1l.58.07a23.22,23.22,0,0,0,2.37.11,24,24,0,0,0,23.92-24.07C424.32,71.23,424.31,70.88,424.29,70.53Zm-23.9,23.33a22.2,22.2,0,1,1,7.74-43h0a22.2,22.2,0,0,1-7.75,43Z"/></g></g></g><g class="cls-11"><g id="Монета_-_10-38" data-name="Монета - 10"><path class="cls-2" d="M330.31,1080h-59.9a30,30,0,0,1,59.9,0Z"/><path class="cls-3" d="M324.3,1080H312.2a24,24,0,0,0-20.26-18.9,22.06,22.06,0,0,0-3.63-.23c.3-.18.61-.35.92-.51s.81-.41,1.21-.59l.53-.23.56-.23a20.18,20.18,0,0,1,2-.69l.66-.18q.76-.21,1.53-.36l.75-.14h.05l.75-.11c.26,0,.51-.07.77-.09l.78-.06.74,0h.84c.33,0,.65,0,1,0l.46,0h0c.27,0,.55,0,.82.06a.39.39,0,0,1,.15,0l.22,0q.47,0,.93.12h0l1.17.21,1.17.27c.39.09.78.2,1.17.32l1.14.39.83.32.07,0h0l.08,0,.48.22a14.41,14.41,0,0,1,1.48.72c.19.09.37.19.55.29s.6.34.9.53.69.44,1,.68.57.4.84.61.34.26.5.4a6.57,6.57,0,0,1,.52.43c.21.17.42.35.62.54l.44.41c.31.3.61.6.91.92s.48.53.71.8.33.38.48.58.29.36.43.55.28.37.41.56l.37.53a.61.61,0,0,1,.07.1c.28.42.54.84.79,1.27.13.22.25.44.37.67a.61.61,0,0,1,.07.14c.13.22.24.45.36.69s.25.53.37.8.24.56.35.84l0,.06a3.65,3.65,0,0,1,.14.35,5.17,5.17,0,0,1,.18.51l0,.06c.07.2.14.4.2.6.18.56.34,1.13.48,1.7.08.33.15.66.21,1a1.84,1.84,0,0,1,0,.25,2.17,2.17,0,0,1,0,.25c0,.16.06.32.08.49.05.34.1.67.13,1s.05.51.07.76a.28.28,0,0,1,0,.09v0S324.3,1080,324.3,1080Z"/><g class="cls-4"><path class="cls-5" d="M289.49,1065.8a19.79,19.79,0,0,0-5.7,7.79c-.31.73-.53,1.5-.78,2.25-.1.39-.18.78-.27,1.17a7.54,7.54,0,0,0-.21,1.17l-.18,1.18,0,.64h-1.75a18.6,18.6,0,0,1,2-7A16,16,0,0,1,289.49,1065.8Z"/></g><g class="cls-6"><path class="cls-7" d="M324.29,1079.88v0a.28.28,0,0,0,0-.09c0-.25,0-.51-.07-.76s-.08-.66-.13-1c0-.17-.05-.33-.08-.49a2.17,2.17,0,0,0,0-.25c0-.09,0-.17,0-.25-.06-.32-.13-.65-.21-1-.14-.57-.3-1.14-.48-1.7-.06-.2-.13-.4-.2-.6l0-.06a5.17,5.17,0,0,0-.18-.51,3.65,3.65,0,0,0-.14-.35l0-.06c-.11-.28-.22-.56-.35-.84s-.24-.53-.37-.8-.23-.47-.36-.69a.61.61,0,0,0-.07-.14c-.12-.23-.24-.45-.37-.67-.25-.43-.51-.85-.79-1.27a.61.61,0,0,0-.07-.1l-.37-.53c-.13-.19-.27-.38-.41-.56s-.28-.37-.43-.55-.31-.39-.48-.58-.47-.54-.71-.8-.6-.62-.91-.92l-.44-.41c-.2-.19-.41-.37-.62-.54a6.57,6.57,0,0,0-.52-.43c-.16-.14-.33-.27-.5-.4s-.55-.42-.84-.61-.68-.47-1-.68-.6-.36-.9-.53-.36-.2-.55-.29a14.41,14.41,0,0,0-1.48-.72l-.48-.22-.08,0h0l-.07,0-.83-.32-1.14-.39c-.39-.12-.78-.23-1.17-.32l-1.17-.27-1.17-.21h0q-.46-.08-.93-.12l-.22,0a.39.39,0,0,0-.15,0c-.27,0-.55,0-.82-.06h0l-.46,0c-.33,0-.65,0-1,0h-.84l-.74,0-.78.06c-.26,0-.51,0-.77.09l-.75.11h-.05l-.75.14c-.51.1-1,.21-1.53.36l-.66.18a20.18,20.18,0,0,0-2,.69l-.56.23-.53.23c-.4.18-.81.38-1.21.59s-.62.33-.92.51a23.47,23.47,0,0,0-4.35,3.23,23.91,23.91,0,0,0-7.54,15.9h1.82a22.06,22.06,0,0,1,6.95-14.58,21.79,21.79,0,0,1,6.75-4.32,22.16,22.16,0,0,1,30.55,18.9h1.81S324.29,1079.92,324.29,1079.88Z"/></g></g><g id="Монета_-_10-39" data-name="Монета - 10"><circle class="cls-2" cx="300.36" cy="961.62" r="30"/><path class="cls-3" d="M299.44,937.64a24,24,0,0,1-4.63,44.55,24.33,24.33,0,0,1-5.35.81,24,24,0,1,0,10-45.36Z"/><g class="cls-4"><path class="cls-5" d="M285.57,972.9a21.33,21.33,0,0,1-2.62-4.29,22.35,22.35,0,0,1-1.63-4.81,16.81,16.81,0,0,1,.83-10.23,19.72,19.72,0,0,1,6.49-7.93,16,16,0,0,1,9.53-3.09,19.82,19.82,0,0,0-8.67,4.21,22.5,22.5,0,0,0-1.75,1.63c-.27.28-.52.6-.79.89a9.55,9.55,0,0,0-.74.94l-.71,1-.63,1a18.84,18.84,0,0,0-1.08,2.09,8.41,8.41,0,0,0-.41,1.09,7.68,7.68,0,0,0-.36,1.12,16.16,16.16,0,0,0-.4,2.31,19,19,0,0,0,.07,4.76A32.13,32.13,0,0,0,285.57,972.9Z"/></g><g class="cls-6"><path class="cls-7" d="M323.53,955.35c-.14-.51-.29-1-.47-1.52-.07-.23-.16-.47-.25-.7s-.11-.29-.17-.43c-.12-.32-.26-.64-.4-1s-.35-.76-.54-1.13c-.31-.59-.64-1.17-1-1.73s-.72-1.1-1.11-1.62-.81-1-1.23-1.51q-.42-.48-.87-.93c-.3-.3-.6-.6-.92-.88-.14-.14-.28-.26-.43-.39l-.44-.38c-.41-.34-.83-.67-1.27-1l-.62-.44-.12-.08,0,0a.41.41,0,0,0-.11-.07q-.46-.32-1-.6c-.33-.2-.66-.39-1-.57s-.49-.25-.73-.36l-.21-.11c-.22-.1-.44-.21-.67-.3l-.36-.15q-.33-.15-.66-.27a20.59,20.59,0,0,0-2-.67,4.27,4.27,0,0,0-.48-.13c-.25-.07-.5-.14-.75-.19l-.58-.13-.7-.13-.34-.06-.23,0-.75-.1h-.07l-.21,0h0l-1.14-.09-.53,0c-.26,0-.52,0-.77,0l-.94,0a24,24,0,0,0-10,45.36,21.67,21.67,0,0,0,2.31,1c.3.12.6.23.91.33s.61.2.92.29.56.16.85.23l1,.24c.34.07.69.14,1,.19l1.05.15,1.06.1.47,0h.21a24.39,24.39,0,0,0,7.34-.82A24,24,0,0,0,323.53,955.35Zm-17.37,27.7a22,22,0,0,1-13.06-.47h0a22.18,22.18,0,1,1,13.08.47Z"/></g></g><g id="Монета_-_10-40" data-name="Монета - 10"><circle class="cls-2" cx="300.36" cy="841.62" r="30"/><path class="cls-3" d="M304.6,818a24,24,0,0,1-19.47,42.17A24,24,0,1,0,304.6,818Z"/><g class="cls-4"><path class="cls-5" d="M283.49,849.47a21.16,21.16,0,0,1-1.63-4.75,21.84,21.84,0,0,1-.56-5.05,16.85,16.85,0,0,1,3-9.81,19.75,19.75,0,0,1,8-6.36,16,16,0,0,1,10-1,19.87,19.87,0,0,0-9.38,2.26,23.45,23.45,0,0,0-2.05,1.21c-.33.23-.64.48-1,.71a7.52,7.52,0,0,0-.93.76l-.9.78-.83.86a16.83,16.83,0,0,0-1.5,1.8,7.48,7.48,0,0,0-.64,1,9.33,9.33,0,0,0-.59,1,16.42,16.42,0,0,0-.88,2.17,18.73,18.73,0,0,0-.95,4.66A32.22,32.22,0,0,0,283.49,849.47Z"/></g><g class="cls-6"><path class="cls-7" d="M324.33,840.46q0-.6-.09-1.2c0-.37-.08-.74-.13-1.11s-.1-.63-.16-.94-.06-.35-.1-.52-.13-.6-.21-.9-.14-.55-.22-.82a4.74,4.74,0,0,0-.15-.5c0-.18-.11-.35-.17-.52l-.18-.52c-.12-.34-.25-.68-.39-1v0a19.81,19.81,0,0,0-.84-1.81c-.33-.63-.68-1.25-1.07-1.85l0,0-.21-.33-.07-.09c-.14-.22-.28-.43-.44-.64l-.08-.12c-.16-.22-.32-.43-.49-.64l-.5-.63c-.16-.2-.33-.39-.5-.58l-.62-.67-.4-.4-.36-.35c-.24-.23-.48-.46-.73-.67l-.76-.64c-.19-.16-.38-.31-.58-.45l-.32-.25-.63-.44-.11-.07c-.26-.18-.52-.35-.79-.51s-.56-.35-.85-.51-.58-.32-.88-.47l-.9-.44a19.94,19.94,0,0,0-1.85-.76l-1-.32-.82-.25-.23-.06-.91-.22-1-.2a23.52,23.52,0,0,0-5.4-.35,24,24,0,0,0-14.07,42.52.1.1,0,0,0,.05,0c.24.2.49.39.74.58s.47.35.7.51l.33.23c.21.14.42.28.64.41s.54.34.82.51a23.82,23.82,0,0,0,2.78,1.36l.9.35.07,0,.74.25.32.1.07,0c.21.07.41.13.62.18l.1,0,.13,0c.32.09.64.17,1,.24s.56.12.85.18.5.09.76.12l.15,0a4.29,4.29,0,0,0,.5.07h0l.57.06,1.17.09c.4,0,.79,0,1.19,0s.79,0,1.18,0,.73,0,1.09-.08.83-.09,1.24-.15l.26,0h0l.19,0,.45-.08.49-.1c.53-.11,1.06-.24,1.57-.39l.73-.22c.54-.16,1.08-.35,1.6-.56l.63-.26.65-.29.3-.14.77-.38.4-.22.13-.07.62-.36.07,0,.21-.13c.25-.15.5-.31.74-.48l0,0a6,6,0,0,0,.52-.36l.58-.42.28-.21c.37-.3.74-.6,1.09-.91s.66-.59,1-.9.5-.5.73-.75l.46-.5.38-.45c.17-.19.33-.39.49-.6s.33-.42.48-.64.32-.43.46-.65.4-.58.58-.88l0,0,0,0c.09-.14.18-.28.26-.43l.25-.44,0,0c.09-.15.18-.31.26-.47a4.16,4.16,0,0,0,.24-.47c.07-.13.14-.27.2-.4s.17-.36.25-.55l.24-.55.21-.53c0-.09.07-.18.1-.27l.18-.49c.15-.44.29-.88.42-1.33a16.13,16.13,0,0,0,.42-1.66c.07-.33.13-.67.18-1s.09-.55.12-.82.07-.49.09-.74A23.13,23.13,0,0,0,324.33,840.46ZM301.44,863.8a22.2,22.2,0,1,1,21.09-23.25A22,22,0,0,1,301.44,863.8Z"/></g></g><g id="Монета_-_10-41" data-name="Монета - 10"><circle class="cls-2" cx="300.36" cy="721.62" r="30"/><path class="cls-3" d="M289.6,700.17a24,24,0,0,1,14.22,42.47,24.21,24.21,0,0,1-4.54,3,24,24,0,1,0-9.68-45.43Z"/><g class="cls-4"><path class="cls-5" d="M291.56,738a21.46,21.46,0,0,1-4.16-2.82,21.83,21.83,0,0,1-3.47-3.71,16.84,16.84,0,0,1-3.48-9.65,19.77,19.77,0,0,1,2.63-9.91,16,16,0,0,1,7.39-6.75,19.62,19.62,0,0,0-6.15,7.42c-.36.71-.63,1.46-.92,2.2-.13.38-.23.77-.34,1.15a7.45,7.45,0,0,0-.29,1.15l-.25,1.17-.15,1.19a16.77,16.77,0,0,0-.13,2.34,9.2,9.2,0,0,0,.08,1.17,9,9,0,0,0,.14,1.16,18,18,0,0,0,.59,2.27,18.6,18.6,0,0,0,2,4.3A32,32,0,0,0,291.56,738Z"/></g><g class="cls-6"><path class="cls-7" d="M318.85,706.33a22.57,22.57,0,0,0-1.88-2,24,24,0,0,0-2-1.76c-.36-.27-.72-.53-1.09-.78s-.73-.49-1.11-.72-.76-.44-1.15-.64-.73-.38-1.1-.55l-.11-.05c-.39-.18-.77-.34-1.16-.5s-.82-.3-1.23-.44-.79-.25-1.19-.36a.49.49,0,0,0-.16,0c-.37-.1-.74-.19-1.12-.27l-.06,0c-.38-.08-.77-.15-1.16-.21a.41.41,0,0,0-.16,0h0l-.17,0-.82-.11-.27,0-.61,0a2.31,2.31,0,0,0-.37,0l-.34,0a21.69,21.69,0,0,0-2.55,0l-.68.05a21.26,21.26,0,0,0-2.74.39l-.68.15-.68.17c-.22.05-.45.12-.67.19l-.66.21-.67.23c-.22.07-.43.15-.65.24l-.46.19-.4.17-.44.2c-.22.09-.43.2-.64.31a23.72,23.72,0,0,0-4.54,3,24,24,0,0,0,14.23,42.46h0l.52,0a24,24,0,0,0,19-39.28Zm-4.34,32.4a22.25,22.25,0,0,1-31.26-3,22.22,22.22,0,0,1,3-31.25,21.94,21.94,0,0,1,7-3.91,22.2,22.2,0,0,1,21.31,38.12Z"/></g></g><g id="Монета_-_10-42" data-name="Монета - 10"><circle class="cls-2" cx="300.36" cy="601.62" r="30"/><path class="cls-3" d="M305.37,578.15a24,24,0,0,1-20.84,41.51,24,24,0,1,0,20.84-41.51Z"/><g class="cls-4"><path class="cls-5" d="M283.25,608.91a21,21,0,0,1-1.48-4.8,21.48,21.48,0,0,1-.39-5.07,16.81,16.81,0,0,1,3.31-9.71,19.76,19.76,0,0,1,8.25-6.08,16,16,0,0,1,10-.65,19.82,19.82,0,0,0-9.45,1.94,23.55,23.55,0,0,0-2.09,1.15c-.34.21-.66.45-1,.67a7.39,7.39,0,0,0-.94.73l-.93.75-.86.83a16.1,16.1,0,0,0-1.56,1.76,7.16,7.16,0,0,0-.67,1,9.14,9.14,0,0,0-.62,1,16.44,16.44,0,0,0-1,2.14,19.07,19.07,0,0,0-1.1,4.63A31.86,31.86,0,0,0,283.25,608.91Z"/></g><g class="cls-6"><path class="cls-7" d="M324.23,599.11c0-.27-.06-.54-.11-.81v-.07a.59.59,0,0,0,0-.13l0-.16s0-.06,0-.09-.05-.32-.08-.47,0,0,0,0a4.35,4.35,0,0,0-.1-.52c0-.17-.06-.33-.1-.49a4.05,4.05,0,0,0-.12-.5c0-.17-.09-.33-.13-.5s0-.21-.09-.32-.09-.31-.14-.47l-.06-.18c0-.14-.09-.27-.13-.41s-.16-.47-.25-.7a.78.78,0,0,0-.05-.14l-.24-.61c-.06-.16-.13-.31-.2-.47l-.05-.12c-.09-.2-.18-.4-.28-.6a3.18,3.18,0,0,0-.16-.32c-.14-.29-.28-.57-.44-.84s-.15-.28-.23-.42a2.26,2.26,0,0,0-.16-.26c-.11-.21-.24-.42-.37-.62l-.3-.45c-.11-.18-.22-.35-.34-.52h0c-.37-.52-.75-1-1.16-1.52s-.9-1-1.38-1.53c-.23-.24-.47-.47-.71-.69l-.57-.52-.6-.51-.16-.13a8.27,8.27,0,0,0-.66-.51,4.35,4.35,0,0,0-.43-.32h0c-.22-.16-.43-.31-.66-.46l-.32-.21c-.43-.28-.88-.55-1.33-.8l-.06,0-.45-.24h0c-.27-.15-.55-.29-.83-.42s-.67-.32-1-.45-.79-.33-1.19-.47l-.46-.16c-.19-.06-.37-.13-.56-.18l-.09,0c-.17,0-.34-.11-.52-.15l-.52-.14c-.3-.08-.61-.15-.92-.21a23.42,23.42,0,0,0-5.39-.53,24,24,0,0,0-15.45,42,20.58,20.58,0,0,0,1.64,1.32c.22.17.45.33.68.48l.54.36.78.48c.28.17.56.33.85.48s.67.35,1,.51.81.38,1.23.54l.6.24.1,0c.22.09.45.17.67.24l.84.27.63.17.57.15.19,0,.79.17.78.14.41.06.33,0h.05l.52.06h0l.19,0,.69,0,.57,0c.51,0,1,0,1.52,0a24,24,0,0,0,23.63-24.37C324.35,600.53,324.31,599.81,324.23,599.11Zm-23.52,24.71a22.2,22.2,0,1,1-.7-44.39,21.82,21.82,0,0,1,7.9,1.32h0a22.2,22.2,0,0,1-7.21,43.07Z"/></g></g><g id="Монета_-_10-43" data-name="Монета - 10"><circle class="cls-2" cx="300.36" cy="481.62" r="30"/><path class="cls-3" d="M296.38,458a24,24,0,0,1,1.1,44.77,23.59,23.59,0,0,1-5.2,1.49,24,24,0,1,0,4.1-46.26Z"/><g class="cls-4"><path class="cls-5" d="M287.13,494.7a20.86,20.86,0,0,1-3.14-3.92,21.5,21.5,0,0,1-2.23-4.57,16.83,16.83,0,0,1-.49-10.25,19.74,19.74,0,0,1,5.42-8.69,16,16,0,0,1,9.06-4.28,19.75,19.75,0,0,0-8.07,5.28c-.55.57-1,1.22-1.52,1.84-.24.32-.44.66-.67,1a7.43,7.43,0,0,0-.61,1l-.58,1-.49,1.09a15.47,15.47,0,0,0-.81,2.21,7.43,7.43,0,0,0-.27,1.13,7.63,7.63,0,0,0-.21,1.16,15.22,15.22,0,0,0-.1,2.34,18.55,18.55,0,0,0,.68,4.71A32.06,32.06,0,0,0,287.13,494.7Z"/></g><g class="cls-6"><path class="cls-7" d="M322.53,472.44c-.15-.36-.31-.71-.47-1.06l0-.07c-.06-.13-.13-.26-.2-.39-.16-.33-.33-.66-.51-1-.29-.54-.61-1.06-.94-1.56l-.51-.74c-.35-.49-.71-1-1.09-1.41h0l-.47-.55-.42-.45-.29-.31c-.2-.21-.41-.42-.62-.62q-.64-.62-1.32-1.17l-.43-.35s0,0-.05,0-.3-.24-.45-.35l-.6-.44c-.41-.28-.82-.55-1.24-.81l-.64-.37-.86-.47-.88-.43-.56-.25c-.17-.07-.33-.15-.5-.21l-.07,0-.12-.05c-.38-.15-.77-.29-1.15-.42s-.78-.26-1.18-.37a3.17,3.17,0,0,0-.44-.12l-.4-.1h0l-.47-.11-.38-.08-.21,0a3.89,3.89,0,0,0-.47-.09l-.13,0-.22,0-.7-.1-.93-.11h-.06q-.45,0-.9-.06c-.43,0-.87,0-1.3,0h-.22a8.1,8.1,0,0,0-.85,0h-.48l-.52,0-.75.08h-.11c-.32.05-.65.09-1,.15a23.59,23.59,0,0,0-5.2,1.49,24,24,0,0,0,1.11,44.77l.14,0c.27.1.55.19.82.27a21.07,21.07,0,0,0,2.21.57c.25.06.51.11.76.15l.74.12c.26,0,.52.08.78.1l.62.06.65,0h.07l.41,0a24,24,0,0,0,23-33.17Zm-13.68,29.69a21.9,21.9,0,0,1-13,1.21h0a22.19,22.19,0,0,1-3.95-42.23,21.75,21.75,0,0,1,7.83-1.67,22.19,22.19,0,0,1,9.15,42.69Z"/></g></g><g id="Монета_-_10-44" data-name="Монета - 10"><circle class="cls-2" cx="300.36" cy="361.62" r="30"/><path class="cls-3" d="M305.46,338.17a24,24,0,0,1-21,41.43,24,24,0,1,0,21-41.43Z"/><g class="cls-4"><path class="cls-5" d="M283.22,368.85a20.91,20.91,0,0,1-1.46-4.81,21.43,21.43,0,0,1-.37-5.07,16.86,16.86,0,0,1,3.34-9.69,19.82,19.82,0,0,1,8.27-6.06,16.09,16.09,0,0,1,10-.61,19.74,19.74,0,0,0-9.46,1.91,21.31,21.31,0,0,0-2.1,1.14c-.33.21-.65.45-1,.67a8.46,8.46,0,0,0-1,.72l-.93.75-.86.83a17.23,17.23,0,0,0-1.57,1.75,9.11,9.11,0,0,0-.68.95,10.23,10.23,0,0,0-.62,1,16.44,16.44,0,0,0-1,2.14,18.54,18.54,0,0,0-1.12,4.63A32.15,32.15,0,0,0,283.22,368.85Z"/></g><g class="cls-6"><path class="cls-7" d="M324.23,359.09c0-.14,0-.28-.05-.42,0-.32-.08-.64-.14-1s-.11-.67-.19-1-.2-.92-.32-1.37c0-.06,0-.12,0-.18l-.21-.71-.06-.18c-.07-.24-.15-.47-.24-.7l-.12-.34-.24-.62,0-.1c-.12-.29-.25-.58-.38-.87l-.12-.26c-.17-.37-.36-.73-.55-1.08-.1-.19-.2-.38-.31-.56s-.11-.2-.17-.3-.27-.46-.42-.68-.36-.56-.55-.83-.38-.54-.58-.8-.41-.53-.62-.78-.43-.51-.65-.75-.25-.28-.39-.42-.4-.42-.61-.63-.5-.48-.76-.71a.49.49,0,0,0-.13-.12c-.17-.16-.35-.32-.53-.46s-.3-.26-.46-.38-.6-.47-.9-.69l-.61-.43c-.3-.2-.61-.4-.93-.59s-.5-.31-.76-.45l-.17-.1-.56-.3-.29-.15-.81-.38-.28-.13-.62-.27-.28-.1-.14-.05c-.2-.09-.4-.16-.6-.23s-.64-.22-1-.32l-.06,0-.5-.14q-.45-.13-.93-.24a1.14,1.14,0,0,0-.25-.06l-.22-.05a24,24,0,0,0-21,41.42,22.57,22.57,0,0,0,3.41,2.52c.22.14.45.27.68.4h0a5.86,5.86,0,0,0,.55.3l.48.25.48.23.17.09.2.09.46.2a3.38,3.38,0,0,0,.44.18l.56.23h0l.6.21.32.11.65.2.08,0,.36.11.66.17c.28.07.56.14.85.19l.11,0,.43.09h.05l.57.09.12,0c.38.06.77.11,1.16.15l.39,0c.13,0,.27,0,.4,0l.5,0c.37,0,.74,0,1.12,0h.32a24,24,0,0,0,23.71-24.28C324.35,360.58,324.31,359.83,324.23,359.09Zm-23.6,24.73a22,22,0,0,1-12.54-3.72,0,0,0,0,0,0,0h0A22.18,22.18,0,0,1,308,340.78h0a22.2,22.2,0,0,1-7.36,43Z"/></g></g><g id="Монета_-_10-45" data-name="Монета - 10"><circle class="cls-2" cx="300.36" cy="241.62" r="30"/><path class="cls-3" d="M302.26,217.7A24,24,0,0,1,287,261.58a24,24,0,1,0,15.23-43.88Z"/><g class="cls-4"><path class="cls-5" d="M284.35,251.09a21.29,21.29,0,0,1-2.1-4.57,21.87,21.87,0,0,1-1.05-5,16.77,16.77,0,0,1,2-10.06,19.66,19.66,0,0,1,7.38-7.11,16,16,0,0,1,9.82-1.95,19.73,19.73,0,0,0-9.11,3.16c-.67.42-1.29.93-1.92,1.41-.31.25-.59.53-.89.8a8.33,8.33,0,0,0-.84.84l-.82.87-.74.94a16.67,16.67,0,0,0-1.33,1.94,21.74,21.74,0,0,0-1,2.1,17.62,17.62,0,0,0-.67,2.25,19.14,19.14,0,0,0-.48,4.73A31.91,31.91,0,0,0,284.35,251.09Z"/></g><g class="cls-6"><path class="cls-7" d="M324.1,238.11c0-.28-.09-.56-.14-.84s-.08-.43-.13-.65l0-.13a.19.19,0,0,0,0-.07,3,3,0,0,0-.07-.32c0-.11,0-.21-.08-.32-.06-.26-.13-.51-.2-.76s-.19-.66-.3-1h0c-.11-.33-.23-.65-.35-1s-.17-.45-.27-.67-.11-.27-.17-.4-.24-.54-.37-.8-.3-.61-.46-.91-.25-.47-.39-.7l-.07-.12-.06-.11-.5-.79s0,0,0,0l-.07-.11-.49-.71q-.24-.34-.51-.69a2.19,2.19,0,0,0-.2-.25q-.24-.32-.51-.63c-.21-.26-.43-.5-.66-.75s-.37-.4-.56-.59l-.19-.18c-.21-.22-.43-.43-.65-.63l-.74-.66c-.5-.43-1-.84-1.56-1.22l0,0c-.53-.37-1.08-.73-1.64-1.07-.28-.17-.57-.34-.86-.49-.58-.31-1.18-.61-1.78-.87l-.72-.3a1.51,1.51,0,0,0-.35-.14c-.26-.11-.53-.2-.79-.29s-.63-.22-.95-.31l-.92-.26-.12,0-.79-.18-.21,0c-.63-.13-1.27-.24-1.91-.31l-1-.1a23.45,23.45,0,0,0-5.41.18,24,24,0,0,0-9.82,43.7h0l.52.34q.35.22.69.42l.79.44c.31.17.62.33.94.48l.48.22.48.21c.32.14.65.27,1,.39s.62.23.93.32a9.93,9.93,0,0,0,1.14.35l.32.09.63.16h0c.46.11.93.2,1.4.27.3.06.61.1.92.14s.47.06.71.08l.66.06.76,0,.91,0q.51,0,1,0c.42,0,.84,0,1.26-.08l1.27-.15A24,24,0,0,0,324.1,238.11Zm-20.49,25.47a22.2,22.2,0,1,1,18.71-25.21A22,22,0,0,1,303.61,263.58Z"/></g></g><g id="Монета_-_10-46" data-name="Монета - 10"><circle class="cls-2" cx="300.36" cy="121.62" r="30"/><path class="cls-3" d="M290.23,99.87a24,24,0,0,1,13,42.87,24.34,24.34,0,0,1-4.62,2.82,24,24,0,1,0-8.35-45.69Z"/><g class="cls-4"><path class="cls-5" d="M291.08,137.75a22.63,22.63,0,0,1-7.43-6.76,16.82,16.82,0,0,1-3.2-9.74,19.79,19.79,0,0,1,2.92-9.83,16.07,16.07,0,0,1,7.59-6.54,19.9,19.9,0,0,0-6.37,7.24c-.38.7-.67,1.45-1,2.18-.14.37-.25.75-.38,1.13a8.88,8.88,0,0,0-.32,1.15l-.28,1.16-.19,1.18a16.9,16.9,0,0,0-.19,2.34,7.63,7.63,0,0,0,0,1.17,7.47,7.47,0,0,0,.11,1.16,16.16,16.16,0,0,0,.52,2.29,18.76,18.76,0,0,0,1.91,4.36A32.29,32.29,0,0,0,291.08,137.75Z"/></g><g class="cls-6"><path class="cls-7" d="M319.29,106.87c-.2-.26-.41-.51-.63-.76l-.05-.06-.05-.06-.05-.06c-.1-.12-.21-.25-.33-.37l-.07-.08c-.17-.2-.36-.4-.55-.59l-.25-.26c-.3-.3-.6-.59-.91-.87s-.7-.61-1.06-.89-.73-.57-1.1-.83-.75-.52-1.14-.76-.78-.47-1.17-.69-.8-.42-1.21-.62a22.43,22.43,0,0,0-2.49-1c-.42-.14-.85-.28-1.28-.4l-1.29-.33a24,24,0,0,0-6.6-.56,22,22,0,0,0-3.85.52,20.32,20.32,0,0,0-2.4.66l-.25.09c-.38.13-.75.26-1.11.41s-.72.3-1.08.47l-.13.06a23.61,23.61,0,0,0-4.63,2.82,24,24,0,0,0,13,42.85h0a16.88,16.88,0,0,0,1.74.08c.32,0,.65,0,1,0a17.78,17.78,0,0,0,1.78-.14l.34,0h0l.17,0c.32,0,.63-.09.94-.15l.31-.06.31-.06.21,0L306,145l.26-.07.52-.14.46-.13h0l.07,0,.06,0,.62-.2a19.65,19.65,0,0,0,1.93-.74c.22-.1.44-.19.65-.3s.48-.22.72-.36l.62-.32c.36-.19.7-.4,1.05-.61l.18-.12c.24-.14.47-.3.7-.46l0,0,.09-.07c.18-.12.36-.24.53-.37l.59-.44A24,24,0,0,0,319.29,106.87ZM314,139.14a21.94,21.94,0,0,1-12.23,4.62h0A22.17,22.17,0,1,1,314,139.14Z"/></g></g><g id="Монета_-_10-47" data-name="Монета - 10"><path class="cls-2" d="M302.31,31.56a30,30,0,0,1-31.89-28,28.36,28.36,0,0,1,0-3.57h59.9A30,30,0,0,1,302.31,31.56Z"/><path class="cls-3" d="M301.92,25.57c-.54,0-1.08.05-1.61.05s-.76,0-1.14,0-1-.06-1.48-.12c-.25,0-.5,0-.74-.09l-.18,0c-.3,0-.59-.09-.88-.15l-.36-.07c-.3-.06-.6-.12-.9-.2s-.67-.17-1-.27l-.14,0a19.51,19.51,0,0,1-2.07-.72c-.34-.14-.69-.28-1-.44a21.52,21.52,0,0,1-2-1c-.25-.14-.49-.29-.73-.44l-.49-.31c-.24-.15-.47-.31-.7-.48s-.55-.39-.82-.61a2,2,0,0,1-.24-.19,24,24,0,0,0,3.62.31c.59,0,1.18,0,1.77-.05A24,24,0,0,0,313.06,0H324.3a.13.13,0,0,1,0,.06A24,24,0,0,1,301.92,25.57Z"/><g class="cls-4"><path class="cls-5" d="M283.63,9.75A21.86,21.86,0,0,1,281.91,5a21.73,21.73,0,0,1-.64-5h1.4V0A32,32,0,0,0,283.63,9.75Z"/></g><g class="cls-6"><path class="cls-7" d="M324.31.06a.13.13,0,0,0,0-.06h-1.81a1.1,1.1,0,0,1,0,.18,22.22,22.22,0,0,1-20.71,23.6,22.1,22.1,0,0,1-12.73-3.05A22.19,22.19,0,0,1,278.21,3.07a22.45,22.45,0,0,1,0-3.07h-1.8a22.49,22.49,0,0,0,0,3.18,23.89,23.89,0,0,0,9,17.24,2,2,0,0,0,.24.19c.27.22.54.42.82.61s.46.33.7.48l.49.31c.24.15.48.3.73.44.64.36,1.29.7,2,1,.33.16.68.3,1,.44q1,.41,2.07.72l.14,0c.33.1.67.19,1,.27s.6.14.9.2l.36.07c.29.06.58.11.88.15l.18,0c.24,0,.49.07.74.09.49.06,1,.1,1.48.12s.76,0,1.14,0,1.07,0,1.61-.05A24,24,0,0,0,324.31.06Z"/></g></g></g></g></g></g></svg>