<svg xmlns="http://www.w3.org/2000/svg" xmlns:xlink="http://www.w3.org/1999/xlink" viewBox="0 0 240 120.17"><defs><style>.cls-1{fill:#ededed;}.cls-2{fill:none;}.Shadow,.cls-2{mix-blend-mode:soft-light;}.cls-3{isolation:isolate;}.Shadow{fill:#373737;}.cls-4{clip-path:url(#clip-path);}.cls-5{clip-path:url(#clip-path-2);}.cls-6,.cls-8{fill:#f26549;}.cls-7{fill:#ffd24c;}.cls-8{font-size:24.26px;font-family:FlowExt-Bold, Flow Ext;font-weight:700;}.cls-9{letter-spacing:0.02em;}</style><clipPath id="clip-path"><path class="cls-1" d="M0,120V3.28H5S44,19.13,120,19.13,235,3.28,235,3.28h5V120Z"/></clipPath><clipPath id="clip-path-2"><path class="cls-2" d="M0,120V62.42C49.26,28,190.74,28,240,62.42V120Z"/></clipPath></defs><g class="cls-3"><g id="Layer_2" data-name="Layer 2"><g id="Игра"><rect class="cls-1" width="240" height="120"/><rect class="Shadow" width="240" height="120"/><rect class="Shadow" width="240" height="120"/><path class="cls-1" d="M0,120V3.28H5S44,19.13,120,19.13,235,3.28,235,3.28h5V120Z"/><g class="cls-4"><g class="cls-5"><polygon class="cls-6" points="240 78.31 57.43 120.17 240 120.17 240 78.31"/><polygon class="cls-7" points="0 78.31 182.57 120.17 0 120.17 0 78.31"/></g><text class="cls-8" transform="translate(26.63 67.19)">На самое <tspan class="cls-9" x="106.55" y="0">в</tspan><tspan x="118.89" y="0">ажное</tspan></text></g><path class="Shadow" d="M0,3.28V120H240V3.28ZM235,104.4a10.74,10.74,0,0,1-10.81,10.68H15.79A10.74,10.74,0,0,1,5,104.4V3.28H235Z"/></g></g></g></svg>