<svg xmlns="http://www.w3.org/2000/svg" viewBox="0 0 100.03 100"><defs><style>.cls-1{isolation:isolate;}.Light-35,.cls-11,.cls-2,.cls-8{fill:#ededed;}.cls-3,.cls-4{fill:#f2cab6;}.cls-4{opacity:0.5;}.Light-35{mix-blend-mode:soft-light;}.cls-5,.cls-9{fill:none;}.cls-5{stroke:#d99877;stroke-linecap:round;stroke-linejoin:round;stroke-width:0.51px;}.cls-10,.cls-6,.cls-7{fill:#d99877;}.cls-7{opacity:0.75;}.cls-8{font-size:9.3px;}.cls-10,.cls-11,.cls-8{font-family:FiraSans-ExtraBold, Fira Sans ExtraBold;font-weight:800;}.cls-10{font-size:12.92px;}.cls-11{font-size:9.3px;}</style></defs><g class="cls-1"><g id="Layer_2" data-name="Layer 2"><g id="Игра"><g id="Купюра_-_100" data-name="Купюра - 100"><g id="_100" data-name="100"><polygon class="cls-2" points="100.03 73.62 70.6 82.26 20.75 96.9 18.63 89.67 15.27 78.24 12.54 68.95 4.23 40.68 2.54 34.93 0.03 26.38 32.06 16.97 49.89 11.73 79.32 3.09 91.82 45.67 100.03 73.62"/><polygon class="cls-3" points="0.03 26.38 2.54 34.93 4.23 40.68 12.54 68.95 15.27 78.24 18.63 89.67 20.75 96.9 70.6 82.26 68.48 75.03 65.12 63.6 62.39 54.31 55.41 30.53 54.09 26.03 52.4 20.28 49.89 11.73 32.06 16.97 0.03 26.37 0.03 26.38"/><polygon class="cls-4" points="100.03 73.62 70.6 82.26 20.75 96.9 18.63 89.67 15.27 78.24 12.54 68.95 16.89 67.68 23.87 65.63 30.84 63.58 37.81 61.53 44.79 59.48 51.76 57.44 58.74 55.39 62.39 54.31 91.82 45.67 91.83 45.67 100.03 73.62"/><polygon class="Light-35" points="100.03 73.62 70.6 82.26 20.75 96.9 18.63 89.67 15.27 78.24 12.54 68.95 4.23 40.68 2.54 34.93 0.03 26.38 32.06 16.97 49.89 11.73 79.32 3.09 91.82 45.67 100.03 73.62"/><polygon class="cls-3" points="70.6 82.26 20.75 96.9 18.63 89.67 15.27 78.24 12.54 68.95 4.23 40.68 2.54 34.93 0.03 26.38 0.03 26.37 32.06 16.97 49.89 11.73 52.4 20.28 54.09 26.03 55.41 30.53 62.39 54.31 65.12 63.6 68.48 75.03 70.6 82.26"/><line class="cls-5" x1="24.9" y1="95.29" x2="4.63" y2="25.43"/><line class="cls-5" x1="31.87" y1="93.24" x2="11.61" y2="23.38"/><line class="cls-5" x1="38.85" y1="91.19" x2="18.58" y2="21.33"/><line class="cls-5" x1="45.82" y1="89.14" x2="25.56" y2="19.28"/><line class="cls-5" x1="52.8" y1="87.09" x2="32.54" y2="17.23"/><line class="cls-5" x1="59.77" y1="85.05" x2="39.51" y2="15.19"/><line class="cls-5" x1="66.75" y1="83" x2="46.49" y2="13.14"/><path class="cls-6" d="M74.4,20.07h0L54.09,26l-3.55,1-3.1.91-3.88,1.14-7,2.05-7,2-7,2.05-7,2-7,2L4.23,40.68,2.54,34.93,7,33.61l7-2.05,7-2,7-2.05,7-2,7-2.05,7-2.05,1.89-.55.08,0,1.56-.46,15.39-4.52.17,0,4.75-1.4,1.5,5.12Z"/><polygon class="cls-7" points="75.29 73.03 68.48 75.03 64.76 76.12 57.78 78.17 50.81 80.22 43.83 82.27 36.86 84.32 29.88 86.37 22.91 88.41 18.63 89.67 15.27 78.24 19.59 76.97 26.56 74.92 33.54 72.88 40.51 70.83 47.49 68.78 54.46 66.73 61.44 64.68 65.12 63.6 71.93 61.6 75.29 73.03"/><rect class="cls-6" x="46.65" y="18.07" width="28.13" height="10.68" rx="5.34" transform="translate(125.57 28.76) rotate(163.63)"/><text class="cls-8" transform="matrix(0.96, -0.28, 0.28, 0.96, 54.5, 28.69)">100</text></g><polygon class="cls-9" points="100.03 73.62 70.6 82.26 20.75 96.9 18.63 89.67 15.27 78.24 12.54 68.95 4.23 40.68 2.54 34.93 0.03 26.38 0.03 26.37 32.06 16.97 49.89 11.73 79.32 3.09 91.82 45.67 100.03 73.62"/><g id="_100-2" data-name="100"><rect class="cls-2" y="26.49" width="82.64" height="73.51"/><rect class="cls-3" y="26.49" width="51.97" height="73.51"/><rect class="cls-4" y="70.87" width="82.64" height="29.13"/><path class="cls-2" d="M39.92,80.55H82.64a0,0,0,0,1,0,0V100a0,0,0,0,1,0,0H27a0,0,0,0,1,0,0V93.49A12.94,12.94,0,0,1,39.92,80.55Z"/><rect class="Light-35" y="26.49" width="82.64" height="73.51"/><rect class="cls-3" y="26.49" width="21.21" height="73.51"/><line class="cls-5" x1="17.38" y1="99.61" x2="17.13" y2="26.88"/><line class="cls-5" x1="10.11" y1="99.61" x2="9.86" y2="26.88"/><line class="cls-5" x1="2.84" y1="99.61" x2="2.59" y2="26.88"/><rect class="cls-6" y="35.4" width="73.13" height="5.99"/><rect class="cls-7" y="80.55" width="1.85" height="11.91"/><rect class="cls-6" x="45" y="35.4" width="28.13" height="10.68" rx="5.34"/><text class="cls-10" transform="translate(36.11 94.79)">100</text><text class="cls-11" transform="translate(51.81 43.35)">100</text></g><rect class="cls-9" y="26.49" width="82.64" height="73.51"/></g><rect class="cls-9" width="100" height="100"/></g></g></g></svg>