<svg xmlns="http://www.w3.org/2000/svg" xmlns:xlink="http://www.w3.org/1999/xlink" viewBox="0 0 200 200"><defs><style>.cls-1{fill:none;}.cls-2{isolation:isolate;}.cls-3{fill:#ffd24c;}.cls-4{fill:#996c4c;}.Shadow{fill:#373737;}.Light,.Shadow{mix-blend-mode:soft-light;}.cls-5{clip-path:url(#clip-path);}.cls-6{fill:#f2cab6;}.cls-7{fill:#dbdbdb;}.cls-8{fill:#929292;}.cls-9{fill:#f26549;}.Light{fill:#ededed;}</style><clipPath id="clip-path"><path class="cls-1" d="M81.87,163.64,86.59,183l4.73-19.37V40h.36V27h-.36V20.4a2.94,2.94,0,0,0-2.94-2.94H84.8a2.94,2.94,0,0,0-2.93,2.94V27h-.36V40h.36Z"/></clipPath></defs><g class="cls-2"><g id="Layer_2" data-name="Layer 2"><g id="Игра"><circle class="cls-1" cx="100" cy="100" r="100"/><path class="cls-3" d="M128,21H107.33a3.19,3.19,0,0,0-3.19,3.19V175.78a3.19,3.19,0,0,0,3.19,3.19H128a3.19,3.19,0,0,0,3.19-3.19V24.22A3.19,3.19,0,0,0,128,21Zm-10.43,9a3.64,3.64,0,1,1,3.63-3.64A3.64,3.64,0,0,1,117.59,30Z"/><rect class="cls-4" x="104.14" y="169.31" width="7.07" height="0.85"/><rect class="cls-4" x="104.14" y="153.99" width="7.07" height="0.85"/><rect class="cls-4" x="104.14" y="138.67" width="7.07" height="0.85"/><rect class="cls-4" x="104.14" y="123.34" width="7.07" height="0.85"/><rect class="cls-4" x="104.14" y="108.02" width="7.07" height="0.85"/><rect class="cls-4" x="104.14" y="92.7" width="7.07" height="0.85"/><rect class="cls-4" x="104.14" y="77.38" width="7.07" height="0.85"/><rect class="cls-4" x="104.14" y="62.06" width="7.07" height="0.85"/><rect class="cls-4" x="104.14" y="46.74" width="7.07" height="0.85"/><rect class="cls-4" x="104.14" y="31.41" width="7.07" height="0.85"/><rect class="cls-4" x="104.14" y="169.52" width="3.53" height="0.43"/><rect class="cls-4" x="104.14" y="161.86" width="3.53" height="0.43"/><rect class="cls-4" x="104.14" y="154.2" width="3.53" height="0.43"/><rect class="cls-4" x="104.14" y="146.54" width="3.53" height="0.43"/><rect class="cls-4" x="104.14" y="138.88" width="3.53" height="0.43"/><rect class="cls-4" x="104.14" y="131.22" width="3.53" height="0.43"/><rect class="cls-4" x="104.14" y="123.56" width="3.53" height="0.43"/><rect class="cls-4" x="104.14" y="115.9" width="3.53" height="0.43"/><rect class="cls-4" x="104.14" y="108.24" width="3.53" height="0.43"/><rect class="cls-4" x="104.14" y="100.57" width="3.53" height="0.43"/><rect class="cls-4" x="104.14" y="92.91" width="3.53" height="0.43"/><rect class="cls-4" x="104.14" y="85.25" width="3.53" height="0.43"/><rect class="cls-4" x="104.14" y="77.59" width="3.53" height="0.43"/><rect class="cls-4" x="104.14" y="69.93" width="3.53" height="0.43"/><rect class="cls-4" x="104.14" y="62.27" width="3.53" height="0.43"/><rect class="cls-4" x="104.14" y="54.61" width="3.53" height="0.43"/><rect class="cls-4" x="104.14" y="46.95" width="3.53" height="0.43"/><rect class="cls-4" x="104.14" y="39.29" width="3.53" height="0.43"/><rect class="cls-4" x="104.14" y="31.63" width="3.53" height="0.43"/><path class="Shadow" d="M114,26.39a3.63,3.63,0,0,1,3.63-3.63V21H107.33a3.19,3.19,0,0,0-3.19,3.19V175.78a3.19,3.19,0,0,0,3.19,3.19h10.25V30A3.64,3.64,0,0,1,114,26.39Z"/><g class="cls-5"><polygon class="cls-6" points="86.59 183.01 81.87 163.64 91.32 163.64 86.59 183.01"/><path class="cls-3" d="M91.32,163.64V28.47H81.87V163.64H79.73a3,3,0,0,0,4.58,0,2.55,2.55,0,0,0,2.28,1,2.58,2.58,0,0,0,2.29-1,3,3,0,0,0,4.58,0Z"/><rect class="cls-7" x="81.03" y="26.95" width="11.12" height="13.03"/><rect class="cls-8" x="81.03" y="26.95" width="11.12" height="2.07"/><rect class="cls-8" x="81.33" y="37.9" width="11.12" height="2.07"/><rect class="cls-8" x="84.49" y="178" width="4.03" height="6.61"/><rect class="cls-9" x="81.83" y="17.23" width="9.48" height="9.72"/></g><path class="Shadow" d="M84.31,20a2.29,2.29,0,0,1,2.28-2.55H84.8a2.94,2.94,0,0,0-2.93,2.94V27h-.36V40h.36V163.64L86.59,183,84.3,163.64Z"/><path class="Light" d="M86.59,183l4.73-19.37V40h.36V27h-.36V20.4a2.94,2.94,0,0,0-2.94-2.94H86.59c1.34,0,2.29.66,2.29,2.55V163.64Z"/></g></g></g></svg>