<svg xmlns="http://www.w3.org/2000/svg" viewBox="0 0 200 200"><defs><style>.cls-1{isolation:isolate;}.cls-2{fill:none;}.cls-3{fill:#ffe299;}.Light,.Shadow,.cls-4{mix-blend-mode:soft-light;}.Light,.cls-5{fill:#ededed;}.Shadow{fill:#373737;}</style></defs><g class="cls-1"><g id="Layer_2" data-name="Layer 2"><g id="Игра"><circle class="cls-2" cx="100" cy="100" r="100"/><path class="cls-3" d="M56.81,33.78h87.25a5.1,5.1,0,0,1,5.1,5.1V161.12a5.1,5.1,0,0,1-5.1,5.1H56.81a0,0,0,0,1,0,0V33.78A0,0,0,0,1,56.81,33.78Z"/><g class="cls-4"><path class="cls-2" d="M104.34,165.64s3.56-3,6.41-3,6.41,3,6.41,3-.28.24-.75.58h27.65a5.1,5.1,0,0,0,5.1-5.1V145.9a9,9,0,0,1-4.23,1.47c-2.85,0-6.41-3-6.41-3s3.56-3,6.41-3a9,9,0,0,1,4.23,1.47V116.63c-1.29.88-3.38,2.07-5.18,2.07-2.85,0-6.41-3-6.41-3s3.56-3,6.41-3c1.8,0,3.89,1.19,5.18,2.07V99.47c-.32-.24-.51-.4-.51-.4s.19-.16.51-.4V87.27C148.27,88,145.41,90,143,90c-2.85,0-6.41-3-6.41-3s3.56-3,6.41-3c2.38,0,5.24,2.07,6.13,2.76V71.47a16.9,16.9,0,0,1-1.46-1.07s.58-.48,1.46-1.06V43.39a18.36,18.36,0,0,1-2.41-1.66,18.93,18.93,0,0,1,2.41-1.65v-1.2a5.1,5.1,0,0,0-5.1-5.1H123.73c.45.32.72.55.72.55s-3.56,3-6.41,3-6.41-3-6.41-3,.27-.23.71-.55H62.69a7.13,7.13,0,0,1-2.88.75,7.21,7.21,0,0,1-2.88-.75h-.12V58.54a8.58,8.58,0,0,1,3.95-1.31c2.85,0,6.41,3,6.41,3s-3.56,3-6.41,3a8.58,8.58,0,0,1-3.95-1.31V87.78a10,10,0,0,1,4.9-1.88c2.85,0,6.41,3,6.41,3s-3.56,3-6.41,3A10.06,10.06,0,0,1,56.81,90v15.36l.24.19-.24.19v11.39c1.11-.83,3.68-2.55,5.85-2.55,2.85,0,6.41,3,6.41,3s-3.56,3-6.41,3c-2.17,0-4.74-1.72-5.85-2.55v15.32c.72.5,1.18.88,1.18.88s-.46.39-1.18.88v26.3a19.36,19.36,0,0,1,2.13,1.49,17.88,17.88,0,0,1-2.13,1.49v1.87h48.28C104.63,165.88,104.34,165.64,104.34,165.64ZM109.8,140c-2.85,0-6.41-3-6.41-3s3.56-3,6.41-3,6.42,3,6.42,3S112.65,140,109.8,140Zm-.94-34.64c2.85,0,6.41,3,6.41,3s-3.56,3-6.41,3-6.41-3-6.41-3S106,105.32,108.86,105.32Zm-12-6c-2.85,0-6.41-3-6.41-3s3.56-3,6.41-3,6.42,3,6.42,3S99.68,99.27,96.83,99.27Zm24,18.08c2.85,0,6.41,3,6.41,3s-3.56,3-6.41,3-6.41-3-6.41-3S118,117.35,120.88,117.35Zm-.95-22.7c-2.85,0-6.41-3-6.41-3s3.56-3,6.41-3,6.41,3,6.41,3S122.78,94.65,119.93,94.65Zm-12-12c-2.85,0-6.41-3-6.41-3s3.56-3,6.41-3,6.41,3,6.41,3S110.76,82.63,107.91,82.63Zm-12-12c-2.85,0-6.42-3-6.42-3s3.57-3,6.42-3,6.41,3,6.41,3S98.74,70.61,95.89,70.61ZM91.22,84.26s-3.56,3-6.41,3-6.41-3-6.41-3,3.56-3,6.41-3S91.22,84.26,91.22,84.26Zm-5.46,25.68c2.85,0,6.41,3,6.41,3s-3.56,3-6.41,3-6.41-3-6.41-3S82.91,109.94,85.76,109.94Zm12,12c2.85,0,6.41,3,6.41,3s-3.56,3-6.41,3-6.41-3-6.41-3S94.93,122,97.78,122Zm17.64,27s3.56-3,6.41-3,6.41,3,6.41,3-3.56,3-6.41,3S115.42,149,115.42,149Zm24.84,12s-3.56,3-6.41,3-6.41-3-6.41-3,3.56-3,6.41-3S140.26,161,140.26,161Zm-.94-28.66s-3.57,3-6.42,3-6.41-3-6.41-3,3.56-3,6.41-3S139.32,132.36,139.32,132.36Zm-.95-28.67s-3.56,3-6.41,3-6.41-3-6.41-3,3.56-3,6.41-3S138.37,103.69,138.37,103.69ZM131,78c-2.85,0-6.41-3-6.41-3s3.56-3,6.41-3,6.41,3,6.41,3S133.86,78,131,78ZM148.5,58.38s-3.56,3-6.41,3-6.42-3-6.42-3,3.57-3,6.42-3S148.5,58.38,148.5,58.38Zm-18.44-15c2.85,0,6.41,3,6.41,3s-3.56,3-6.41,3-6.41-3-6.41-3S127.21,43.37,130.06,43.37ZM119,60c2.85,0,6.41,3,6.41,3s-3.56,3-6.41,3-6.42-3-6.42-3S116.14,60,119,60Zm-5.62-9s-3.56,3-6.41,3-6.41-3-6.41-3,3.56-3,6.41-3S113.37,51,113.37,51ZM94.94,36c2.85,0,6.41,3,6.41,3s-3.56,3-6.41,3-6.41-3-6.41-3S92.09,36,94.94,36ZM90.27,55.59s-3.56,3-6.41,3-6.41-3-6.41-3,3.56-3,6.41-3S90.27,55.59,90.27,55.59Zm-24.84-12s3.56-3,6.41-3,6.41,3,6.41,3-3.56,3-6.41,3S65.43,43.57,65.43,43.57Zm.94,28.67s3.57-3,6.42-3,6.41,3,6.41,3-3.56,3-6.41,3S66.37,72.24,66.37,72.24Zm.95,28.67s3.56-3,6.41-3,6.41,3,6.41,3-3.56,3-6.41,3S67.32,100.91,67.32,100.91Zm7.36,25.68c2.85,0,6.41,3,6.41,3s-3.56,3-6.41,3-6.41-3-6.41-3S71.83,126.59,74.68,126.59ZM57.19,146.22s3.56-3,6.41-3,6.42,3,6.42,3-3.57,3-6.42,3S57.19,146.22,57.19,146.22Zm18.44,15c-2.85,0-6.41-3-6.41-3s3.56-3,6.41-3,6.41,3,6.41,3S78.48,161.23,75.63,161.23Zm4.66-19.63s3.56-3,6.41-3,6.42,3,6.42,3-3.57,3-6.42,3S80.29,141.6,80.29,141.6Zm12,12s3.56-3,6.41-3,6.41,3,6.41,3-3.56,3-6.41,3S92.32,153.62,92.32,153.62Z"/><path class="cls-5" d="M149.16,43.39V40.08a18.93,18.93,0,0,0-2.41,1.65A18.36,18.36,0,0,0,149.16,43.39Z"/><path class="cls-5" d="M118,37.32c2.85,0,6.41-3,6.41-3s-.27-.23-.72-.55H112.34c-.44.32-.71.55-.71.55S115.19,37.32,118,37.32Z"/><path class="cls-5" d="M136.47,46.35s-3.56-3-6.41-3-6.41,3-6.41,3,3.56,3,6.41,3S136.47,46.35,136.47,46.35Z"/><path class="cls-5" d="M142.09,61.37c2.85,0,6.41-3,6.41-3s-3.56-3-6.41-3-6.42,3-6.42,3S139.24,61.37,142.09,61.37Z"/><path class="cls-5" d="M149.16,71.47V69.34c-.88.58-1.46,1.06-1.46,1.06A16.9,16.9,0,0,0,149.16,71.47Z"/><path class="cls-5" d="M101.35,39s-3.56-3-6.41-3-6.41,3-6.41,3,3.56,3,6.41,3S101.35,39,101.35,39Z"/><path class="cls-5" d="M107,54c2.85,0,6.41-3,6.41-3s-3.56-3-6.41-3-6.41,3-6.41,3S104.11,54,107,54Z"/><path class="cls-5" d="M119,66c2.85,0,6.41-3,6.41-3s-3.56-3-6.41-3-6.42,3-6.42,3S116.14,66,119,66Z"/><path class="cls-5" d="M124.6,75s3.56,3,6.41,3,6.41-3,6.41-3-3.56-3-6.41-3S124.6,75,124.6,75Z"/><path class="cls-5" d="M136.62,87.05s3.56,3,6.41,3c2.38,0,5.24-2.06,6.13-2.76v-.45c-.89-.69-3.75-2.76-6.13-2.76C140.18,84.06,136.62,87.05,136.62,87.05Z"/><path class="cls-5" d="M149.16,99.47v-.8c-.32.24-.51.4-.51.4S148.84,99.23,149.16,99.47Z"/><path class="cls-5" d="M62.69,33.78H56.93a7.21,7.21,0,0,0,2.88.75A7.13,7.13,0,0,0,62.69,33.78Z"/><path class="cls-5" d="M78.25,43.57s-3.56-3-6.41-3-6.41,3-6.41,3,3.56,3,6.41,3S78.25,43.57,78.25,43.57Z"/><path class="cls-5" d="M83.86,58.58c2.85,0,6.41-3,6.41-3s-3.56-3-6.41-3-6.41,3-6.41,3S81,58.58,83.86,58.58Z"/><path class="cls-5" d="M89.47,67.62s3.57,3,6.42,3,6.41-3,6.41-3-3.56-3-6.41-3S89.47,67.62,89.47,67.62Z"/><path class="cls-5" d="M101.5,79.64s3.56,3,6.41,3,6.41-3,6.41-3-3.56-3-6.41-3S101.5,79.64,101.5,79.64Z"/><path class="cls-5" d="M119.93,88.68c-2.85,0-6.41,3-6.41,3s3.56,3,6.41,3,6.41-3,6.41-3S122.78,88.68,119.93,88.68Z"/><path class="cls-5" d="M125.55,103.69s3.56,3,6.41,3,6.41-3,6.41-3-3.56-3-6.41-3S125.55,103.69,125.55,103.69Z"/><path class="cls-5" d="M137.57,115.71s3.56,3,6.41,3c1.8,0,3.89-1.19,5.18-2.07V114.8c-1.29-.88-3.38-2.07-5.18-2.07C141.13,112.73,137.57,115.71,137.57,115.71Z"/><path class="cls-5" d="M67.17,60.21s-3.56-3-6.41-3a8.58,8.58,0,0,0-3.95,1.31v3.35a8.58,8.58,0,0,0,3.95,1.31C63.61,63.2,67.17,60.21,67.17,60.21Z"/><path class="cls-5" d="M79.2,72.24s-3.56-3-6.41-3-6.42,3-6.42,3,3.57,3,6.42,3S79.2,72.24,79.2,72.24Z"/><path class="cls-5" d="M78.4,84.26s3.56,3,6.41,3,6.41-3,6.41-3-3.56-3-6.41-3S78.4,84.26,78.4,84.26Z"/><path class="cls-5" d="M90.42,96.29s3.56,3,6.41,3,6.42-3,6.42-3-3.57-3-6.42-3S90.42,96.29,90.42,96.29Z"/><path class="cls-5" d="M115.27,108.31s-3.56-3-6.41-3-6.41,3-6.41,3,3.56,3,6.41,3S115.27,108.31,115.27,108.31Z"/><path class="cls-5" d="M127.29,120.33s-3.56-3-6.41-3-6.41,3-6.41,3,3.56,3,6.41,3S127.29,120.33,127.29,120.33Z"/><path class="cls-5" d="M126.49,132.36s3.56,3,6.41,3,6.42-3,6.42-3-3.57-3-6.42-3S126.49,132.36,126.49,132.36Z"/><path class="cls-5" d="M138.52,144.38s3.56,3,6.41,3a9,9,0,0,0,4.23-1.47v-3a9,9,0,0,0-4.23-1.47C142.08,141.39,138.52,144.38,138.52,144.38Z"/><path class="cls-5" d="M68.12,88.88s-3.56-3-6.41-3a10,10,0,0,0-4.9,1.88V90a10.06,10.06,0,0,0,4.9,1.89C64.56,91.87,68.12,88.88,68.12,88.88Z"/><path class="cls-5" d="M80.14,100.91s-3.56-3-6.41-3-6.41,3-6.41,3,3.56,3,6.41,3S80.14,100.91,80.14,100.91Z"/><path class="cls-5" d="M85.76,115.92c2.85,0,6.41-3,6.41-3s-3.56-3-6.41-3-6.41,3-6.41,3S82.91,115.92,85.76,115.92Z"/><path class="cls-5" d="M104.19,125s-3.56-3-6.41-3-6.41,3-6.41,3,3.56,3,6.41,3S104.19,125,104.19,125Z"/><path class="cls-5" d="M109.8,134c-2.85,0-6.41,3-6.41,3s3.56,3,6.41,3,6.42-3,6.42-3S112.65,134,109.8,134Z"/><path class="cls-5" d="M121.83,146c-2.85,0-6.41,3-6.41,3s3.56,3,6.41,3,6.41-3,6.41-3S124.68,146,121.83,146Z"/><path class="cls-5" d="M127.44,161s3.56,3,6.41,3,6.41-3,6.41-3-3.56-3-6.41-3S127.44,161,127.44,161Z"/><path class="cls-5" d="M56.81,105.34v.38l.24-.19Z"/><path class="cls-5" d="M69.07,117.55s-3.56-3-6.41-3c-2.17,0-4.74,1.72-5.85,2.55V118c1.11.83,3.68,2.55,5.85,2.55C65.51,120.54,69.07,117.55,69.07,117.55Z"/><path class="cls-5" d="M81.09,129.57s-3.56-3-6.41-3-6.41,3-6.41,3,3.56,3,6.41,3S81.09,129.57,81.09,129.57Z"/><path class="cls-5" d="M86.7,138.61c-2.85,0-6.41,3-6.41,3s3.56,3,6.41,3,6.42-3,6.42-3S89.55,138.61,86.7,138.61Z"/><path class="cls-5" d="M98.73,150.63c-2.85,0-6.41,3-6.41,3s3.56,3,6.41,3,6.41-3,6.41-3S101.58,150.63,98.73,150.63Z"/><path class="cls-5" d="M110.75,162.66c-2.85,0-6.41,3-6.41,3s.29.24.75.58h11.32c.47-.34.75-.58.75-.58S113.6,162.66,110.75,162.66Z"/><path class="cls-5" d="M56.81,133.31v1.76c.72-.49,1.18-.88,1.18-.88S57.53,133.81,56.81,133.31Z"/><path class="cls-5" d="M63.6,143.23c-2.85,0-6.41,3-6.41,3s3.56,3,6.41,3,6.42-3,6.42-3S66.45,143.23,63.6,143.23Z"/><path class="cls-5" d="M69.22,158.24s3.56,3,6.41,3,6.41-3,6.41-3-3.56-3-6.41-3S69.22,158.24,69.22,158.24Z"/><path class="cls-5" d="M56.81,161.37v3a17.88,17.88,0,0,0,2.13-1.49A19.36,19.36,0,0,0,56.81,161.37Z"/></g><path class="Light" d="M144.06,33.78H56.81V60A144.23,144.23,0,0,1,103,51.88c20.34,0,37,11,46.18,18.76V38.88A5.1,5.1,0,0,0,144.06,33.78Z"/><polygon class="cls-3" points="50.84 33.78 56.81 33.78 56.81 166.22 50.84 163.38 50.84 33.78"/><polygon class="Shadow" points="50.84 33.78 56.81 33.78 56.81 166.22 50.84 163.38 50.84 33.78"/><rect class="Shadow" x="134.67" y="33.78" width="3.66" height="132.44"/><path class="cls-5" d="M140.16,166.22a2.59,2.59,0,0,1-3.66,0V33.78a2.59,2.59,0,0,1,3.66,0Z"/></g></g></g></svg>