<svg xmlns="http://www.w3.org/2000/svg" xmlns:xlink="http://www.w3.org/1999/xlink" viewBox="0 0 200 200"><defs><style>.cls-1{fill:#dbdbdb;}.cls-2{isolation:isolate;}.cls-3{fill:none;}.cls-4{clip-path:url(#clip-path);}.cls-5{fill:#f26549;}.Light{fill:#ededed;}.Light,.Shadow{mix-blend-mode:soft-light;}.cls-6{fill:#929292;}.Shadow{fill:#373737;}.cls-7{clip-path:url(#clip-path-2);}.cls-8{clip-path:url(#clip-path-3);}</style><clipPath id="clip-path"><path class="cls-1" d="M67.36,141.79a78,78,0,0,1-13.15,0,7.52,7.52,0,0,1-6.51-7q-2.45-45-4.85-90.09a76.88,76.88,0,0,0,35.88,0q-2.42,45.12-4.85,90.09A7.52,7.52,0,0,1,67.36,141.79Z"/></clipPath><clipPath id="clip-path-2"><path class="cls-1" d="M107.45,141.79a78,78,0,0,1-13.15,0,7.53,7.53,0,0,1-6.51-7q-2.43-45-4.85-90.09a76.88,76.88,0,0,0,35.88,0q-2.41,45.12-4.85,90.09A7.52,7.52,0,0,1,107.45,141.79Z"/></clipPath><clipPath id="clip-path-3"><path class="cls-1" d="M147.62,141.79a78,78,0,0,1-13.15,0,7.52,7.52,0,0,1-6.51-7q-2.44-45-4.85-90.09a76.88,76.88,0,0,0,35.88,0q-2.42,45.12-4.85,90.09A7.53,7.53,0,0,1,147.62,141.79Z"/></clipPath></defs><g class="cls-2"><g id="Layer_2" data-name="Layer 2"><g id="Игра"><circle class="cls-3" cx="100" cy="100" r="100"/><path class="cls-1" d="M67.36,141.79a78,78,0,0,1-13.15,0,7.52,7.52,0,0,1-6.51-7q-2.45-45-4.85-90.09a76.88,76.88,0,0,0,35.88,0q-2.42,45.12-4.85,90.09A7.52,7.52,0,0,1,67.36,141.79Z"/><g class="cls-4"><path class="cls-5" d="M77.44,84.29a77,77,0,0,1-34.08-.17V68.53a76.87,76.87,0,0,0,34.08.18Z"/><path class="cls-5" d="M77.44,92.61a76.72,76.72,0,0,1-34.08-.17V87.5a76.87,76.87,0,0,0,34.08.18Z"/><path class="cls-5" d="M77.44,99.17A76.87,76.87,0,0,1,43.36,99V96.53a76.87,76.87,0,0,0,34.08.18Z"/><path class="Light" d="M71.38,62c1-11.28,3.17-4.91,3.18-4.91q-2,37.5-4,74.92c-.08,1.42-2.39,7.5-2.7.66C67.39,122.66,69.87,79.84,71.38,62Z"/></g><path class="cls-6" d="M67.33,146.61a77,77,0,0,1-12.52,0v-4.82a77,77,0,0,0,12.52-.05Z"/><path class="cls-5" d="M70.44,153.72a77,77,0,0,1-19.3,0,1,1,0,0,1-.86-.81l-1.2-5.85a.76.76,0,0,1,.86-.94,76.51,76.51,0,0,0,21.69,0,.75.75,0,0,1,.87.94l-1.2,5.85A1,1,0,0,1,70.44,153.72Z"/><path class="Shadow" d="M49.94,146.12a.75.75,0,0,0-.86.94l1.2,5.85a1,1,0,0,0,.86.81c2,.26,4.1.43,6.15.53-.48-2.5-.95-5-1.43-7.52C53.88,146.61,51.91,146.4,49.94,146.12Z"/><path class="Shadow" d="M57.63,146.83c-.94,0-1.88-.1-2.82-.17v-4.82c.94.07,1.88.13,2.82.16Z"/><path class="Shadow" d="M67.33,142.46a76.63,76.63,0,0,1-9.7.22V142a74.81,74.81,0,0,0,9.7-.21Z"/><path class="Shadow" d="M78.54,48.31a76.87,76.87,0,0,1-35.5,0c0,.31,0,.63.05.95a76.94,76.94,0,0,0,35.39,0Z"/><path class="Shadow" d="M42.92,46.06c.06,1.07.12,2.13.17,3.2a76.94,76.94,0,0,0,35.39,0c.09-1.53.17-3,.25-4.57a76.85,76.85,0,0,1-35.81,0Z"/><path class="Shadow" d="M56.73,46.7a77.69,77.69,0,0,1-13.88-2q2.41,45.12,4.85,90.09a7.53,7.53,0,0,0,6.51,7c2.41.21,4.77.28,6.58.28C50.63,141.73,49.41,46,56.73,46.7Z"/><path class="cls-1" d="M107.45,141.79a78,78,0,0,1-13.15,0,7.53,7.53,0,0,1-6.51-7q-2.43-45-4.85-90.09a76.88,76.88,0,0,0,35.88,0q-2.41,45.12-4.85,90.09A7.52,7.52,0,0,1,107.45,141.79Z"/><g class="cls-7"><path class="cls-5" d="M117.53,84.29a77,77,0,0,1-34.08-.17V68.53a76.87,76.87,0,0,0,34.08.18Z"/><path class="cls-5" d="M117.53,92.61a76.72,76.72,0,0,1-34.08-.17V87.5a76.87,76.87,0,0,0,34.08.18Z"/><path class="cls-5" d="M117.53,99.17A76.87,76.87,0,0,1,83.45,99V96.53a76.87,76.87,0,0,0,34.08.18Z"/><path class="Light" d="M111.47,62c1-11.28,3.18-4.91,3.18-4.91q-2,37.5-4,74.92c-.08,1.42-2.39,7.5-2.7.66C107.48,122.66,110,79.84,111.47,62Z"/></g><path class="cls-6" d="M107.42,146.61a77,77,0,0,1-12.52,0v-4.82a77,77,0,0,0,12.52-.05Z"/><path class="cls-5" d="M110.53,153.72a77,77,0,0,1-19.3,0,1,1,0,0,1-.86-.81l-1.2-5.85a.76.76,0,0,1,.86-.94,76.58,76.58,0,0,0,21.7,0,.75.75,0,0,1,.86.94l-1.2,5.85A1,1,0,0,1,110.53,153.72Z"/><path class="Shadow" d="M90,146.12a.75.75,0,0,0-.86.94l1.2,5.85a1,1,0,0,0,.86.81c2,.26,4.1.43,6.15.53-.48-2.5-.95-5-1.43-7.52C94,146.61,92,146.4,90,146.12Z"/><path class="Shadow" d="M97.72,146.83c-.94,0-1.88-.1-2.82-.17v-4.82c.94.07,1.88.13,2.82.16Z"/><path class="Shadow" d="M107.42,142.46a76.59,76.59,0,0,1-9.7.22V142a74.81,74.81,0,0,0,9.7-.21Z"/><path class="Shadow" d="M118.63,48.31a76.87,76.87,0,0,1-35.5,0c0,.31,0,.63.05.95a77,77,0,0,0,35.4,0C118.59,48.94,118.61,48.62,118.63,48.31Z"/><path class="Shadow" d="M83,46.06c.06,1.07.12,2.13.17,3.2a77,77,0,0,0,35.4,0l.24-4.57A76.85,76.85,0,0,1,83,44.7Z"/><path class="Shadow" d="M96.82,46.7a77.69,77.69,0,0,1-13.88-2q2.41,45.12,4.85,90.09a7.53,7.53,0,0,0,6.51,7c2.41.21,4.77.28,6.58.28C90.72,141.73,89.5,46,96.82,46.7Z"/><path class="cls-1" d="M147.62,141.79a78,78,0,0,1-13.15,0,7.52,7.52,0,0,1-6.51-7q-2.44-45-4.85-90.09a76.88,76.88,0,0,0,35.88,0q-2.42,45.12-4.85,90.09A7.53,7.53,0,0,1,147.62,141.79Z"/><g class="cls-8"><path class="cls-5" d="M157.7,84.29a77,77,0,0,1-34.08-.17V68.53a76.87,76.87,0,0,0,34.08.18Z"/><path class="cls-5" d="M157.7,92.61a76.72,76.72,0,0,1-34.08-.17V87.5a76.87,76.87,0,0,0,34.08.18Z"/><path class="cls-5" d="M157.7,99.17A76.87,76.87,0,0,1,123.62,99V96.53a76.87,76.87,0,0,0,34.08.18Z"/><path class="Light" d="M151.64,62c1-11.28,3.17-4.91,3.17-4.91q-2,37.5-4,74.92c-.07,1.42-2.38,7.5-2.7.66C147.65,122.66,150.13,79.84,151.64,62Z"/></g><path class="cls-6" d="M147.59,146.61a77,77,0,0,1-12.52,0v-4.82a77,77,0,0,0,12.52-.05Z"/><path class="cls-5" d="M150.69,153.72a76.87,76.87,0,0,1-19.29,0,1,1,0,0,1-.86-.81l-1.2-5.85a.75.75,0,0,1,.86-.94,76.51,76.51,0,0,0,21.69,0,.75.75,0,0,1,.86.94q-.58,2.92-1.19,5.85A1,1,0,0,1,150.69,153.72Z"/><path class="Shadow" d="M130.2,146.12a.75.75,0,0,0-.86.94l1.2,5.85a1,1,0,0,0,.86.81c2,.26,4.09.43,6.15.53q-.72-3.75-1.43-7.52C134.14,146.61,132.17,146.4,130.2,146.12Z"/><path class="Shadow" d="M137.89,146.83c-.94,0-1.88-.1-2.82-.17v-4.82c.94.07,1.88.13,2.82.16Z"/><path class="Shadow" d="M147.59,142.46a76.63,76.63,0,0,1-9.7.22V142a74.81,74.81,0,0,0,9.7-.21Z"/><path class="Shadow" d="M158.79,48.31a76.82,76.82,0,0,1-35.49,0c0,.31,0,.63,0,.95a76.94,76.94,0,0,0,35.39,0C158.76,48.94,158.78,48.62,158.79,48.31Z"/><path class="Shadow" d="M123.18,46.06c.06,1.07.11,2.13.17,3.2a76.94,76.94,0,0,0,35.39,0c.08-1.53.17-3,.25-4.57a76.85,76.85,0,0,1-35.81,0Z"/><path class="Shadow" d="M137,46.7a77.71,77.71,0,0,1-13.87-2q2.4,45.12,4.85,90.09a7.52,7.52,0,0,0,6.51,7c2.41.21,4.76.28,6.58.28C130.89,141.73,129.67,46,137,46.7Z"/></g></g></g></svg>