<svg xmlns="http://www.w3.org/2000/svg" xmlns:xlink="http://www.w3.org/1999/xlink" viewBox="0 0 200 200"><defs><style>.cls-1{fill:#f26549;}.cls-2{isolation:isolate;}.cls-3{fill:none;}.cls-4{clip-path:url(#clip-path);}.cls-5{fill:#dbdbdb;}.cls-6{fill:#929292;}.Shadow,.cls-7{mix-blend-mode:soft-light;}.Shadow{fill:#373737;}.cls-8{fill:#996c4c;}.cls-9{clip-path:url(#clip-path-2);}.cls-10{fill:gray;}.cls-11{clip-path:url(#clip-path-3);}.cls-12{clip-path:url(#clip-path-4);}</style><clipPath id="clip-path"><path class="cls-1" d="M90.59,112.92c0-28.48-1.79-72-1.79-72a4,4,0,0,0-5.28,0s-1.78,43.5-1.78,72,.57,74.58,4.42,74.58S90.59,141.39,90.59,112.92Z"/></clipPath><clipPath id="clip-path-2"><path class="cls-1" d="M116.21,110.94c0-29.23-1.83-73.88-1.83-73.88a4.08,4.08,0,0,0-5.42,0s-1.83,44.65-1.83,73.88.59,76.56,4.54,76.56S116.21,140.17,116.21,110.94Z"/></clipPath><clipPath id="clip-path-3"><path class="cls-1" d="M70.25,118.84C70.25,92.62,69,52.58,69,52.58a2.27,2.27,0,0,0-3.65,0s-1.23,40-1.23,66.26.39,68.66,3,68.66S70.25,145.06,70.25,118.84Z"/></clipPath><clipPath id="clip-path-4"><path class="cls-1" d="M137.08,118.84c0-26.22-1.23-66.26-1.23-66.26a2.26,2.26,0,0,0-3.64,0s-1.24,40-1.24,66.26.4,68.66,3.06,68.66S137.08,145.06,137.08,118.84Z"/></clipPath></defs><g class="cls-2"><g id="Layer_2" data-name="Layer 2"><g id="Игра"><circle class="cls-3" cx="100" cy="100" r="100"/><path class="cls-1" d="M90.59,112.92c0-28.48-1.79-72-1.79-72a4,4,0,0,0-5.28,0s-1.78,43.5-1.78,72,.57,74.58,4.42,74.58S90.59,141.39,90.59,112.92Z"/><g class="cls-4"><path class="cls-5" d="M105.47,62.26a36.94,36.94,0,0,1-38.61,0L81.74,38a8.49,8.49,0,0,0,8.85,0Z"/><path class="cls-6" d="M90.59,66.46a8.49,8.49,0,0,1-8.85,0l-.9,1.46a10.18,10.18,0,0,0,10.64,0C91.18,67.43,90.89,66.94,90.59,66.46Z"/><path class="cls-6" d="M90.59,39.94a8.44,8.44,0,0,1-8.85,0l-.9,1.46a10.18,10.18,0,0,0,10.64,0C91.18,40.92,90.89,40.43,90.59,39.94Z"/><g class="cls-7"><path class="cls-5" d="M84.74,41.66c.06,4.22,0,8.45,0,12.68L84.69,67l-.26,25.34-.05,6.33,0,6.34c0,4.22,0,8.45,0,12.67l-.12,12.68c-.11,4.22-.15,8.45-.31,12.68-.25-4.22-.38-8.45-.57-12.67L83,117.7c-.21-8.45-.46-16.9-.37-25.36S83,75.43,83.31,67l.6-12.67C84.18,50.09,84.39,45.87,84.74,41.66Z"/></g></g><path class="Shadow" d="M88.8,40.94a3.34,3.34,0,0,0-1.39-.81c.66,30.18,1.59,115.6-1.25,147.37,3.86,0,4.43-46.11,4.43-74.58S88.8,40.94,88.8,40.94Z"/><path class="cls-8" d="M86.16,12.5C85,18.07,79.74,25.2,79.74,32.84s4.57,8.71,6.42,8.71,6.43-1.07,6.43-8.71S87.3,18.07,86.16,12.5Z"/><g class="cls-7"><path class="cls-5" d="M86.16,16.69a13.82,13.82,0,0,1-.7,5.56c-.52,1.79-1.15,3.52-1.72,5.23-.3.86-.5,1.69-.71,2.54a22.28,22.28,0,0,0-.38,2.58A20,20,0,0,0,82.89,38a10,10,0,0,1-1.78-5.4,13.92,13.92,0,0,1,1-5.68c.65-1.76,1.44-3.42,2.18-5.09A24.39,24.39,0,0,0,86.16,16.69Z"/></g><path class="Shadow" d="M87.44,41.4c2.12-.48,5.15-2.35,5.15-8.56S89.07,20.7,87.15,15.72C90.74,27.87,91.44,37.54,87.44,41.4Z"/><path class="cls-1" d="M116.21,110.94c0-29.23-1.83-73.88-1.83-73.88a4.08,4.08,0,0,0-5.42,0s-1.83,44.65-1.83,73.88.59,76.56,4.54,76.56S116.21,140.17,116.21,110.94Z"/><g class="cls-9"><path class="cls-5" d="M131.49,58.94a37.93,37.93,0,0,1-39.63,0L107.13,34a8.68,8.68,0,0,0,9.08,0Z"/><path class="cls-10" d="M116.21,63.25a8.68,8.68,0,0,1-9.08,0l-.92,1.5a10.46,10.46,0,0,0,10.92,0C116.83,64.25,116.52,63.75,116.21,63.25Z"/><path class="cls-6" d="M116.21,36a8.68,8.68,0,0,1-9.08,0l-.92,1.5a10.42,10.42,0,0,0,10.92,0C116.83,37,116.52,36.53,116.21,36Z"/><g class="cls-7"><path class="cls-5" d="M110.21,37.79c.06,4.34,0,8.68.05,13l-.1,13-.27,26,0,6.5,0,6.5c0,4.34,0,8.68,0,13l-.12,13c-.11,4.34-.15,8.68-.32,13-.25-4.33-.39-8.67-.59-13l-.39-13c-.15-4.33-.2-8.67-.29-13s-.13-8.68-.08-13q.15-13,.7-26l.61-13C109.63,46.45,109.86,42.12,110.21,37.79Z"/></g></g><path class="Shadow" d="M114.38,37.06a3.53,3.53,0,0,0-1.43-.83c.68,31,1.64,118.66-1.28,151.27,4,0,4.54-47.33,4.54-76.56S114.38,37.06,114.38,37.06Z"/><path class="cls-8" d="M111.67,12.5c-13,0-11,9.85-7.86,17.1s6,8.94,7.86,8.94,5.15-1.59,7.87-8.94C121.75,23.63,124.72,12.5,111.67,12.5Z"/><g class="cls-7"><path class="cls-5" d="M109.16,13.63a11.67,11.67,0,0,0-3.88,2.62,5.35,5.35,0,0,0-.83,4.07c.16,1.46.67,3.07.9,4.68a26.78,26.78,0,0,1,.47,4.94,23.58,23.58,0,0,1-2-4.55c-.27-.78-.5-1.57-.7-2.38a14.48,14.48,0,0,1-.42-2.54,8.6,8.6,0,0,1,.23-2.7,5.09,5.09,0,0,1,1.45-2.4A8.48,8.48,0,0,1,109.16,13.63Z"/></g><path class="Shadow" d="M113.15,38.24c1.86-.72,4.28-2.94,6.39-8.64,1.48-4,3.3-10.32.4-14.06C121,17.71,117.52,34.48,113.15,38.24Z"/><path class="cls-1" d="M70.25,118.84C70.25,92.62,69,52.58,69,52.58a2.27,2.27,0,0,0-3.65,0s-1.23,40-1.23,66.26.39,68.66,3,68.66S70.25,145.06,70.25,118.84Z"/><g class="cls-11"><path class="cls-5" d="M84,72.2a32.07,32.07,0,0,1-33.51,0l13.7-22.35a5.84,5.84,0,0,0,6.11,0Z"/><path class="cls-10" d="M70.25,76.07a5.84,5.84,0,0,1-6.11,0l-.82,1.34a7.4,7.4,0,0,0,7.75,0Z"/><path class="cls-10" d="M70.25,51.66a5.84,5.84,0,0,1-6.11,0L63.32,53a7.4,7.4,0,0,0,7.75,0Z"/></g><g class="cls-7"><path class="cls-5" d="M66.21,53.24c.1,3.89.1,7.78.16,11.67V76.58c0,7.78-.15,15.55-.21,23.33L66,105.74v5.83c0,3.89,0,7.78,0,11.67l-.11,11.67c-.09,3.89-.13,7.78-.26,11.67-.2-3.89-.29-7.78-.44-11.67l-.29-11.67c-.12-3.89-.13-7.78-.2-11.67l-.07-5.83.07-5.84c.18-7.78.3-15.56.54-23.34l.39-11.66C65.85,61,66,57.12,66.21,53.24Z"/></g><path class="Shadow" d="M69,52.58a2.33,2.33,0,0,0-1-.74c.45,27.77,1.1,106.41-.86,135.66,2.66,0,3-42.44,3-68.66S69,52.58,69,52.58Z"/><path class="cls-8" d="M67.19,24.29C66.54,30,63.52,37.35,63.52,45.2S66.13,53,67.19,53s3.68,0,3.68-7.83S67.85,30,67.19,24.29Z"/><path class="Shadow" d="M68.45,52.82c1.13-.49,2.42-2.12,2.42-7.62,0-6.41-2-12.48-3.11-17.6C69.63,39,70.12,48.28,68.45,52.82Z"/><g class="cls-7"><path class="cls-5" d="M67.19,28.6a21.66,21.66,0,0,1-.25,5.57c-.28,1.84-.63,3.65-1,5.45a46,46,0,0,0-.66,10.86A15.92,15.92,0,0,1,64.16,45a22.54,22.54,0,0,1,.5-5.62c.37-1.82.86-3.6,1.32-5.38A47,47,0,0,0,67.19,28.6Z"/></g><path class="cls-1" d="M137.08,118.84c0-26.22-1.23-66.26-1.23-66.26a2.26,2.26,0,0,0-3.64,0s-1.24,40-1.24,66.26.4,68.66,3.06,68.66S137.08,145.06,137.08,118.84Z"/><g class="cls-12"><path class="cls-5" d="M150.78,72.2a32.05,32.05,0,0,1-33.5,0L131,49.85a5.84,5.84,0,0,0,6.11,0Q143.94,61,150.78,72.2Z"/><path class="cls-10" d="M137.08,76.07a5.84,5.84,0,0,1-6.11,0l-.82,1.34a7.42,7.42,0,0,0,7.76,0Z"/><path class="cls-10" d="M137.08,51.66a5.84,5.84,0,0,1-6.11,0L130.15,53a7.42,7.42,0,0,0,7.76,0C137.63,52.56,137.36,52.11,137.08,51.66Z"/></g><g class="cls-7"><path class="cls-5" d="M133,53.24c.1,3.89.11,7.78.16,11.67V76.58c0,7.78-.14,15.55-.21,23.33l-.12,5.83v5.83c0,3.89.05,7.78,0,11.67l-.11,11.67c-.09,3.89-.13,7.78-.26,11.67-.19-3.89-.29-7.78-.44-11.67l-.29-11.67c-.12-3.89-.13-7.78-.19-11.67l-.07-5.83.06-5.84c.19-7.78.3-15.56.54-23.34l.39-11.66C132.69,61,132.82,57.12,133,53.24Z"/></g><path class="Shadow" d="M135.85,52.58a2.33,2.33,0,0,0-1-.74c.46,27.77,1.1,106.41-.86,135.66,2.66,0,3.05-42.44,3.05-68.66S135.85,52.58,135.85,52.58Z"/><path class="cls-8" d="M134,24.29c-.65,5.72-3.67,13.06-3.67,20.91S133,53,134,53s3.67,0,3.67-7.83S134.68,30,134,24.29Z"/><path class="Shadow" d="M135.28,52.82c1.14-.49,2.42-2.12,2.42-7.62,0-6.41-2-12.48-3.11-17.6C136.46,39,137,48.28,135.28,52.82Z"/><g class="cls-7"><path class="cls-5" d="M134,28.6a22.12,22.12,0,0,1-.26,5.57c-.27,1.84-.63,3.65-1,5.45a44,44,0,0,0-.64,5.37,45.68,45.68,0,0,0,0,5.49A15.7,15.7,0,0,1,131,45a22.54,22.54,0,0,1,.5-5.62c.38-1.82.86-3.6,1.32-5.38A49.26,49.26,0,0,0,134,28.6Z"/></g></g></g></g></svg>