<svg xmlns="http://www.w3.org/2000/svg" viewBox="0 0 200 200"><defs><style>.cls-1{isolation:isolate;}.cls-2,.cls-6{fill:none;}.cls-3{fill:#f26549;}.Light,.Shadow,.cls-4{mix-blend-mode:soft-light;}.Light,.cls-5{fill:#ededed;}.cls-6{stroke:#ededed;stroke-miterlimit:10;stroke-width:0.17px;}.Shadow,.cls-7{fill:#373737;}</style></defs><g class="cls-1"><g id="Layer_2" data-name="Layer 2"><g id="Игра"><circle class="cls-2" cx="100" cy="100" r="100"/><rect class="cls-3" x="23.41" y="54.34" width="153.25" height="98.36"/><g class="cls-4"><path class="cls-2" d="M175.17,144.06l1.5-1.49v-6.25h-2.16l2.16-3.74v-9.22l-2.2-.59,2.2-2.2V115H173.8l2.66-4.61.21.36v-8.52l-2.91-.78,2.41-2.4.5,1.86v-7.2H173.1l2.66-4.61.91,1.58V72.45H172.4l2.66-4.61,1.61,2.79V54.34h-17l.15.25h-5.32l.14-.25h-14.1L142.7,58h-5.32l2.13-3.68H126.33l1.11.64-1.89,1.09V54.34h-27L99.46,56H94.14l.93-1.61H88.81l.35,1.31-3.28-.88.42-.43H37.35l1.72,3H33.75l1.72-3H28.05L28.77,57l-3.29-.88,1.79-1.79H23.69l-.28.16V74.94l1.1.63-1.1.63V95.82l1.8,1-1.8,1v25.67l.61,1.06h-.61v19l1.32,2.27H23.41v6.79h6.16L31,150.23l1.42,2.47H74l.23-.4.23.4H82l-1.53-.41,2.4-2.41.75,2.82h5.56l2.21-3.83,2.21,3.83h26.54v-1.29L122,152.5l-.34.2h3.67l.75-.75.2.75h7.3l1-1.76,1,1.76h41v-8.24Zm.29-66.27.88,3.28-3.28-.88Zm-2.67,43.13L170.9,122v-2.18Zm2-64.42.88,3.28-3.28-.88Zm-4.57,44.22V98.54l1.89,1.09Zm-.7-21.29V77.25l1.89,1.09ZM168.79,56l1.89,1.09-1.89,1.09Zm-2,24.24,2.66,4.61h-5.32Zm-2.7-8.94,2.41-2.4.87,3.28Zm2-12.35,2.66,4.61h-5.32ZM163.86,112,162,113.08V110.9Zm-2.6-20.2V89.61l1.89,1.09Zm-.7-23.47,1.89,1.09-1.89,1.09Zm-2,24.24,2.66,4.61h-5.32Zm-2.69-8.94,2.4-2.4.88,3.28Zm4.65-7.74h-5.32l2.66-4.61Zm-4.93,48.47-1.89,1.09v-2.18Zm2-64.42.88,3.28-3.29-.88Zm-2.68,43.13L153,104.15V102Zm-2.6-20.2V80.68l1.89,1.09Zm-.7-23.47,1.89,1.09-1.89,1.09Zm-2,24.24,2.66,4.61H147ZM147,74.7l2.4-2.41.88,3.28Zm2-12.35,2.66,4.6h-5.32Zm-2.27,53.07-1.89,1.09v-2.18Zm-2.59-20.2V93L146,94.13Zm-.71-23.47,1.9,1.09-1.9,1.09Zm-2,24.25,2.66,4.6h-5.32Zm-2.7-8.94,2.4-2.41.88,3.29Zm4.65-7.75h-5.31l2.65-4.6Zm-3-16,.88,3.29-3.28-.88Zm-2.68,43.13-1.89,1.09V105.4Zm-2.59-20.2V84.11l1.89,1.09Zm-.71-23.47,1.9,1.09L134.47,65Zm-1.95,24.25,2.66,4.6h-5.32Zm-2.7-8.94,2.4-2.41L133.1,79Zm-.66-7.75,2.66-4.6,2.65,4.6Zm.39,48.47-1.89,1.09v-2.18Zm2-64.42.88,3.29-3.28-.88ZM127,98.65V96.47l1.89,1.09Zm-.7-23.47,1.89,1.09-1.89,1.09Zm0,7.56h-5.32l2.66-4.6ZM120.89,69.2l2.41-2.41.88,3.29Zm2-12.35,2.66,4.6h-5.32Zm-2.27,53.07L118.73,111v-2.18ZM118,89.72V87.54l1.89,1.09Zm-.7-23.47,1.89,1.09-1.89,1.09Zm-2,24.25L118,95.1H112.7Zm-2.69-8.94,2.4-2.41.88,3.29ZM112,73.81l2.66-4.6,2.66,4.6Zm.39,48.47-1.89,1.09v-2.18Zm2-64.42.88,3.29L112,60.27Zm-4.57,44.22V99.9l1.89,1.09Zm-.71-21.28V78.61L111,79.7Zm-.7-23.48,1.89,1.09-1.89,1.1Zm-2,24.25,2.66,4.6h-5.31Zm-2.69-8.94,2.4-2.41.88,3.29Zm2-12.35,2.66,4.6h-5.32Zm-2.27,53.07-1.89,1.1v-2.19Zm-2.59-20.19V91l1.89,1.09Zm-.71-23.48,1.9,1.09-1.9,1.1Zm-2,24.25,2.66,4.6H95.55ZM95.51,85l2.4-2.41.88,3.29Zm4.65-7.75H94.85l2.66-4.6Zm-3-15.95.88,3.29-3.28-.88Zm-2.68,43.13-1.89,1.1v-2.19ZM91.94,84.23V82l1.89,1.09Zm-.7-23.48,1.89,1.09-1.89,1.1ZM89.28,85l2.66,4.6H86.62Zm-2.7-8.94L89,73.65l.88,3.29Zm2-12.35,2.66,4.61H85.92Zm-2.27,53.07-1.89,1.1v-2.19Zm-2.6-20.19V94.4l1.89,1.09ZM83,73.11,84.9,74.2,83,75.3Zm-2,24.25L83.71,102H78.39Zm-2.69-8.94,2.4-2.4.88,3.28Zm-.67-7.74,2.66-4.61L83,80.68Zm0-13.55,2.41-2.4L80.94,68Zm2-12.35,2.66,4.61H77Zm-2.27,53.08L75.49,109v-2.19Zm-2.6-20.2V85.47l1.9,1.1Zm-.7-23.48L76,65.28l-1.89,1.09Zm-2,24.25L74.78,93H69.47Zm-2.69-8.94,2.4-2.4.88,3.28Zm-.67-7.74,2.66-4.61,2.66,4.61Zm.39,48.47-1.89,1.09v-2.19Zm2-64.42L72,59.08l-3.29-.88ZM66.56,100V97.83l1.89,1.1Zm-.71-21.29V76.54l1.9,1.1Zm-.7-23.48L67,56.35l-1.89,1.09Zm-2,24.25,2.65,4.61H60.54Zm-2.7-8.94,2.4-2.4.88,3.28Zm2-12.35,2.66,4.61H59.83Zm-2.27,53.08-1.89,1.09v-2.19Zm-2.59-20.2V88.9L59.52,90Zm-.7-23.48,1.89,1.1L56.93,69.8ZM55,91.86l2.66,4.61H52.31Zm-2.7-8.94,2.41-2.4.88,3.28Zm-.66-7.74,2.66-4.61,2.66,4.61ZM52,123.65l-1.89,1.09v-2.19Zm2-64.42.88,3.28-3.28-.88ZM49.4,103.45v-2.19l1.89,1.1Zm-.7-21.29V80l1.89,1.09ZM48,58.69l1.89,1.09L48,60.87ZM46,82.93l2.66,4.61H43.38ZM43.34,74l2.41-2.4.88,3.28Zm2-12.35L48,66.25H42.68Zm-2.27,53.08-1.89,1.09v-2.18Zm-2.6-20.2V92.34l1.9,1.09Zm-.7-23.47,1.89,1.09-1.89,1.09Zm-2,24.24,2.66,4.61H35.16Zm-2.69-8.94,2.4-2.4.88,3.28Zm4.65-7.74H34.45L37.11,74Zm-3-16,.88,3.28-3.29-.88Zm-2.68,43.13-1.89,1.09V104.7Zm-2.6-20.2V83.41l1.9,1.09Zm-.7-23.47,1.89,1.09L30.84,64.3ZM28.89,86.36,31.54,91H26.23Zm-2.7-8.94,2.4-2.4.88,3.28Zm2-12.35,2.66,4.61H25.52ZM24,119.24v-2.18l1.89,1.09Zm.71,21.29v-2.18l1.89,1.09Zm4.56-44.22.88,3.28-3.28-.88Zm.3,11.34,2.66,4.61H26.93ZM30,117.6l.88,3.28L27.59,120Zm-1.7,23.69,2.4-2.4.88,3.28Zm-.67-7.74,2.66-4.61L33,133.55ZM33,126l1.89,1.09L33,128.17Zm.71,23.47v-2.18l1.89,1.09Zm4.56-44.22.88,3.28-3.28-.88Zm.3,11.34,2.66,4.61H35.86Zm.41,10,.88,3.28-3.29-.88Zm-1.7,23.69,2.4-2.4.88,3.28Zm-.67-7.74,2.66-4.61,2.66,4.61Zm5.32-5.38v-2.19l1.89,1.1Zm4.57-44.22.88,3.28-3.28-.88Zm.29,11.34,2.66,4.61H44.08Zm.41,10,.88,3.28-3.28-.88Zm.3,11.34,2.66,4.61H44.79Zm.41,10,.88,3.28-3.29-.88Zm-2.37,15.95,2.66-4.61,2.66,4.61ZM50.81,146v-2.19l1.89,1.1Zm4.57-44.22.88,3.28L53,104.21Zm.29,11.34,2.66,4.61H53Zm.41,9.95.88,3.28-3.28-.88Zm-1.7,23.69,2.41-2.4.88,3.28Zm-.66-7.74,2.66-4.61L59,139.05ZM59,133.67v-2.19l1.89,1.1ZM63.6,89.45l.88,3.28-3.28-.88Zm.3,11.34,2.66,4.61H61.24Zm.41,9.95.88,3.28-3.29-.88Zm.29,11.34,2.66,4.61H61.94ZM65,132l.88,3.28-3.28-.88ZM62.65,148l2.66-4.61L68,148ZM68,142.6v-2.19l1.89,1.1Zm4.56-44.22.88,3.28-3.28-.88Zm.3,11.34,2.66,4.61H70.17Zm.41,10,.88,3.28-3.29-.88Zm-1.7,23.69,2.4-2.41.88,3.29Zm-.67-7.74L73.53,131l2.66,4.61Zm5.32-7.57,1.89,1.09-1.89,1.1Zm.71,23.48v-2.19l1.89,1.09Zm4.56-44.23.88,3.29-3.28-.88Zm.3,11.35,2.66,4.61H79.1Zm.41,9.94.88,3.29L79.76,131ZM79.8,144.54l2.66-4.6,2.66,4.6Zm5.32-5.37V137L87,138.07Zm4.57-44.23.88,3.29-3.28-.88ZM90,106.29l2.66,4.6H87.32Zm.41,9.94.88,3.29L88,118.64Zm-1.7,23.7,2.41-2.41.88,3.29ZM88,132.18l2.66-4.6,2.66,4.6Zm5.32-7.56,1.89,1.09-1.89,1.1Zm.7,23.48v-2.19L95.94,147Zm4.57-44.23.88,3.29-3.29-.88Zm.29,11.35,2.66,4.6H96.25Zm.41,9.94.88,3.29-3.28-.88Zm-1.7,23.7,2.41-2.41.88,3.29ZM97,141.11l2.66-4.6,2.66,4.6Zm5.32-5.38v-2.18l1.89,1.09Zm4.56-44.22.88,3.29-3.28-.88Zm.3,11.35,2.66,4.6h-5.32Zm.41,9.94.88,3.29-3.29-.88Zm.29,11.35,2.66,4.6h-5.32Zm.41,9.94.88,3.29-3.28-.88ZM105.89,150l2.66-4.6,2.66,4.6Zm5.32-5.38v-2.18l1.89,1.09Zm4.56-44.22.88,3.29-3.28-.88Zm.3,11.35,2.66,4.6h-5.32Zm.41,9.94.88,3.29-3.29-.88Zm-1.7,23.7,2.4-2.41.88,3.29Zm-.67-7.75,2.66-4.6,2.66,4.6Zm5.32-5.38v-2.18l1.89,1.09ZM124,88.08l.88,3.29-3.28-.88Zm-2.37,16,2.66-4.6L127,104Zm3.07,5.34.88,3.29-3.28-.88Zm.3,11.35,2.66,4.6h-5.32Zm.41,9.94.88,3.29-3.29-.88Zm-2.37,16,2.66-4.6,2.66,4.6Zm5.32-5.38v-2.18l1.89,1.09ZM132.93,97l.88,3.29-3.29-.88Zm.29,11.35,2.66,4.6h-5.32Zm.41,9.94.88,3.29-3.28-.88Zm-1.7,23.7,2.41-2.41.88,3.29Zm-.66-7.75,2.66-4.6,2.66,4.6Zm5.32-7.56,1.89,1.09-1.89,1.09Zm.7,23.47V148l1.89,1.09Zm4.57-44.22.88,3.29-3.29-.88Zm.29,11.35,2.66,4.6h-5.32Zm.41,9.94.88,3.28-3.28-.88Zm-1.7,23.69,2.41-2.4.88,3.28Zm-.66-7.74,2.66-4.61,2.66,4.61Zm5.32-5.38v-2.18l1.89,1.09Zm4.56-44.22.88,3.28L147.68,96Zm.3,11.34,2.66,4.61h-5.32Zm.41,10,.88,3.28-3.29-.88Zm.29,11.34,2.66,4.61h-5.32Zm.41,10,.88,3.28-3.28-.88Zm-2.36,16,2.66-4.61,2.66,4.61Zm5.32-5.38v-2.18l1.89,1.09ZM159,102.51l.88,3.28-3.28-.88Zm.3,11.34,2.66,4.61h-5.32Zm.41,10,.88,3.28-3.29-.88ZM158,147.49l2.4-2.4.88,3.28Zm-.67-7.74,2.66-4.61,2.66,4.61Zm5.32-5.38v-2.18l1.89,1.09Zm4.57-44.22.88,3.28-3.29-.88Zm.29,11.34,2.66,4.61h-5.32Zm.41,10,.88,3.28-3.28-.88Zm.3,11.34,2.66,4.61h-5.32Zm.41,9.95.88,3.28-3.29-.88Zm-2.37,16,2.66-4.61,2.66,4.61Zm5.32-5.38v-2.18l1.89,1.09Z"/><polygon class="cls-5" points="159.86 54.59 159.71 54.34 154.68 54.34 154.54 54.59 159.86 54.59"/><polygon class="cls-5" points="166.13 58.91 163.47 63.52 168.78 63.52 166.13 58.91"/><polygon class="cls-5" points="168.78 55.96 168.78 58.14 170.68 57.05 168.78 55.96"/><polygon class="cls-5" points="174.76 56.5 172.36 58.9 175.64 59.78 174.76 56.5"/><polygon class="cls-5" points="172.4 72.45 176.67 72.45 176.67 70.63 175.06 67.84 172.4 72.45"/><polygon class="cls-5" points="142.7 58.02 140.58 54.34 139.51 54.34 137.38 58.02 142.7 58.02"/><polygon class="cls-5" points="148.97 62.34 146.31 66.95 151.63 66.95 148.97 62.34"/><polygon class="cls-5" points="151.63 59.39 151.63 61.57 153.52 60.48 151.63 59.39"/><polygon class="cls-5" points="157.61 59.93 155.2 62.34 158.49 63.22 157.61 59.93"/><polygon class="cls-5" points="155.24 75.88 160.56 75.88 157.9 71.28 155.24 75.88"/><polygon class="cls-5" points="160.56 68.32 160.56 70.5 162.45 69.41 160.56 68.32"/><polygon class="cls-5" points="166.53 68.86 164.13 71.26 167.41 72.14 166.53 68.86"/><polygon class="cls-5" points="166.83 80.2 164.17 84.81 169.49 84.81 166.83 80.2"/><polygon class="cls-5" points="169.49 79.43 171.38 78.34 169.49 77.25 169.49 79.43"/><polygon class="cls-5" points="175.46 77.79 173.06 80.19 176.34 81.07 175.46 77.79"/><polygon class="cls-5" points="173.1 93.74 176.67 93.74 176.67 90.7 175.76 89.13 173.1 93.74"/><polygon class="cls-5" points="122.89 56.85 120.23 61.45 125.55 61.45 122.89 56.85"/><polygon class="cls-5" points="127.44 54.98 126.33 54.34 125.55 54.34 125.55 56.07 127.44 54.98"/><polygon class="cls-5" points="131.52 54.43 129.12 56.84 132.4 57.72 131.52 54.43"/><polygon class="cls-5" points="129.16 70.38 134.47 70.38 131.82 65.78 129.16 70.38"/><polygon class="cls-5" points="134.47 62.82 134.47 65 136.37 63.91 134.47 62.82"/><polygon class="cls-5" points="140.45 63.36 138.05 65.77 141.33 66.65 140.45 63.36"/><polygon class="cls-5" points="138.09 79.31 143.41 79.31 140.75 74.71 138.09 79.31"/><polygon class="cls-5" points="143.41 71.75 143.41 73.93 145.3 72.84 143.41 71.75"/><polygon class="cls-5" points="149.38 72.29 146.98 74.69 150.26 75.58 149.38 72.29"/><polygon class="cls-5" points="149.68 83.64 147.01 88.24 152.33 88.24 149.68 83.64"/><polygon class="cls-5" points="152.33 82.86 154.22 81.77 152.33 80.68 152.33 82.86"/><polygon class="cls-5" points="158.31 81.22 155.91 83.62 159.19 84.5 158.31 81.22"/><polygon class="cls-5" points="158.6 92.56 155.94 97.17 161.26 97.17 158.6 92.56"/><polygon class="cls-5" points="161.26 91.79 163.15 90.7 161.26 89.61 161.26 91.79"/><polygon class="cls-5" points="167.24 90.15 164.84 92.55 168.12 93.43 167.24 90.15"/><polygon class="cls-5" points="167.53 101.49 164.87 106.1 170.19 106.1 167.53 101.49"/><polygon class="cls-5" points="170.19 100.72 172.08 99.63 170.19 98.54 170.19 100.72"/><polygon class="cls-5" points="173.76 101.48 176.67 102.26 176.67 100.94 176.17 99.08 173.76 101.48"/><polygon class="cls-5" points="173.8 115.03 176.67 115.03 176.67 110.78 176.46 110.42 173.8 115.03"/><polygon class="cls-5" points="99.46 55.95 98.53 54.34 95.07 54.34 94.14 55.95 99.46 55.95"/><polygon class="cls-5" points="105.73 60.28 103.07 64.88 108.39 64.88 105.73 60.28"/><polygon class="cls-5" points="108.39 57.32 108.39 59.51 110.28 58.41 108.39 57.32"/><polygon class="cls-5" points="114.37 57.86 111.96 60.27 115.25 61.15 114.37 57.86"/><polygon class="cls-5" points="112 73.81 117.32 73.81 114.66 69.21 112 73.81"/><polygon class="cls-5" points="117.32 66.25 117.32 68.44 119.21 67.34 117.32 66.25"/><polygon class="cls-5" points="123.3 66.79 120.89 69.2 124.18 70.08 123.3 66.79"/><polygon class="cls-5" points="120.93 82.74 126.25 82.74 123.59 78.14 120.93 82.74"/><polygon class="cls-5" points="126.25 75.18 126.25 77.36 128.14 76.27 126.25 75.18"/><polygon class="cls-5" points="132.22 75.72 129.82 78.13 133.1 79.01 132.22 75.72"/><polygon class="cls-5" points="132.52 87.07 129.86 91.67 135.18 91.67 132.52 87.07"/><polygon class="cls-5" points="135.18 86.29 137.07 85.2 135.18 84.11 135.18 86.29"/><polygon class="cls-5" points="141.15 84.65 138.75 87.06 142.03 87.94 141.15 84.65"/><polygon class="cls-5" points="141.45 96 138.79 100.6 144.11 100.6 141.45 96"/><polygon class="cls-5" points="144.11 95.22 146 94.13 144.11 93.04 144.11 95.22"/><polygon class="cls-5" points="150.08 93.58 147.68 95.98 150.96 96.86 150.08 93.58"/><polygon class="cls-5" points="150.38 104.92 147.72 109.53 153.04 109.53 150.38 104.92"/><polygon class="cls-5" points="153.04 104.15 154.93 103.06 153.04 101.97 153.04 104.15"/><polygon class="cls-5" points="159.01 102.51 156.61 104.91 159.89 105.79 159.01 102.51"/><polygon class="cls-5" points="159.31 113.85 156.65 118.46 161.97 118.46 159.31 113.85"/><polygon class="cls-5" points="161.97 113.08 163.86 111.99 161.97 110.9 161.97 113.08"/><polygon class="cls-5" points="167.94 111.44 165.54 113.84 168.82 114.72 167.94 111.44"/><polygon class="cls-5" points="168.24 122.78 165.58 127.39 170.9 127.39 168.24 122.78"/><polygon class="cls-5" points="170.9 122.01 172.79 120.92 170.9 119.83 170.9 122.01"/><polygon class="cls-5" points="176.67 123.36 176.67 120.57 174.47 122.77 176.67 123.36"/><polygon class="cls-5" points="176.67 136.32 176.67 132.58 174.51 136.32 176.67 136.32"/><polygon class="cls-5" points="79.65 54.78 76.99 59.39 82.31 59.39 79.65 54.78"/><polygon class="cls-5" points="89.16 55.65 88.81 54.34 86.31 54.34 85.88 54.77 89.16 55.65"/><polygon class="cls-5" points="88.58 63.71 85.92 68.31 91.24 68.31 88.58 63.71"/><polygon class="cls-5" points="91.24 60.75 91.24 62.94 93.13 61.84 91.24 60.75"/><polygon class="cls-5" points="97.21 61.29 94.81 63.7 98.09 64.58 97.21 61.29"/><polygon class="cls-5" points="94.85 77.25 100.17 77.25 97.51 72.64 94.85 77.25"/><polygon class="cls-5" points="100.17 69.68 100.17 71.87 102.06 70.77 100.17 69.68"/><polygon class="cls-5" points="106.14 70.22 103.74 72.63 107.02 73.51 106.14 70.22"/><polygon class="cls-5" points="106.44 81.57 103.78 86.17 109.09 86.17 106.44 81.57"/><polygon class="cls-5" points="109.09 80.8 110.99 79.7 109.09 78.61 109.09 80.8"/><polygon class="cls-5" points="115.07 79.15 112.67 81.56 115.95 82.44 115.07 79.15"/><polygon class="cls-5" points="115.36 90.5 112.7 95.1 118.02 95.1 115.36 90.5"/><polygon class="cls-5" points="118.02 89.72 119.92 88.63 118.02 87.54 118.02 89.72"/><polygon class="cls-5" points="124 88.08 121.6 90.49 124.88 91.37 124 88.08"/><polygon class="cls-5" points="124.29 99.43 121.63 104.03 126.95 104.03 124.29 99.43"/><polygon class="cls-5" points="126.95 98.65 128.84 97.56 126.95 96.47 126.95 98.65"/><polygon class="cls-5" points="132.93 97.01 130.53 99.42 133.81 100.3 132.93 97.01"/><polygon class="cls-5" points="133.22 108.36 130.56 112.96 135.88 112.96 133.22 108.36"/><polygon class="cls-5" points="135.88 107.58 137.77 106.49 135.88 105.4 135.88 107.58"/><polygon class="cls-5" points="141.86 105.94 139.45 108.34 142.74 109.22 141.86 105.94"/><polygon class="cls-5" points="142.15 117.28 139.49 121.89 144.81 121.89 142.15 117.28"/><polygon class="cls-5" points="144.81 116.51 146.7 115.42 144.81 114.33 144.81 116.51"/><polygon class="cls-5" points="150.79 114.87 148.38 117.28 151.67 118.15 150.79 114.87"/><polygon class="cls-5" points="151.08 126.21 148.42 130.82 153.74 130.82 151.08 126.21"/><polygon class="cls-5" points="153.74 125.44 155.63 124.35 153.74 123.26 153.74 125.44"/><polygon class="cls-5" points="159.72 123.8 157.31 126.2 160.6 127.08 159.72 123.8"/><polygon class="cls-5" points="157.35 139.75 162.67 139.75 160.01 135.14 157.35 139.75"/><polygon class="cls-5" points="162.67 134.37 164.56 133.28 162.67 132.19 162.67 134.37"/><polygon class="cls-5" points="168.65 132.73 166.24 135.13 169.53 136.01 168.65 132.73"/><polygon class="cls-5" points="166.28 148.68 171.6 148.68 168.94 144.07 166.28 148.68"/><polygon class="cls-5" points="171.6 143.3 173.49 142.21 171.6 141.12 171.6 143.3"/><polygon class="cls-5" points="176.67 144.46 176.67 142.57 175.17 144.06 176.67 144.46"/><polygon class="cls-5" points="62.49 58.21 59.83 62.82 65.15 62.82 62.49 58.21"/><polygon class="cls-5" points="65.15 55.25 65.15 57.44 67.04 56.35 65.15 55.25"/><polygon class="cls-5" points="71.13 55.8 68.72 58.2 72.01 59.08 71.13 55.8"/><polygon class="cls-5" points="68.76 71.75 74.08 71.75 71.42 67.14 68.76 71.75"/><polygon class="cls-5" points="74.08 64.18 74.08 66.37 75.97 65.28 74.08 64.18"/><polygon class="cls-5" points="80.06 64.72 77.65 67.13 80.94 68.01 80.06 64.72"/><polygon class="cls-5" points="77.69 80.68 83.01 80.68 80.35 76.07 77.69 80.68"/><polygon class="cls-5" points="83.01 73.11 83.01 75.3 84.9 74.2 83.01 73.11"/><polygon class="cls-5" points="88.99 73.66 86.58 76.06 89.87 76.94 88.99 73.66"/><polygon class="cls-5" points="89.28 85 86.62 89.61 91.94 89.61 89.28 85"/><polygon class="cls-5" points="91.94 84.23 93.83 83.13 91.94 82.04 91.94 84.23"/><polygon class="cls-5" points="97.92 82.58 95.51 84.99 98.8 85.87 97.92 82.58"/><polygon class="cls-5" points="98.21 93.93 95.55 98.53 100.87 98.53 98.21 93.93"/><polygon class="cls-5" points="100.87 93.16 102.76 92.06 100.87 90.97 100.87 93.16"/><polygon class="cls-5" points="106.84 91.51 104.44 93.92 107.72 94.8 106.84 91.51"/><polygon class="cls-5" points="107.14 102.86 104.48 107.46 109.8 107.46 107.14 102.86"/><polygon class="cls-5" points="109.8 102.08 111.69 100.99 109.8 99.9 109.8 102.08"/><polygon class="cls-5" points="115.77 100.44 113.37 102.85 116.65 103.73 115.77 100.44"/><polygon class="cls-5" points="116.07 111.79 113.41 116.39 118.73 116.39 116.07 111.79"/><polygon class="cls-5" points="118.73 111.01 120.62 109.92 118.73 108.83 118.73 111.01"/><polygon class="cls-5" points="124.7 109.37 122.3 111.78 125.58 112.66 124.7 109.37"/><polygon class="cls-5" points="125 120.72 122.34 125.32 127.66 125.32 125 120.72"/><polygon class="cls-5" points="127.66 119.94 129.55 118.85 127.66 117.76 127.66 119.94"/><polygon class="cls-5" points="133.63 118.3 131.23 120.71 134.51 121.58 133.63 118.3"/><polygon class="cls-5" points="131.27 134.25 136.59 134.25 133.93 129.65 131.27 134.25"/><polygon class="cls-5" points="136.59 126.69 136.59 128.87 138.48 127.78 136.59 126.69"/><polygon class="cls-5" points="142.56 127.23 140.16 129.63 143.44 130.51 142.56 127.23"/><polygon class="cls-5" points="140.2 143.18 145.52 143.18 142.86 138.57 140.2 143.18"/><polygon class="cls-5" points="145.52 137.8 147.41 136.71 145.52 135.62 145.52 137.8"/><polygon class="cls-5" points="151.49 136.16 149.09 138.56 152.37 139.44 151.49 136.16"/><polygon class="cls-5" points="149.13 152.11 154.44 152.11 151.78 147.5 149.13 152.11"/><polygon class="cls-5" points="154.44 146.73 156.34 145.64 154.44 144.55 154.44 146.73"/><polygon class="cls-5" points="158.02 147.49 161.3 148.37 160.42 145.09 158.02 147.49"/><polygon class="cls-5" points="39.07 57.32 37.35 54.34 35.47 54.34 33.75 57.32 39.07 57.32"/><polygon class="cls-5" points="45.34 61.64 42.68 66.25 48 66.25 45.34 61.64"/><polygon class="cls-5" points="48 58.69 48 60.87 49.89 59.78 48 58.69"/><polygon class="cls-5" points="53.97 59.23 51.57 61.63 54.85 62.51 53.97 59.23"/><polygon class="cls-5" points="51.61 75.18 56.93 75.18 54.27 70.57 51.61 75.18"/><polygon class="cls-5" points="56.93 67.61 56.93 69.8 58.82 68.71 56.93 67.61"/><polygon class="cls-5" points="62.9 68.16 60.5 70.56 63.78 71.44 62.9 68.16"/><polygon class="cls-5" points="63.2 79.5 60.54 84.11 65.86 84.11 63.2 79.5"/><polygon class="cls-5" points="65.86 78.73 67.75 77.64 65.86 76.54 65.86 78.73"/><polygon class="cls-5" points="71.83 77.09 69.43 79.49 72.71 80.37 71.83 77.09"/><polygon class="cls-5" points="72.13 88.43 69.47 93.04 74.78 93.04 72.13 88.43"/><polygon class="cls-5" points="74.78 87.66 76.68 86.56 74.78 85.47 74.78 87.66"/><polygon class="cls-5" points="80.76 86.02 78.36 88.42 81.64 89.3 80.76 86.02"/><polygon class="cls-5" points="81.06 97.36 78.39 101.97 83.71 101.97 81.06 97.36"/><polygon class="cls-5" points="83.71 96.59 85.61 95.5 83.71 94.4 83.71 96.59"/><polygon class="cls-5" points="89.69 94.94 87.28 97.35 90.57 98.23 89.69 94.94"/><polygon class="cls-5" points="89.98 106.29 87.32 110.89 92.64 110.89 89.98 106.29"/><polygon class="cls-5" points="92.64 105.52 94.53 104.42 92.64 103.33 92.64 105.52"/><polygon class="cls-5" points="98.62 103.87 96.22 106.28 99.5 107.16 98.62 103.87"/><polygon class="cls-5" points="98.91 115.22 96.25 119.82 101.57 119.82 98.91 115.22"/><polygon class="cls-5" points="101.57 114.44 103.46 113.35 101.57 112.26 101.57 114.44"/><polygon class="cls-5" points="107.55 112.8 105.14 115.21 108.43 116.09 107.55 112.8"/><polygon class="cls-5" points="107.84 124.15 105.18 128.75 110.5 128.75 107.84 124.15"/><polygon class="cls-5" points="110.5 123.37 112.39 122.28 110.5 121.19 110.5 123.37"/><polygon class="cls-5" points="116.48 121.73 114.07 124.14 117.36 125.02 116.48 121.73"/><polygon class="cls-5" points="114.11 137.68 119.43 137.68 116.77 133.08 114.11 137.68"/><polygon class="cls-5" points="119.43 132.3 121.32 131.21 119.43 130.12 119.43 132.3"/><polygon class="cls-5" points="125.41 130.66 123 133.07 126.29 133.95 125.41 130.66"/><polygon class="cls-5" points="123.04 146.61 128.36 146.61 125.7 142.01 123.04 146.61"/><polygon class="cls-5" points="128.36 141.23 130.25 140.14 128.36 139.05 128.36 141.23"/><polygon class="cls-5" points="131.93 142 135.22 142.88 134.34 139.59 131.93 142"/><polygon class="cls-5" points="133.61 152.7 135.65 152.7 134.63 150.94 133.61 152.7"/><polygon class="cls-5" points="137.29 150.16 139.18 149.07 137.29 147.98 137.29 150.16"/><polygon class="cls-5" points="140.86 150.93 144.15 151.81 143.26 148.52 140.86 150.93"/><polygon class="cls-5" points="23.41 54.34 23.41 54.5 23.69 54.34 23.41 54.34"/><polygon class="cls-5" points="28.77 57.01 28.05 54.34 27.27 54.34 25.48 56.13 28.77 57.01"/><polygon class="cls-5" points="28.18 65.07 25.52 69.68 30.84 69.68 28.18 65.07"/><polygon class="cls-5" points="30.84 62.12 30.84 64.3 32.73 63.21 30.84 62.12"/><polygon class="cls-5" points="36.82 62.66 34.41 65.06 37.7 65.94 36.82 62.66"/><polygon class="cls-5" points="34.45 78.61 39.77 78.61 37.11 74 34.45 78.61"/><polygon class="cls-5" points="39.77 71.05 39.77 73.23 41.66 72.14 39.77 71.05"/><polygon class="cls-5" points="45.75 71.59 43.34 73.99 46.63 74.87 45.75 71.59"/><polygon class="cls-5" points="46.04 82.93 43.38 87.54 48.7 87.54 46.04 82.93"/><polygon class="cls-5" points="48.7 82.16 50.59 81.07 48.7 79.97 48.7 82.16"/><polygon class="cls-5" points="54.68 80.52 52.27 82.92 55.56 83.8 54.68 80.52"/><polygon class="cls-5" points="54.97 91.86 52.31 96.47 57.63 96.47 54.97 91.86"/><polygon class="cls-5" points="57.63 91.09 59.52 90 57.63 88.91 57.63 91.09"/><polygon class="cls-5" points="63.6 89.45 61.2 91.85 64.48 92.73 63.6 89.45"/><polygon class="cls-5" points="63.9 100.79 61.24 105.4 66.56 105.4 63.9 100.79"/><polygon class="cls-5" points="66.56 100.02 68.45 98.93 66.56 97.83 66.56 100.02"/><polygon class="cls-5" points="72.53 98.38 70.13 100.78 73.41 101.66 72.53 98.38"/><polygon class="cls-5" points="72.83 109.72 70.17 114.33 75.49 114.33 72.83 109.72"/><polygon class="cls-5" points="75.49 108.95 77.38 107.86 75.49 106.76 75.49 108.95"/><polygon class="cls-5" points="81.46 107.31 79.06 109.71 82.34 110.59 81.46 107.31"/><polygon class="cls-5" points="81.76 118.65 79.1 123.25 84.42 123.25 81.76 118.65"/><polygon class="cls-5" points="84.42 117.88 86.31 116.78 84.42 115.69 84.42 117.88"/><polygon class="cls-5" points="90.39 116.23 87.99 118.64 91.27 119.52 90.39 116.23"/><polygon class="cls-5" points="88.03 132.18 93.35 132.18 90.69 127.58 88.03 132.18"/><polygon class="cls-5" points="93.35 124.62 93.35 126.81 95.24 125.71 93.35 124.62"/><polygon class="cls-5" points="99.32 125.16 96.92 127.57 100.2 128.45 99.32 125.16"/><polygon class="cls-5" points="96.96 141.11 102.28 141.11 99.62 136.51 96.96 141.11"/><polygon class="cls-5" points="102.28 135.74 104.17 134.64 102.28 133.55 102.28 135.74"/><polygon class="cls-5" points="108.25 134.09 105.85 136.5 109.13 137.38 108.25 134.09"/><polygon class="cls-5" points="105.89 150.04 111.21 150.04 108.55 145.44 105.89 150.04"/><polygon class="cls-5" points="111.21 144.66 113.1 143.57 111.21 142.48 111.21 144.66"/><polygon class="cls-5" points="114.78 145.43 118.06 146.31 117.18 143.02 114.78 145.43"/><polygon class="cls-5" points="120.14 151.41 120.14 152.7 121.69 152.7 122.03 152.5 120.14 151.41"/><polygon class="cls-5" points="125.36 152.7 126.31 152.7 126.11 151.95 125.36 152.7"/><polygon class="cls-5" points="23.41 74.94 23.41 76.2 24.51 75.57 23.41 74.94"/><polygon class="cls-5" points="28.59 75.02 26.19 77.42 29.47 78.3 28.59 75.02"/><polygon class="cls-5" points="28.89 86.36 26.23 90.97 31.55 90.97 28.89 86.36"/><polygon class="cls-5" points="31.55 85.59 33.44 84.5 31.55 83.41 31.55 85.59"/><polygon class="cls-5" points="37.52 83.95 35.12 86.35 38.4 87.23 37.52 83.95"/><polygon class="cls-5" points="37.81 95.29 35.16 99.9 40.47 99.9 37.81 95.29"/><polygon class="cls-5" points="40.47 94.52 42.37 93.43 40.47 92.33 40.47 94.52"/><polygon class="cls-5" points="46.45 92.88 44.05 95.28 47.33 96.16 46.45 92.88"/><polygon class="cls-5" points="46.74 104.22 44.09 108.83 49.4 108.83 46.74 104.22"/><polygon class="cls-5" points="49.4 103.45 51.3 102.36 49.4 101.27 49.4 103.45"/><polygon class="cls-5" points="55.38 101.81 52.98 104.21 56.26 105.09 55.38 101.81"/><polygon class="cls-5" points="55.67 113.15 53.01 117.76 58.33 117.76 55.67 113.15"/><polygon class="cls-5" points="58.33 112.38 60.22 111.29 58.33 110.19 58.33 112.38"/><polygon class="cls-5" points="64.31 110.74 61.91 113.14 65.19 114.02 64.31 110.74"/><polygon class="cls-5" points="64.6 122.08 61.94 126.69 67.26 126.69 64.6 122.08"/><polygon class="cls-5" points="67.26 121.31 69.15 120.22 67.26 119.12 67.26 121.31"/><polygon class="cls-5" points="73.24 119.67 70.83 122.07 74.12 122.95 73.24 119.67"/><polygon class="cls-5" points="70.87 135.62 76.19 135.62 73.53 131.01 70.87 135.62"/><polygon class="cls-5" points="76.19 128.05 76.19 130.24 78.08 129.15 76.19 128.05"/><polygon class="cls-5" points="82.17 128.59 79.76 131 83.05 131.88 82.17 128.59"/><polygon class="cls-5" points="79.8 144.54 85.12 144.54 82.46 139.94 79.8 144.54"/><polygon class="cls-5" points="85.12 139.17 87.01 138.07 85.12 136.98 85.12 139.17"/><polygon class="cls-5" points="88.69 139.93 91.98 140.81 91.1 137.52 88.69 139.93"/><polygon class="cls-5" points="89.18 152.7 93.6 152.7 91.39 148.87 89.18 152.7"/><polygon class="cls-5" points="94.05 148.09 95.94 147 94.05 145.91 94.05 148.09"/><polygon class="cls-5" points="97.62 148.86 100.91 149.74 100.03 146.45 97.62 148.86"/><polygon class="cls-5" points="23.41 95.82 23.41 97.89 25.21 96.86 23.41 95.82"/><polygon class="cls-5" points="29.3 96.31 26.89 98.71 30.18 99.59 29.3 96.31"/><polygon class="cls-5" points="29.59 107.65 26.93 112.26 32.25 112.26 29.59 107.65"/><polygon class="cls-5" points="32.25 106.88 34.14 105.79 32.25 104.7 32.25 106.88"/><polygon class="cls-5" points="38.22 105.24 35.82 107.64 39.1 108.52 38.22 105.24"/><polygon class="cls-5" points="38.52 116.58 35.86 121.19 41.18 121.19 38.52 116.58"/><polygon class="cls-5" points="41.18 115.81 43.07 114.72 41.18 113.63 41.18 115.81"/><polygon class="cls-5" points="47.15 114.17 44.75 116.57 48.03 117.45 47.15 114.17"/><polygon class="cls-5" points="47.45 125.51 44.79 130.12 50.11 130.12 47.45 125.51"/><polygon class="cls-5" points="50.11 124.74 52 123.65 50.11 122.56 50.11 124.74"/><polygon class="cls-5" points="56.08 123.1 53.68 125.5 56.96 126.38 56.08 123.1"/><polygon class="cls-5" points="53.72 139.05 59.04 139.05 56.38 134.44 53.72 139.05"/><polygon class="cls-5" points="59.04 133.67 60.93 132.58 59.04 131.48 59.04 133.67"/><polygon class="cls-5" points="65.01 132.03 62.61 134.43 65.89 135.31 65.01 132.03"/><polygon class="cls-5" points="62.65 147.98 67.97 147.98 65.31 143.37 62.65 147.98"/><polygon class="cls-5" points="67.97 142.6 69.86 141.5 67.97 140.41 67.97 142.6"/><polygon class="cls-5" points="71.54 143.36 74.82 144.24 73.94 140.96 71.54 143.36"/><polygon class="cls-5" points="74.01 152.7 74.47 152.7 74.24 152.3 74.01 152.7"/><polygon class="cls-5" points="76.9 151.53 78.79 150.43 76.9 149.34 76.9 151.53"/><polygon class="cls-5" points="80.47 152.29 82 152.7 83.63 152.7 82.87 149.88 80.47 152.29"/><polygon class="cls-5" points="23.41 123.56 23.41 124.62 24.02 124.62 23.41 123.56"/><polygon class="cls-5" points="24.02 117.06 24.02 119.24 25.91 118.15 24.02 117.06"/><polygon class="cls-5" points="30 117.6 27.59 120 30.88 120.88 30 117.6"/><polygon class="cls-5" points="27.63 133.55 32.95 133.55 30.29 128.94 27.63 133.55"/><polygon class="cls-5" points="32.95 125.99 32.95 128.17 34.84 127.08 32.95 125.99"/><polygon class="cls-5" points="38.93 126.53 36.52 128.93 39.81 129.81 38.93 126.53"/><polygon class="cls-5" points="36.56 142.48 41.88 142.48 39.22 137.87 36.56 142.48"/><polygon class="cls-5" points="41.88 137.1 43.77 136.01 41.88 134.91 41.88 137.1"/><polygon class="cls-5" points="47.86 135.46 45.45 137.86 48.74 138.74 47.86 135.46"/><polygon class="cls-5" points="45.49 151.41 50.81 151.41 48.15 146.8 45.49 151.41"/><polygon class="cls-5" points="50.81 146.03 52.7 144.94 50.81 143.84 50.81 146.03"/><polygon class="cls-5" points="54.38 146.79 57.67 147.67 56.79 144.39 54.38 146.79"/><polygon class="cls-5" points="23.41 143.64 23.41 145.91 24.73 145.91 23.41 143.64"/><polygon class="cls-5" points="24.73 140.53 26.62 139.44 24.73 138.35 24.73 140.53"/><polygon class="cls-5" points="28.3 141.29 31.58 142.17 30.7 138.89 28.3 141.29"/><polygon class="cls-5" points="29.57 152.7 32.42 152.7 31 150.23 29.57 152.7"/><polygon class="cls-5" points="33.66 149.46 35.55 148.37 33.66 147.28 33.66 149.46"/><polygon class="cls-5" points="37.23 150.22 40.51 151.1 39.63 147.82 37.23 150.22"/></g><path class="Light" d="M43.68,102.17c0-22.78,11.38-40.64,16.77-47.83h-37V152.7H51.69A171.19,171.19,0,0,1,43.68,102.17Z"/><rect class="cls-5" x="20.7" y="48.72" width="2.72" height="103.98"/><rect class="cls-3" x="22.84" y="48.72" width="0.57" height="103.98"/><rect class="cls-3" x="20.7" y="48.72" width="0.57" height="103.98"/><polygon class="cls-2" points="23.41 152.7 20.7 151.34 20.7 48.72 23.41 48.72 23.41 152.7"/><circle class="cls-6" cx="25.21" cy="145.85" r="0.64"/><circle class="Shadow" cx="25.21" cy="145.85" r="0.64"/><path class="cls-7" d="M25.29,146.29a10.67,10.67,0,0,1-5.69-.11.43.43,0,0,1-.34-.49h0a.44.44,0,0,1,.54-.23,9.88,9.88,0,0,0,5.23-.1.47.47,0,0,1,.57.33h0A.46.46,0,0,1,25.29,146.29Z"/><circle class="cls-6" cx="25.21" cy="144.13" r="0.64"/><circle class="Shadow" cx="25.21" cy="144.13" r="0.64"/><path class="cls-7" d="M25.29,144.57a10.67,10.67,0,0,1-5.69-.1.44.44,0,0,1-.34-.5h0a.44.44,0,0,1,.54-.22,9.78,9.78,0,0,0,5.23-.11.48.48,0,0,1,.57.33h0A.45.45,0,0,1,25.29,144.57Z"/><circle class="cls-6" cx="25.21" cy="137.27" r="0.64"/><circle class="Shadow" cx="25.21" cy="137.27" r="0.64"/><path class="cls-7" d="M25.29,137.71a10.67,10.67,0,0,1-5.69-.11.43.43,0,0,1-.34-.49h0a.45.45,0,0,1,.54-.23,9.78,9.78,0,0,0,5.23-.1.47.47,0,0,1,.57.33h0A.46.46,0,0,1,25.29,137.71Z"/><circle class="cls-6" cx="25.21" cy="135.55" r="0.64"/><circle class="Shadow" cx="25.21" cy="135.55" r="0.64"/><path class="cls-7" d="M25.29,136a10.67,10.67,0,0,1-5.69-.1.43.43,0,0,1-.34-.49h0a.44.44,0,0,1,.54-.23,9.78,9.78,0,0,0,5.23-.11.48.48,0,0,1,.57.34h0A.44.44,0,0,1,25.29,136Z"/><circle class="cls-6" cx="25.21" cy="128.69" r="0.64"/><circle class="Shadow" cx="25.21" cy="128.69" r="0.64"/><path class="cls-7" d="M25.29,129.13a10.67,10.67,0,0,1-5.69-.1.43.43,0,0,1-.34-.49h0a.44.44,0,0,1,.54-.23A9.78,9.78,0,0,0,25,128.2a.48.48,0,0,1,.57.34h0A.45.45,0,0,1,25.29,129.13Z"/><circle class="cls-6" cx="25.21" cy="126.98" r="0.64"/><circle class="Shadow" cx="25.21" cy="126.98" r="0.64"/><path class="cls-7" d="M25.29,127.42a10.67,10.67,0,0,1-5.69-.11.43.43,0,0,1-.34-.49h0a.44.44,0,0,1,.54-.23,9.88,9.88,0,0,0,5.23-.1.47.47,0,0,1,.57.33h0A.46.46,0,0,1,25.29,127.42Z"/><circle class="cls-6" cx="25.21" cy="120.11" r="0.64"/><circle class="Shadow" cx="25.21" cy="120.11" r="0.64"/><path class="cls-7" d="M25.29,120.55a10.57,10.57,0,0,1-5.69-.1.43.43,0,0,1-.34-.49h0a.44.44,0,0,1,.54-.23,9.78,9.78,0,0,0,5.23-.11.48.48,0,0,1,.57.34h0A.44.44,0,0,1,25.29,120.55Z"/><circle class="cls-6" cx="25.21" cy="118.4" r="0.64"/><circle class="Shadow" cx="25.21" cy="118.4" r="0.64"/><path class="cls-7" d="M25.29,118.84a10.67,10.67,0,0,1-5.69-.11.43.43,0,0,1-.34-.49h0a.45.45,0,0,1,.54-.23,9.78,9.78,0,0,0,5.23-.1.47.47,0,0,1,.57.33h0A.46.46,0,0,1,25.29,118.84Z"/><circle class="cls-6" cx="25.21" cy="111.54" r="0.64"/><circle class="Shadow" cx="25.21" cy="111.54" r="0.64"/><path class="cls-7" d="M25.29,112a10.67,10.67,0,0,1-5.69-.11.43.43,0,0,1-.34-.49h0a.44.44,0,0,1,.54-.23,9.88,9.88,0,0,0,5.23-.1.47.47,0,0,1,.57.33h0A.46.46,0,0,1,25.29,112Z"/><circle class="cls-6" cx="25.21" cy="109.82" r="0.64"/><circle class="Shadow" cx="25.21" cy="109.82" r="0.64"/><path class="cls-7" d="M25.29,110.26a10.67,10.67,0,0,1-5.69-.1.44.44,0,0,1-.34-.5h0a.43.43,0,0,1,.54-.22,9.78,9.78,0,0,0,5.23-.11.48.48,0,0,1,.57.33h0A.45.45,0,0,1,25.29,110.26Z"/><circle class="cls-6" cx="25.21" cy="102.96" r="0.64"/><circle class="Shadow" cx="25.21" cy="102.96" r="0.64"/><path class="cls-7" d="M25.29,103.4a10.67,10.67,0,0,1-5.69-.11.43.43,0,0,1-.34-.49h0a.45.45,0,0,1,.54-.23,9.78,9.78,0,0,0,5.23-.1.47.47,0,0,1,.57.33h0A.46.46,0,0,1,25.29,103.4Z"/><circle class="cls-6" cx="25.21" cy="101.24" r="0.64"/><circle class="Shadow" cx="25.21" cy="101.24" r="0.64"/><path class="cls-7" d="M25.29,101.68a10.67,10.67,0,0,1-5.69-.1.43.43,0,0,1-.34-.49h0a.44.44,0,0,1,.54-.23,9.78,9.78,0,0,0,5.23-.11.48.48,0,0,1,.57.34h0A.44.44,0,0,1,25.29,101.68Z"/><circle class="cls-6" cx="25.21" cy="94.38" r="0.64"/><circle class="Shadow" cx="25.21" cy="94.38" r="0.64"/><path class="cls-7" d="M25.29,94.82a10.67,10.67,0,0,1-5.69-.1.43.43,0,0,1-.34-.49h0A.44.44,0,0,1,19.8,94,9.78,9.78,0,0,0,25,93.89a.48.48,0,0,1,.57.34h0A.45.45,0,0,1,25.29,94.82Z"/><circle class="cls-6" cx="25.21" cy="92.67" r="0.64"/><circle class="Shadow" cx="25.21" cy="92.67" r="0.64"/><path class="cls-7" d="M25.29,93.11A10.67,10.67,0,0,1,19.6,93a.43.43,0,0,1-.34-.49h0a.44.44,0,0,1,.54-.23,9.88,9.88,0,0,0,5.23-.1.47.47,0,0,1,.57.33h0A.46.46,0,0,1,25.29,93.11Z"/><circle class="cls-6" cx="25.21" cy="85.8" r="0.64"/><circle class="Shadow" cx="25.21" cy="85.8" r="0.64"/><path class="cls-7" d="M25.29,86.24a10.57,10.57,0,0,1-5.69-.1.43.43,0,0,1-.34-.49h0a.44.44,0,0,1,.54-.23A9.78,9.78,0,0,0,25,85.31a.48.48,0,0,1,.57.34h0A.44.44,0,0,1,25.29,86.24Z"/><circle class="cls-6" cx="25.21" cy="84.09" r="0.64"/><circle class="Shadow" cx="25.21" cy="84.09" r="0.64"/><path class="cls-7" d="M25.29,84.53a10.67,10.67,0,0,1-5.69-.11.43.43,0,0,1-.34-.49h0a.45.45,0,0,1,.54-.23A9.78,9.78,0,0,0,25,83.6a.47.47,0,0,1,.57.33h0A.46.46,0,0,1,25.29,84.53Z"/><circle class="cls-6" cx="25.21" cy="77.23" r="0.64"/><circle class="Shadow" cx="25.21" cy="77.23" r="0.64"/><path class="cls-7" d="M25.29,77.67a10.67,10.67,0,0,1-5.69-.11.43.43,0,0,1-.34-.49h0a.44.44,0,0,1,.54-.23,9.88,9.88,0,0,0,5.23-.1.47.47,0,0,1,.57.33h0A.46.46,0,0,1,25.29,77.67Z"/><circle class="cls-6" cx="25.21" cy="75.51" r="0.64"/><circle class="Shadow" cx="25.21" cy="75.51" r="0.64"/><path class="cls-7" d="M25.29,76a10.67,10.67,0,0,1-5.69-.1.44.44,0,0,1-.34-.5h0a.43.43,0,0,1,.54-.22A9.78,9.78,0,0,0,25,75a.48.48,0,0,1,.57.33h0A.45.45,0,0,1,25.29,76Z"/><circle class="cls-6" cx="25.21" cy="68.65" r="0.64"/><circle class="Shadow" cx="25.21" cy="68.65" r="0.64"/><path class="cls-7" d="M25.29,69.09A10.67,10.67,0,0,1,19.6,69a.43.43,0,0,1-.34-.49h0a.45.45,0,0,1,.54-.23,9.78,9.78,0,0,0,5.23-.1.47.47,0,0,1,.57.33h0A.46.46,0,0,1,25.29,69.09Z"/><circle class="cls-6" cx="25.21" cy="66.93" r="0.64"/><circle class="Shadow" cx="25.21" cy="66.93" r="0.64"/><path class="cls-7" d="M25.29,67.37a10.67,10.67,0,0,1-5.69-.1.43.43,0,0,1-.34-.49h0a.44.44,0,0,1,.54-.23A9.78,9.78,0,0,0,25,66.44a.48.48,0,0,1,.57.34h0A.44.44,0,0,1,25.29,67.37Z"/><circle class="cls-6" cx="25.21" cy="60.07" r="0.64"/><circle class="Shadow" cx="25.21" cy="60.07" r="0.64"/><path class="cls-7" d="M25.29,60.51a10.67,10.67,0,0,1-5.69-.1.43.43,0,0,1-.34-.49h0a.44.44,0,0,1,.54-.23A9.78,9.78,0,0,0,25,59.58a.48.48,0,0,1,.57.34h0A.45.45,0,0,1,25.29,60.51Z"/><circle class="cls-6" cx="25.21" cy="58.36" r="0.64"/><circle class="Shadow" cx="25.21" cy="58.36" r="0.64"/><path class="cls-7" d="M25.29,58.8a10.67,10.67,0,0,1-5.69-.11.43.43,0,0,1-.34-.49h0A.44.44,0,0,1,19.8,58a9.88,9.88,0,0,0,5.23-.1.47.47,0,0,1,.57.33h0A.46.46,0,0,1,25.29,58.8Z"/><polygon class="cls-5" points="174.06 48.72 176.67 54.34 23.41 54.34 20.7 48.72 174.06 48.72"/><polygon class="cls-3" points="176.1 53.16 176.67 54.34 23.41 54.34 22.84 53.16 176.1 53.16"/><polygon class="cls-3" points="174.06 48.72 174.56 49.9 20.7 49.9 20.7 48.72 174.06 48.72"/><polygon class="Shadow" points="174 48.72 176.67 54.34 23.41 54.34 20.7 48.72 174 48.72"/><polygon class="cls-2" points="23.3 54.34 20.7 48.72 174.24 48.72 176.67 54.34 23.3 54.34"/></g></g></g></svg>