<svg xmlns="http://www.w3.org/2000/svg" xmlns:xlink="http://www.w3.org/1999/xlink" viewBox="0 0 200 200"><defs><style>.Light,.cls-1{fill:#ededed;}.cls-17,.cls-2{fill:#fff;}.cls-10,.cls-11,.cls-12,.cls-13,.cls-2,.cls-3,.cls-4,.cls-5,.cls-6,.cls-7,.cls-8,.cls-9{stroke:#ededed;stroke-miterlimit:10;stroke-width:0.75px;}.cls-3{fill:#f2cab6;}.cls-4{fill:#f7cdcd;}.cls-5{fill:#f26549;}.cls-6{fill:#cc553d;}.cls-7{fill:#996c4c;}.cls-8{fill:#ffd24c;}.cls-9{fill:#81c9a5;}.cls-10{fill:#2d8056;}.cls-11{fill:#99dbff;}.cls-12{fill:#004085;}.Shadow,.cls-13,.cls-15{fill:#373737;}.Light,.Shadow,.cls-14{mix-blend-mode:soft-light;}.cls-16{fill:#dbdbdb;}.cls-18{fill:none;}</style><symbol id="Paints" data-name="Paints" viewBox="0 0 41.79 17.85"><polygon class="cls-1" points="0 17.85 0 0.35 41 0.35 41 17.85 0 17.85"/><rect class="cls-1" x="1" y="1.35" width="39" height="15.5"/><rect class="cls-2" x="33.5" y="10.35" width="6.5" height="6.5" rx="1"/><rect class="cls-3" x="27" y="10.35" width="6.5" height="6.5" rx="1"/><rect class="cls-4" x="20.5" y="10.35" width="6.5" height="6.5" rx="1"/><rect class="cls-5" x="14" y="10.35" width="6.5" height="6.5" rx="1"/><rect class="cls-6" x="7.5" y="10.35" width="6.5" height="6.5" rx="1"/><rect class="cls-7" x="1" y="10.35" width="6.5" height="6.5" rx="1"/><rect class="cls-8" x="33.5" y="1.35" width="6.5" height="6.5" rx="1"/><rect class="cls-9" x="27" y="1.35" width="6.5" height="6.5" rx="1"/><rect class="cls-10" x="20.5" y="1.35" width="6.5" height="6.5" rx="1"/><rect class="cls-11" x="14" y="1.35" width="6.5" height="6.5" rx="1"/><rect class="cls-12" x="7.5" y="1.35" width="6.5" height="6.5" rx="1"/><rect class="cls-13" x="1" y="1.35" width="6.5" height="6.5" rx="1"/><g class="cls-14"><path class="cls-15" d="M39,10.35H34.53s-.38.56,2.52.84c2,.19,2.66,2.31,3,4.64V11.38A1,1,0,0,0,39,10.35Z"/><path class="cls-15" d="M32.47,10.35H28s-.38.56,2.52.84c2,.19,2.66,2.31,2.95,4.64V11.38A1,1,0,0,0,32.47,10.35Z"/><path class="cls-15" d="M26,10.35H21.53s-.38.56,2.52.84c2,.19,2.66,2.31,2.95,4.64V11.38A1,1,0,0,0,26,10.35Z"/><path class="cls-15" d="M19.47,10.35H15s-.38.56,2.52.84c2,.19,2.66,2.31,2.95,4.64V11.38A1,1,0,0,0,19.47,10.35Z"/><path class="cls-15" d="M13,10.35H8.53s-.38.56,2.52.84c2,.19,2.66,2.31,2.95,4.64V11.38A1,1,0,0,0,13,10.35Z"/><path class="cls-15" d="M6.47,10.35H2s-.38.56,2.52.84c2,.19,2.66,2.31,3,4.64V11.38A1,1,0,0,0,6.47,10.35Z"/><path class="cls-15" d="M39,1.35H34.53s-.38.56,2.52.84c2,.19,2.66,2.31,3,4.64V2.38A1,1,0,0,0,39,1.35Z"/><path class="cls-15" d="M32.47,1.35H28s-.38.56,2.52.84c2,.19,2.66,2.31,2.95,4.64V2.38A1,1,0,0,0,32.47,1.35Z"/><path class="cls-15" d="M26,1.35H21.53s-.38.56,2.52.84c2,.19,2.66,2.31,2.95,4.64V2.38A1,1,0,0,0,26,1.35Z"/><path class="cls-15" d="M19.47,1.35H15s-.38.56,2.52.84c2,.19,2.66,2.31,2.95,4.64V2.38A1,1,0,0,0,19.47,1.35Z"/><path class="cls-15" d="M13,1.35H8.53s-.38.56,2.52.84c2,.19,2.66,2.31,2.95,4.64V2.38A1,1,0,0,0,13,1.35Z"/><path class="cls-15" d="M6.47,1.35H2s-.38.56,2.52.84c2,.19,2.66,2.31,3,4.64V2.38A1,1,0,0,0,6.47,1.35Z"/></g><rect class="cls-16" x="1" y="8.17" width="39" height="1.88" rx="0.94"/><path class="Shadow" d="M1.94,8.48H39.06a.93.93,0,0,1,.91.78.76.76,0,0,0,0-.16.94.94,0,0,0-.94-.93H1.94A.94.94,0,0,0,1,9.1a.76.76,0,0,0,0,.16A.93.93,0,0,1,1.94,8.48Z"/><polygon class="cls-16" points="41.79 17.44 41 17.85 41 0.35 41.79 0 41.79 17.44"/><polygon class="cls-17" points="0 0.35 41.79 0 41 0.35 0 0.35 0 0.35"/><polygon class="Light" points="0 0.35 41.79 0 41 0.35 0 0.35 0 0.35"/></symbol></defs><g id="Layer_2" data-name="Layer 2"><g id="Игра"><circle class="cls-18" cx="100" cy="100" r="100"/><use width="41.79" height="17.85" transform="translate(15.18 64.1) scale(4.04)" xlink:href="#Paints"/></g></g></svg>