<svg xmlns="http://www.w3.org/2000/svg" xmlns:xlink="http://www.w3.org/1999/xlink" viewBox="0 0 200 200"><defs><style>.cls-1{fill:none;}.cls-2{isolation:isolate;}.cls-3{fill:#ffd24c;}.Light,.cls-5{fill:#ededed;}.Light,.Shadow,.cls-5{mix-blend-mode:soft-light;}.Shadow,.cls-4{fill:#373737;}.cls-5{opacity:0.5;}.cls-6{clip-path:url(#clip-path);}.cls-7{fill:#dbdbdb;}.cls-8{fill:#6d6d6d;}.cls-9{clip-path:url(#clip-path-2);}</style><clipPath id="clip-path"><path class="cls-1" d="M102.71,176.75h4.21a2.91,2.91,0,0,0,2.92-2.91V24.49a3.12,3.12,0,0,0-3.12-3.12h-3.81a3.12,3.12,0,0,0-3.11,3.12V173.84A2.91,2.91,0,0,0,102.71,176.75Z"/></clipPath><clipPath id="clip-path-2"><path class="cls-1" d="M125.63,176.75h4.21a2.91,2.91,0,0,0,2.91-2.91V24.49a3.12,3.12,0,0,0-3.12-3.12h-3.8a3.12,3.12,0,0,0-3.12,3.12V173.84A2.91,2.91,0,0,0,125.63,176.75Z"/></clipPath></defs><g class="cls-2"><g id="Layer_2" data-name="Layer 2"><g id="Игра"><circle class="cls-1" cx="100" cy="100" r="100"/><path class="cls-3" d="M66.84,110.45H87.34a0,0,0,0,1,0,0v59.7a1.54,1.54,0,0,1-1.54,1.54H68.38a1.54,1.54,0,0,1-1.54-1.54v-59.7A0,0,0,0,1,66.84,110.45Z"/><path class="Light" d="M83.24,171.69H85.8a1.54,1.54,0,0,0,1.54-1.54v-59.7h-4.1Z"/><path class="Shadow" d="M66.84,110.45v59.7a1.54,1.54,0,0,0,1.54,1.54h2.56V110.45Z"/><path class="cls-4" d="M68.58,79.18h17A2.37,2.37,0,0,1,88,81.55v28.9a0,0,0,0,1,0,0H66.21a0,0,0,0,1,0,0V81.55A2.37,2.37,0,0,1,68.58,79.18Z"/><rect class="cls-4" x="66.21" y="104.52" width="21.76" height="0.9"/><rect class="Shadow" x="66.21" y="104.52" width="21.76" height="0.9"/><path class="Light" d="M85.6,79.18H84.06v31.27H88V81.55A2.37,2.37,0,0,0,85.6,79.18Z"/><path class="Shadow" d="M68.58,79.18a2.37,2.37,0,0,0-2.37,2.37v28.9h3.91V79.18Z"/><path class="cls-4" d="M68.41,171.69H85.77a0,0,0,0,1,0,0v0a5.06,5.06,0,0,1-5.06,5.06H73.47a5.06,5.06,0,0,1-5.06-5.06v0a0,0,0,0,1,0,0Z"/><path class="cls-5" d="M85.77,171.69h-3c0,2.53-1.48,5.06-3.58,5.06h6.58Z"/><path class="Shadow" d="M71.41,171.69h-3a5.05,5.05,0,0,0,5.06,5.06H75C72.89,176.75,71.41,174.22,71.41,171.69Z"/><path class="cls-3" d="M74.71,77h4.76a1.45,1.45,0,0,1,1.45,1.45V99.17A3.83,3.83,0,0,1,77.09,103h0a3.83,3.83,0,0,1-3.83-3.83V78.4A1.45,1.45,0,0,1,74.71,77Z"/><path class="Light" d="M79.47,77h-.26c0,20.36.46,25.58-1.78,26a3.81,3.81,0,0,0,3.49-3.79V78.4A1.45,1.45,0,0,0,79.47,77Z"/><path class="Shadow" d="M76.76,103C74.51,102.53,75,97.31,75,77h-.27a1.45,1.45,0,0,0-1.45,1.45V99.17A3.81,3.81,0,0,0,76.76,103Z"/><rect class="cls-4" x="65.27" y="105.42" width="23.65" height="5.02" rx="1.41"/><path class="Light" d="M87.5,105.42H85a5.77,5.77,0,0,1,0,5H87.5A1.42,1.42,0,0,0,88.92,109v-2.2A1.43,1.43,0,0,0,87.5,105.42Z"/><path class="Shadow" d="M69.14,105.42H66.68a1.42,1.42,0,0,0-1.41,1.42V109a1.41,1.41,0,0,0,1.41,1.41h2.46A4.75,4.75,0,0,1,69.14,105.42Z"/><g class="cls-6"><rect class="cls-7" x="99.8" y="19.17" width="10.04" height="159.66"/><rect class="cls-3" x="99.23" y="60.34" width="11.82" height="5.73"/><rect class="cls-7" x="99.14" y="51.79" width="11.82" height="2.83"/><rect class="cls-7" x="99.14" y="174.51" width="11.82" height="0.62"/><rect class="cls-3" x="99.76" y="21.13" width="10.08" height="29.6"/><rect class="cls-8" x="99.14" y="50.73" width="11.82" height="1.06"/><rect class="cls-3" x="99.76" y="175.1" width="10.08" height="1.65"/></g><path class="Shadow" d="M99.8,24.49V173.84a2.91,2.91,0,0,0,2.58,2.88V24.08a2.44,2.44,0,0,1,2.44-2.71h-1.91A3.12,3.12,0,0,0,99.8,24.49Z"/><path class="Light" d="M107.25,24.08V176.72a2.92,2.92,0,0,0,2.59-2.88V24.49a3.12,3.12,0,0,0-3.12-3.12h-1.9C106.24,21.37,107.25,22.07,107.25,24.08Z"/><g class="cls-9"><rect class="cls-7" x="122.71" y="19.17" width="10.04" height="159.66"/><rect class="cls-3" x="122.14" y="60.34" width="11.82" height="5.73"/><rect class="cls-7" x="122.05" y="51.79" width="11.82" height="2.83"/><rect class="cls-7" x="122.05" y="174.51" width="11.82" height="0.62"/><rect class="cls-3" x="122.67" y="21.13" width="10.08" height="29.6"/><rect class="cls-8" x="122.05" y="50.73" width="11.82" height="1.06"/><rect class="cls-3" x="122.67" y="175.1" width="10.08" height="1.65"/></g><path class="Shadow" d="M122.71,24.49V173.84a2.91,2.91,0,0,0,2.59,2.88V24.08a2.43,2.43,0,0,1,2.43-2.71h-1.9A3.12,3.12,0,0,0,122.71,24.49Z"/><path class="Light" d="M130.16,24.08V176.72a2.91,2.91,0,0,0,2.59-2.88V24.49a3.12,3.12,0,0,0-3.12-3.12h-1.9C129.15,21.37,130.16,22.07,130.16,24.08Z"/></g></g></g></svg>