<svg xmlns="http://www.w3.org/2000/svg" xmlns:xlink="http://www.w3.org/1999/xlink" viewBox="0 0 200 200"><defs><style>.cls-1{fill:#ffd24c;}.cls-2{isolation:isolate;}.cls-3{fill:none;}.cls-4{clip-path:url(#clip-path);}.cls-5,.cls-7{fill:#dbdbdb;}.cls-6{fill:#929292;}.Shadow{fill:#373737;}.Light,.Shadow,.cls-7{mix-blend-mode:soft-light;}.Light{fill:#ededed;}.cls-8{clip-path:url(#clip-path-2);}.cls-9{clip-path:url(#clip-path-3);}</style><clipPath id="clip-path"><path class="cls-1" d="M102.31,171.33H100c-2.79,0-5.06-24.57-5.06-53.44V43.24c0-3.54,1.63-10,3.64-10h5.19c2,0,3.64,6.77,3.64,10v74.65C107.37,142.45,105.11,171.33,102.31,171.33Z"/></clipPath><clipPath id="clip-path-2"><path class="cls-1" d="M133.44,171.33h-2.35c-2.8,0-5.06-24.57-5.06-53.44V43.24c0-3.54,1.63-10,3.64-10h5.19c2,0,3.64,6.77,3.64,10v74.65C138.5,142.45,136.23,171.33,133.44,171.33Z"/></clipPath><clipPath id="clip-path-3"><path class="cls-1" d="M71.19,171.33H68.83c-2.79,0-5-24.57-5-53.44V43.24c0-3.54,1.62-10,3.63-10h5.2c2,0,3.64,6.77,3.64,10v74.65C76.25,142.45,74,171.33,71.19,171.33Z"/></clipPath></defs><g class="cls-2"><g id="Layer_2" data-name="Layer 2"><g id="Игра"><circle class="cls-3" cx="100" cy="100" r="100"/><path class="cls-1" d="M102.31,171.33H100c-2.79,0-5.06-24.57-5.06-53.44V43.24c0-3.54,1.63-10,3.64-10h5.19c2,0,3.64,6.77,3.64,10v74.65C107.37,142.45,105.11,171.33,102.31,171.33Z"/><g class="cls-4"><rect class="cls-5" x="91.89" y="33.24" width="18.65" height="12.49"/><rect class="cls-6" x="91.89" y="95.06" width="18.65" height="7.22"/><rect class="cls-5" x="91.89" y="151.22" width="18.65" height="20.1"/></g><path class="cls-6" d="M98.71,23.8h4.6a.43.43,0,0,1,.43.43v9.05a0,0,0,0,1,0,0H98.28a0,0,0,0,1,0,0V24.23A.43.43,0,0,1,98.71,23.8Z"/><path class="Shadow" d="M98.66,23.8a.38.38,0,0,0-.38.39v9.09H101V23.8Z"/><path class="Light" d="M103.35,23.8H101v9.48h2.73V24.19A.38.38,0,0,0,103.35,23.8Z"/><polygon class="cls-6" points="101.14 176.2 99.95 171.33 102.33 171.33 101.14 176.2"/><polygon class="cls-7" points="101.14 176.2 101.68 171.33 102.33 171.33 101.14 176.2"/><polygon class="Shadow" points="101.14 176.2 100.59 171.33 99.95 171.33 101.14 176.2"/><rect class="cls-1" x="107.37" y="48.62" width="2.03" height="4.62"/><path class="cls-1" d="M109.4,45.46h2a1,1,0,0,1,1,1v40a1,1,0,0,1-1,1h-2a0,0,0,0,1,0,0v-42a0,0,0,0,1,0,0Z"/><path class="cls-7" d="M111.54,45.46h-.12v42h.12a.9.9,0,0,0,.9-.9V46.36A.9.9,0,0,0,111.54,45.46Z"/><path class="Light" d="M103.73,33.24h-2.59c4.92,0,3.12,41.09,3.12,85,0,33.59-.73,51.12-3.12,53.08h1.17c2.8,0,5.06-28.88,5.06-53.44V43.24C107.37,40,105.74,33.24,103.73,33.24Z"/><path class="Shadow" d="M101.14,33.24h-2.6c-2,0-3.64,6.77-3.64,10v74.65c0,28.87,2.27,53.44,5.06,53.44h1.18c-2.4-2-3.12-19.49-3.12-53.08C98,74.33,96.21,33.24,101.14,33.24Z"/><path class="cls-1" d="M133.44,171.33h-2.35c-2.8,0-5.06-24.57-5.06-53.44V43.24c0-3.54,1.63-10,3.64-10h5.19c2,0,3.64,6.77,3.64,10v74.65C138.5,142.45,136.23,171.33,133.44,171.33Z"/><g class="cls-8"><rect class="cls-5" x="123.01" y="33.24" width="18.65" height="12.49"/><rect class="cls-6" x="123.01" y="95.06" width="18.65" height="7.22"/><rect class="cls-5" x="123.01" y="151.22" width="18.65" height="20.1"/></g><path class="cls-6" d="M129.83,23.8h4.6a.43.43,0,0,1,.43.43v9.05a0,0,0,0,1,0,0H129.4a0,0,0,0,1,0,0V24.23a.43.43,0,0,1,.43-.43Z"/><path class="Shadow" d="M129.79,23.8a.39.39,0,0,0-.39.39v9.09h2.73V23.8Z"/><path class="Light" d="M134.47,23.8h-2.34v9.48h2.73V24.19A.38.38,0,0,0,134.47,23.8Z"/><polygon class="cls-6" points="132.26 176.2 131.07 171.33 133.45 171.33 132.26 176.2"/><polygon class="cls-7" points="132.26 176.2 132.81 171.33 133.45 171.33 132.26 176.2"/><polygon class="Shadow" points="132.26 176.2 131.72 171.33 131.07 171.33 132.26 176.2"/><rect class="cls-1" x="138.5" y="48.62" width="2.03" height="4.62"/><path class="cls-1" d="M140.53,45.46h2a1,1,0,0,1,1,1v40a1,1,0,0,1-1,1h-2a0,0,0,0,1,0,0v-42A0,0,0,0,1,140.53,45.46Z"/><path class="cls-7" d="M142.66,45.46h-.11v42h.11a.9.9,0,0,0,.9-.9V46.36A.9.9,0,0,0,142.66,45.46Z"/><path class="Light" d="M134.86,33.24h-2.6c4.93,0,3.12,41.09,3.12,85,0,33.59-.72,51.12-3.12,53.08h1.18c2.79,0,5.06-28.88,5.06-53.44V43.24C138.5,40,136.87,33.24,134.86,33.24Z"/><path class="Shadow" d="M132.26,33.24h-2.59c-2,0-3.64,6.77-3.64,10v74.65c0,28.87,2.26,53.44,5.06,53.44h1.17c-2.39-2-3.11-19.49-3.11-53.08C129.15,74.33,127.34,33.24,132.26,33.24Z"/><path class="cls-1" d="M71.19,171.33H68.83c-2.79,0-5-24.57-5-53.44V43.24c0-3.54,1.62-10,3.63-10h5.2c2,0,3.64,6.77,3.64,10v74.65C76.25,142.45,74,171.33,71.19,171.33Z"/><g class="cls-9"><rect class="cls-5" x="60.76" y="33.24" width="18.65" height="12.49"/><rect class="cls-6" x="60.76" y="95.06" width="18.65" height="7.22"/><rect class="cls-5" x="60.76" y="151.22" width="18.65" height="20.1"/></g><path class="cls-6" d="M67.58,23.8h4.6a.43.43,0,0,1,.43.43v9.05a0,0,0,0,1,0,0H67.15a0,0,0,0,1,0,0V24.23A.43.43,0,0,1,67.58,23.8Z"/><path class="Shadow" d="M67.53,23.8a.38.38,0,0,0-.38.39v9.09h2.73V23.8Z"/><path class="Light" d="M72.22,23.8H69.88v9.48h2.73V24.19A.39.39,0,0,0,72.22,23.8Z"/><polygon class="cls-6" points="70.01 176.2 68.82 171.33 71.2 171.33 70.01 176.2"/><polygon class="cls-7" points="70.01 176.2 70.56 171.33 71.2 171.33 70.01 176.2"/><polygon class="Shadow" points="70.01 176.2 69.46 171.33 68.82 171.33 70.01 176.2"/><rect class="cls-1" x="76.25" y="48.62" width="2.03" height="4.62"/><path class="cls-1" d="M78.27,45.46h2a1,1,0,0,1,1,1v40a1,1,0,0,1-1,1h-2a0,0,0,0,1,0,0v-42A0,0,0,0,1,78.27,45.46Z"/><path class="cls-7" d="M80.41,45.46H80.3v42h.11a.9.9,0,0,0,.9-.9V46.36A.9.9,0,0,0,80.41,45.46Z"/><path class="Light" d="M72.61,33.24H70c4.93,0,3.12,41.09,3.12,85,0,33.59-.73,51.12-3.12,53.08h1.18c2.79,0,5-28.88,5-53.44V43.24C76.24,40,74.62,33.24,72.61,33.24Z"/><path class="Shadow" d="M70,33.24h-2.6c-2,0-3.63,6.77-3.63,10v74.65c0,28.87,2.26,53.44,5,53.44H70c-2.39-2-3.12-19.49-3.12-53.08C66.89,74.33,65.08,33.24,70,33.24Z"/></g></g></g></svg>