<svg xmlns="http://www.w3.org/2000/svg" viewBox="0 0 130 130"><defs><style>.cls-1,.cls-2,.cls-3{fill:none;}.cls-2,.cls-3{stroke:#0d3b7a;stroke-linejoin:round;stroke-width:3px;}.cls-3{stroke-linecap:round;fill-rule:evenodd;}.cls-4{opacity:0.8;}</style></defs><g id="Layer_2" data-name="Layer 2"><g id="Игра"><rect class="cls-1" width="130" height="130"/><path class="cls-2" d="M84,52.57H32.5V87.24A5.8,5.8,0,0,0,38.29,93H78.22A5.8,5.8,0,0,0,84,87.24Z"/><path class="cls-2" d="M94.2,59.51,84,52.57l5.34,11.11a3.3,3.3,0,0,0,5.32.91h0A3.32,3.32,0,0,0,94.2,59.51Z"/><path class="cls-2" d="M73,63.28H43.54s-.61,15.94,15.33,15.33S73,63.28,73,63.28Z"/><polyline class="cls-3" points="43.06 48.35 63.25 37.55 67.49 45.23"/><polyline class="cls-3" points="59.74 48.35 73.04 42.99 75.24 48.35"/></g></g></svg>